<?xml version="1.0" standalone="no"?>
 <!DOCTYPE svg PUBLIC "-//W3C//DTD SVG 1.1//EN" 
 "http://www.w3.org/Graphics/SVG/1.1/DTD/svg11.dtd"> 
<svg
  xmlns:svg="http://www.w3.org/2000/svg"
  xmlns="http://www.w3.org/2000/svg"
  xmlns:xlink="http://www.w3.org/1999/xlink"
  version="1.1"
  width="210.0072mm" height="148.0058mm" viewBox="0.0000 0.0000 210.0072 148.0058">
<title>SVG Image created as pwmTo_0-5V-F_Cu.svg date 2025/02/03 10:17:39 </title>
  <desc>Image generated by PCBNEW </desc>
<g style="fill:#000000; fill-opacity:1.0000;stroke:#000000; stroke-opacity:1.0000;
stroke-linecap:round; stroke-linejoin:round;"
 transform="translate(0 0) scale(1 1)">
</g>
<g style="fill:#000000; fill-opacity:1.0000; 
stroke:#000000; stroke-width:0.0212; stroke-opacity:1; 
stroke-linecap:round; stroke-linejoin:round;">
<rect x="67.007200" y="48.899750" width="83.738000" height="38.850250" rx="0.000000" />
<path style="fill:#FFFFFF; fill-opacity:1.0000; stroke:none;fill-rule:evenodd;"
d="M 109.1322,67.1750
109.1132,67.0793
109.0590,66.9982
108.9779,66.9440
108.8822,66.9250
108.0822,66.9250
107.9865,66.9440
107.9054,66.9982
107.8512,67.0793
107.8322,67.1750
107.8322,68.4250
107.8512,68.5207
107.9054,68.6018
107.9865,68.6560
108.0822,68.6750
108.8822,68.6750
108.9779,68.6560
109.0590,68.6018
109.1132,68.5207
109.1322,68.4250
Z" /> 
<path style="fill:#FFFFFF; fill-opacity:1.0000; stroke:none;fill-rule:evenodd;"
d="M 106.0322,67.1750
106.0132,67.0793
105.9590,66.9982
105.8779,66.9440
105.7822,66.9250
104.9822,66.9250
104.8865,66.9440
104.8054,66.9982
104.7512,67.0793
104.7322,67.1750
104.7322,68.4250
104.7512,68.5207
104.8054,68.6018
104.8865,68.6560
104.9822,68.6750
105.7822,68.6750
105.8779,68.6560
105.9590,68.6018
106.0132,68.5207
106.0322,68.4250
Z" /> 
</g>
<g style="fill:#FFFFFF; fill-opacity:1.0000; stroke:none;">
<circle cx="141.4022" cy="58.8120" r="1.8000" /> 
</g>
<g style="fill:#FFFFFF; fill-opacity:1.0000; stroke:none;">
<circle cx="141.4022" cy="58.8120" r="2.8000" /> 
<path style="fill:#FFFFFF; fill-opacity:1.0000; stroke:none;fill-rule:evenodd;"
d="M 109.1322,63.1750
109.1132,63.0793
109.0590,62.9982
108.9779,62.9440
108.8822,62.9250
108.0822,62.9250
107.9865,62.9440
107.9054,62.9982
107.8512,63.0793
107.8322,63.1750
107.8322,64.4250
107.8512,64.5207
107.9054,64.6018
107.9865,64.6560
108.0822,64.6750
108.8822,64.6750
108.9779,64.6560
109.0590,64.6018
109.1132,64.5207
109.1322,64.4250
Z" /> 
<path style="fill:#FFFFFF; fill-opacity:1.0000; stroke:none;fill-rule:evenodd;"
d="M 106.0322,63.1750
106.0132,63.0793
105.9590,62.9982
105.8779,62.9440
105.7822,62.9250
104.9822,62.9250
104.8865,62.9440
104.8054,62.9982
104.7512,63.0793
104.7322,63.1750
104.7322,64.4250
104.7512,64.5207
104.8054,64.6018
104.8865,64.6560
104.9822,64.6750
105.7822,64.6750
105.8779,64.6560
105.9590,64.6018
106.0132,64.5207
106.0322,64.4250
Z" /> 
</g>
<g style="fill:#FFFFFF; fill-opacity:1.0000; stroke:none;">
<circle cx="141.4022" cy="78.6240" r="1.8000" /> 
</g>
<g style="fill:#FFFFFF; fill-opacity:1.0000; stroke:none;">
<circle cx="141.4022" cy="78.6240" r="2.8000" /> 
<path style="fill:#FFFFFF; fill-opacity:1.0000; stroke:none;fill-rule:evenodd;"
d="M 102.6322,74.1750
102.6132,74.0793
102.5590,73.9982
102.4779,73.9440
102.3822,73.9250
101.5822,73.9250
101.4865,73.9440
101.4054,73.9982
101.3512,74.0793
101.3322,74.1750
101.3322,75.4250
101.3512,75.5207
101.4054,75.6018
101.4865,75.6560
101.5822,75.6750
102.3822,75.6750
102.4779,75.6560
102.5590,75.6018
102.6132,75.5207
102.6322,75.4250
Z" /> 
<path style="fill:#FFFFFF; fill-opacity:1.0000; stroke:none;fill-rule:evenodd;"
d="M 99.5322,74.1750
99.5132,74.0793
99.4590,73.9982
99.3779,73.9440
99.2822,73.9250
98.4822,73.9250
98.3865,73.9440
98.3054,73.9982
98.2512,74.0793
98.2322,74.1750
98.2322,75.4250
98.2512,75.5207
98.3054,75.6018
98.3865,75.6560
98.4822,75.6750
99.2822,75.6750
99.3779,75.6560
99.4590,75.6018
99.5132,75.5207
99.5322,75.4250
Z" /> 
<path style="fill:#FFFFFF; fill-opacity:1.0000; stroke:none;fill-rule:evenodd;"
d="M 102.7082,63.2670
102.6892,63.1713
102.6350,63.0902
102.5539,63.0360
102.4582,63.0170
101.6582,63.0170
101.5625,63.0360
101.4814,63.0902
101.4272,63.1713
101.4082,63.2670
101.4082,64.5170
101.4272,64.6127
101.4814,64.6938
101.5625,64.7480
101.6582,64.7670
102.4582,64.7670
102.5539,64.7480
102.6350,64.6938
102.6892,64.6127
102.7082,64.5170
Z" /> 
<path style="fill:#FFFFFF; fill-opacity:1.0000; stroke:none;fill-rule:evenodd;"
d="M 99.6082,63.2670
99.5892,63.1713
99.5350,63.0902
99.4539,63.0360
99.3582,63.0170
98.5582,63.0170
98.4625,63.0360
98.3814,63.0902
98.3272,63.1713
98.3082,63.2670
98.3082,64.5170
98.3272,64.6127
98.3814,64.6938
98.4625,64.7480
98.5582,64.7670
99.3582,64.7670
99.4539,64.7480
99.5350,64.6938
99.5892,64.6127
99.6082,64.5170
Z" /> 
<path style="fill:#FFFFFF; fill-opacity:1.0000; stroke:none;fill-rule:evenodd;"
d="M 94.6822,73.3000
94.7779,73.2810
94.8590,73.2268
94.9132,73.1457
94.9322,73.0500
94.9322,71.5500
94.9132,71.4543
94.8590,71.3732
94.7779,71.3190
94.6822,71.3000
93.1822,71.3000
93.0865,71.3190
93.0054,71.3732
92.9512,71.4543
92.9322,71.5500
92.9322,73.0500
92.9512,73.1457
93.0054,73.2268
93.0865,73.2810
93.1822,73.3000
Z" /> 
</g>
<g style="fill:#FFFFFF; fill-opacity:1.0000; stroke:none;">
<circle cx="93.9322" cy="67.8000" r="1.0000" /> 
</g>
<g style="fill:#FFFFFF; fill-opacity:1.0000; stroke:none;">
<circle cx="93.9322" cy="63.3000" r="1.0000" /> 
<path style="fill:#FFFFFF; fill-opacity:1.0000; stroke:none;fill-rule:evenodd;"
d="M 109.8822,58.1539
109.8621,57.9759
109.8030,57.8068
109.7077,57.6552
109.5810,57.5285
109.4294,57.4332
109.2603,57.3741
109.0823,57.3540
107.6821,57.3540
107.5041,57.3741
107.3350,57.4332
107.1834,57.5285
107.0567,57.6552
106.9614,57.8068
106.9023,57.9759
106.8822,58.1539
106.8822,58.4541
106.9023,58.6321
106.9614,58.8012
107.0567,58.9528
107.1834,59.0795
107.3350,59.1748
107.5041,59.2339
107.6821,59.2540
109.0823,59.2540
109.2603,59.2339
109.4294,59.1748
109.5810,59.0795
109.7077,58.9528
109.8030,58.8012
109.8621,58.6321
109.8822,58.4541
Z" /> 
<path style="fill:#FFFFFF; fill-opacity:1.0000; stroke:none;fill-rule:evenodd;"
d="M 97.9442,58.1539
97.9241,57.9759
97.8650,57.8068
97.7697,57.6552
97.6430,57.5285
97.4914,57.4332
97.3223,57.3741
97.1443,57.3540
95.7441,57.3540
95.5661,57.3741
95.3970,57.4332
95.2454,57.5285
95.1187,57.6552
95.0234,57.8068
94.9643,57.9759
94.9442,58.1539
94.9442,58.4541
94.9643,58.6321
95.0234,58.8012
95.1187,58.9528
95.2454,59.0795
95.3970,59.1748
95.5661,59.2339
95.7441,59.2540
97.1443,59.2540
97.3223,59.2339
97.4914,59.1748
97.6430,59.0795
97.7697,58.9528
97.8650,58.8012
97.9241,58.6321
97.9442,58.4541
Z" /> 
</g>
<g style="fill:#FFFFFF; fill-opacity:1.0000; stroke:none;">
<circle cx="76.1242" cy="58.8120" r="1.8000" /> 
</g>
<g style="fill:#FFFFFF; fill-opacity:1.0000; stroke:none;">
<circle cx="76.1242" cy="58.8120" r="2.8000" /> 
</g>
<g style="fill:#FFFFFF; fill-opacity:1.0000; stroke:none;">
<circle cx="76.1242" cy="78.3700" r="1.8000" /> 
</g>
<g style="fill:#FFFFFF; fill-opacity:1.0000; stroke:none;">
<circle cx="76.1242" cy="78.3700" r="2.8000" /> 
<path style="fill:#FFFFFF; fill-opacity:1.0000; stroke:none;fill-rule:evenodd;"
d="M 118.8072,63.1000
118.7115,63.1190
118.6304,63.1732
118.5762,63.2543
118.5572,63.3500
118.5572,64.1500
118.5762,64.2457
118.6304,64.3268
118.7115,64.3810
118.8072,64.4000
120.0572,64.4000
120.1529,64.3810
120.2340,64.3268
120.2882,64.2457
120.3072,64.1500
120.3072,63.3500
120.2882,63.2543
120.2340,63.1732
120.1529,63.1190
120.0572,63.1000
Z" /> 
<path style="fill:#FFFFFF; fill-opacity:1.0000; stroke:none;fill-rule:evenodd;"
d="M 118.8072,66.2000
118.7115,66.2190
118.6304,66.2732
118.5762,66.3543
118.5572,66.4500
118.5572,67.2500
118.5762,67.3457
118.6304,67.4268
118.7115,67.4810
118.8072,67.5000
120.0572,67.5000
120.1529,67.4810
120.2340,67.4268
120.2882,67.3457
120.3072,67.2500
120.3072,66.4500
120.2882,66.3543
120.2340,66.2732
120.1529,66.2190
120.0572,66.2000
Z" /> 
<path style="fill:#FFFFFF; fill-opacity:1.0000; stroke:none;fill-rule:evenodd;"
d="M 102.6572,70.6500
102.6382,70.5543
102.5840,70.4732
102.5029,70.4190
102.4072,70.4000
101.5822,70.4000
101.4865,70.4190
101.4054,70.4732
101.3512,70.5543
101.3322,70.6500
101.3322,71.9500
101.3512,72.0457
101.4054,72.1268
101.4865,72.1810
101.5822,72.2000
102.4072,72.2000
102.5029,72.1810
102.5840,72.1268
102.6382,72.0457
102.6572,71.9500
Z" /> 
<path style="fill:#FFFFFF; fill-opacity:1.0000; stroke:none;fill-rule:evenodd;"
d="M 99.5322,70.6500
99.5132,70.5543
99.4590,70.4732
99.3779,70.4190
99.2822,70.4000
98.4572,70.4000
98.3615,70.4190
98.2804,70.4732
98.2262,70.5543
98.2072,70.6500
98.2072,71.9500
98.2262,72.0457
98.2804,72.1268
98.3615,72.1810
98.4572,72.2000
99.2822,72.2000
99.3779,72.1810
99.4590,72.1268
99.5132,72.0457
99.5322,71.9500
Z" /> 
<path style="fill:#FFFFFF; fill-opacity:1.0000; stroke:none;fill-rule:evenodd;"
d="M 102.4642,66.6555
102.4518,66.5933
102.4166,66.5406
102.3639,66.5054
102.3017,66.4930
101.0667,66.4930
101.0045,66.5054
100.9518,66.5406
100.9166,66.5933
100.9042,66.6555
100.9042,66.9805
100.9166,67.0427
100.9518,67.0954
101.0045,67.1306
101.0667,67.1430
102.3017,67.1430
102.3639,67.1306
102.4166,67.0954
102.4518,67.0427
102.4642,66.9805
Z" /> 
<path style="fill:#FFFFFF; fill-opacity:1.0000; stroke:none;fill-rule:evenodd;"
d="M 102.4642,67.6055
102.4518,67.5433
102.4166,67.4906
102.3639,67.4554
102.3017,67.4430
101.0667,67.4430
101.0045,67.4554
100.9518,67.4906
100.9166,67.5433
100.9042,67.6055
100.9042,67.9305
100.9166,67.9927
100.9518,68.0454
101.0045,68.0806
101.0667,68.0930
102.3017,68.0930
102.3639,68.0806
102.4166,68.0454
102.4518,67.9927
102.4642,67.9305
Z" /> 
<path style="fill:#FFFFFF; fill-opacity:1.0000; stroke:none;fill-rule:evenodd;"
d="M 102.4642,68.5555
102.4518,68.4933
102.4166,68.4406
102.3639,68.4054
102.3017,68.3930
101.0667,68.3930
101.0045,68.4054
100.9518,68.4406
100.9166,68.4933
100.9042,68.5555
100.9042,68.8805
100.9166,68.9427
100.9518,68.9954
101.0045,69.0306
101.0667,69.0430
102.3017,69.0430
102.3639,69.0306
102.4166,68.9954
102.4518,68.9427
102.4642,68.8805
Z" /> 
<path style="fill:#FFFFFF; fill-opacity:1.0000; stroke:none;fill-rule:evenodd;"
d="M 99.7642,68.5555
99.7518,68.4933
99.7166,68.4406
99.6639,68.4054
99.6017,68.3930
98.3667,68.3930
98.3045,68.4054
98.2518,68.4406
98.2166,68.4933
98.2042,68.5555
98.2042,68.8805
98.2166,68.9427
98.2518,68.9954
98.3045,69.0306
98.3667,69.0430
99.6017,69.0430
99.6639,69.0306
99.7166,68.9954
99.7518,68.9427
99.7642,68.8805
Z" /> 
<path style="fill:#FFFFFF; fill-opacity:1.0000; stroke:none;fill-rule:evenodd;"
d="M 99.7642,66.6555
99.7518,66.5933
99.7166,66.5406
99.6639,66.5054
99.6017,66.4930
98.3667,66.4930
98.3045,66.5054
98.2518,66.5406
98.2166,66.5933
98.2042,66.6555
98.2042,66.9805
98.2166,67.0427
98.2518,67.0954
98.3045,67.1306
98.3667,67.1430
99.6017,67.1430
99.6639,67.1306
99.7166,67.0954
99.7518,67.0427
99.7642,66.9805
Z" /> 
<path style="fill:#FFFFFF; fill-opacity:1.0000; stroke:none;fill-rule:evenodd;"
d="M 109.1322,70.6750
109.1132,70.5793
109.0590,70.4982
108.9779,70.4440
108.8822,70.4250
108.0822,70.4250
107.9865,70.4440
107.9054,70.4982
107.8512,70.5793
107.8322,70.6750
107.8322,71.9250
107.8512,72.0207
107.9054,72.1018
107.9865,72.1560
108.0822,72.1750
108.8822,72.1750
108.9779,72.1560
109.0590,72.1018
109.1132,72.0207
109.1322,71.9250
Z" /> 
<path style="fill:#FFFFFF; fill-opacity:1.0000; stroke:none;fill-rule:evenodd;"
d="M 106.0322,70.6750
106.0132,70.5793
105.9590,70.4982
105.8779,70.4440
105.7822,70.4250
104.9822,70.4250
104.8865,70.4440
104.8054,70.4982
104.7512,70.5793
104.7322,70.6750
104.7322,71.9250
104.7512,72.0207
104.8054,72.1018
104.8865,72.1560
104.9822,72.1750
105.7822,72.1750
105.8779,72.1560
105.9590,72.1018
106.0132,72.0207
106.0322,71.9250
Z" /> 
<path style="fill:#FFFFFF; fill-opacity:1.0000; stroke:none;fill-rule:evenodd;"
d="M 120.0422,70.8300
120.0422,69.2300
118.4422,69.2300
118.4422,70.8300
Z" /> 
<path style="fill:#FFFFFF; fill-opacity:1.0000; stroke:none;fill-rule:evenodd;"
d="M 120.0422,73.3700
120.0422,71.7700
118.4422,71.7700
118.4422,73.3700
Z" /> 
<path style="fill:#FFFFFF; fill-opacity:1.0000; stroke:none;fill-rule:evenodd;"
d="M 112.4222,73.3700
112.4222,71.7700
110.8222,71.7700
110.8222,73.3700
Z" /> 
<path style="fill:#FFFFFF; fill-opacity:1.0000; stroke:none;fill-rule:evenodd;"
d="M 112.4222,70.8300
112.4222,69.2300
110.8222,69.2300
110.8222,70.8300
Z" /> 
<path style="fill:#FFFFFF; fill-opacity:1.0000; stroke:none;fill-rule:evenodd;"
d="M 109.1572,74.6500
109.1382,74.5543
109.0840,74.4732
109.0029,74.4190
108.9072,74.4000
108.0822,74.4000
107.9865,74.4190
107.9054,74.4732
107.8512,74.5543
107.8322,74.6500
107.8322,75.9500
107.8512,76.0457
107.9054,76.1268
107.9865,76.1810
108.0822,76.2000
108.9072,76.2000
109.0029,76.1810
109.0840,76.1268
109.1382,76.0457
109.1572,75.9500
Z" /> 
<path style="fill:#FFFFFF; fill-opacity:1.0000; stroke:none;fill-rule:evenodd;"
d="M 106.0322,74.6500
106.0132,74.5543
105.9590,74.4732
105.8779,74.4190
105.7822,74.4000
104.9572,74.4000
104.8615,74.4190
104.7804,74.4732
104.7262,74.5543
104.7072,74.6500
104.7072,75.9500
104.7262,76.0457
104.7804,76.1268
104.8615,76.1810
104.9572,76.2000
105.7822,76.2000
105.8779,76.1810
105.9590,76.1268
106.0132,76.0457
106.0322,75.9500
Z" /> 
<path style="fill:#FFFFFF; fill-opacity:1.0000; stroke:none;fill-rule:evenodd;"
d="M 123.0572,65.0500
122.9615,65.0690
122.8804,65.1232
122.8262,65.2043
122.8072,65.3000
122.8072,66.8000
122.8262,66.8957
122.8804,66.9768
122.9615,67.0310
123.0572,67.0500
124.5572,67.0500
124.6529,67.0310
124.7340,66.9768
124.7882,66.8957
124.8072,66.8000
124.8072,65.3000
124.7882,65.2043
124.7340,65.1232
124.6529,65.0690
124.5572,65.0500
Z" /> 
</g>
<g style="fill:#FFFFFF; fill-opacity:1.0000; stroke:none;">
<circle cx="123.8072" cy="70.5500" r="1.0000" /> 
<path style="fill:#FFFFFF; fill-opacity:1.0000; stroke:none;fill-rule:evenodd;"
d="M 111.3072,63.1000
111.2115,63.1190
111.1304,63.1732
111.0762,63.2543
111.0572,63.3500
111.0572,64.1500
111.0762,64.2457
111.1304,64.3268
111.2115,64.3810
111.3072,64.4000
112.5572,64.4000
112.6529,64.3810
112.7340,64.3268
112.7882,64.2457
112.8072,64.1500
112.8072,63.3500
112.7882,63.2543
112.7340,63.1732
112.6529,63.1190
112.5572,63.1000
Z" /> 
<path style="fill:#FFFFFF; fill-opacity:1.0000; stroke:none;fill-rule:evenodd;"
d="M 111.3072,66.2000
111.2115,66.2190
111.1304,66.2732
111.0762,66.3543
111.0572,66.4500
111.0572,67.2500
111.0762,67.3457
111.1304,67.4268
111.2115,67.4810
111.3072,67.5000
112.5572,67.5000
112.6529,67.4810
112.7340,67.4268
112.7882,67.3457
112.8072,67.2500
112.8072,66.4500
112.7882,66.3543
112.7340,66.2732
112.6529,66.2190
112.5572,66.2000
Z" /> 
</g>
<g style="fill:none; 
stroke:#FFFFFF; stroke-width:0.6000; stroke-opacity:1; 
stroke-linecap:round; stroke-linejoin:round;">
<path d="M103.4322 73.3500
L103.4322 73.3000
" />
<path d="M101.9822 74.8000
L103.4322 73.3500
" />
<path d="M103.4322 73.3000
L108.4822 73.3000
" />
<path d="M108.4822 73.3000
L108.4822 74.7875
" />
<path d="M108.4822 74.7875
L108.4947 74.8000
" />
<path d="M108.4822 70.9000
L108.4822 71.3000
" />
<path d="M108.4822 71.3000
L108.4822 73.3000
" />
<path d="M105.3822 67.8000
L108.4822 70.9000
" />
<path d="M101.9947 71.3000
L105.3822 71.3000
" />
<path d="M101.9947 69.0285
L101.6842 68.7180
" />
<path d="M101.9947 71.3000
L101.9947 69.0285
" />
<path d="M98.9842 71.1855
L98.8697 71.3000
" />
<path d="M96.1902 68.7180
L98.9842 68.7180
" />
<path d="M98.9842 68.7180
L98.9842 71.1855
" />
<path d="M93.9322 67.8000
L95.2722 67.8000
" />
<path d="M98.8697 71.3000
L98.8697 74.7875
" />
<path d="M95.2722 67.8000
L96.1902 68.7180
" />
<path d="M98.8697 74.7875
L98.8822 74.8000
" />
<path d="M111.8822 63.8000
L111.9322 63.7500
" />
<path d="M93.9322 60.8160
L96.4442 58.3040
" />
<path d="M93.9322 60.8160
L93.9322 62.5000
" />
<path d="M108.4822 63.8000
L111.8822 63.8000
" />
<path d="M98.3442 66.1780
L98.9842 66.8180
" />
<path d="M96.8102 66.1780
L98.3442 66.1780
" />
<path d="M93.9322 63.3000
L96.8102 66.1780
" />
<path d="M108.4822 63.8000
L108.4822 58.4040
" />
<path d="M108.4822 58.4040
L108.3822 58.3040
" />
<path d="M121.7872 72.5700
L119.2422 72.5700
" />
<path d="M123.8072 70.5500
L121.7872 72.5700
" />
<path d="M121.5072 63.7500
L123.8072 66.0500
" />
<path d="M119.4322 63.7500
L121.5072 63.7500
" />
<path d="M119.4322 66.8500
L119.4322 69.8400
" />
<path d="M119.4322 69.8400
L119.2422 70.0300
" />
<path d="M105.3822 63.8000
L101.9822 63.8000
" />
<path d="M102.0582 63.8920
L102.0582 66.4440
" />
<path d="M102.0582 66.4440
L101.6842 66.8180
" />
<path d="M109.3922 67.8000
L111.6222 70.0300
" />
<path d="M108.4822 67.8000
L109.3922 67.8000
" />
<path d="M111.9322 66.8500
L111.9322 69.7200
" />
<path d="M111.9322 69.7200
L111.6222 70.0300
" />
<path style="fill:#FFFFFF; fill-opacity:1.0000; stroke:none;fill-rule:evenodd;"
d="M 117.3088,54.5062
117.2631,54.5590
117.2519,54.6094
117.0126,81.8858
117.0110,82.0624
117.0301,82.1296
117.0825,82.1758
117.1350,82.1875
145.0957,82.1875
145.1627,82.1678
145.2085,82.1150
145.2197,82.0635
145.2197,78.6240
144.7075,78.6240
144.7075,78.6240
144.6882,78.9814
144.6882,78.9814
144.6303,79.3345
144.6303,79.3346
144.5345,79.6794
144.5345,79.6794
144.4021,80.0119
144.4020,80.0119
144.2344,80.3281
144.2344,80.3281
144.0336,80.6243
144.0336,80.6243
143.8019,80.8971
143.8019,80.8971
143.5420,81.1432
143.2571,81.3598
142.9505,81.5443
142.9505,81.5443
142.9504,81.5443
142.9504,81.5443
142.6256,81.6946
142.6256,81.6946
142.2865,81.8089
141.9369,81.8858
141.5811,81.9245
141.5811,81.9245
141.2233,81.9245
141.2233,81.9245
140.8675,81.8858
140.5179,81.8089
140.1788,81.6946
139.8539,81.5443
139.5473,81.3598
139.2624,81.1432
139.0025,80.8971
138.7708,80.6243
138.5700,80.3281
138.4023,80.0119
138.2699,79.6794
138.1741,79.3346
138.1162,78.9814
138.0969,78.6240
138.1162,78.2666
138.1741,77.9134
138.2699,77.5686
138.4023,77.2361
138.5700,76.9199
138.7708,76.6237
138.7708,76.6237
138.7708,76.6237
139.0025,76.3509
139.2624,76.1048
139.2624,76.1048
139.2624,76.1048
139.3300,76.0534
139.5473,75.8882
139.8539,75.7037
139.8539,75.7037
139.8540,75.7037
139.8540,75.7037
140.1788,75.5534
140.1788,75.5534
140.1788,75.5534
140.3483,75.4963
140.5179,75.4391
140.8675,75.3622
141.2233,75.3235
141.2233,75.3235
141.5811,75.3235
141.5811,75.3235
141.9369,75.3622
142.2865,75.4391
142.5422,75.5253
142.6256,75.5534
142.6256,75.5534
142.6256,75.5534
142.9504,75.7037
142.9504,75.7037
143.1788,75.8411
143.2571,75.8882
143.3454,75.9553
143.5420,76.1048
143.5420,76.1048
143.8019,76.3509
144.0336,76.6237
144.0336,76.6237
144.2344,76.9199
144.2344,76.9199
144.4020,77.2361
144.4021,77.2361
144.5345,77.5686
144.5345,77.5686
144.6303,77.9134
144.6303,77.9135
144.6882,78.2666
144.6882,78.2666
144.7075,78.6240
145.2197,78.6240
145.2197,70.4319
137.3077,70.4319
137.3077,70.6681
137.2708,70.9014
137.1978,71.1260
137.1261,71.2666
137.0905,71.3364
136.9517,71.5275
136.7847,71.6945
136.5936,71.8333
136.4942,71.8840
136.3832,71.9406
136.3832,71.9406
136.3832,71.9406
136.2628,71.9797
136.1586,72.0136
135.9253,72.0505
135.9253,72.0505
135.6891,72.0505
135.4558,72.0136
135.4436,72.0096
135.2312,71.9406
135.0208,71.8333
134.8297,71.6945
134.6627,71.5275
134.5239,71.3364
134.4166,71.1260
134.3436,70.9014
134.3272,70.7978
134.3067,70.6681
134.3067,70.5500
125.3128,70.5500
125.3128,70.5500
125.2923,70.7978
125.2923,70.7978
125.2313,71.0389
125.1314,71.2666
124.9954,71.4748
124.9954,71.4748
124.8269,71.6577
124.6307,71.8105
124.4120,71.9288
124.1768,72.0096
123.9315,72.0505
123.6829,72.0505
123.6829,72.0505
123.5366,72.0261
123.4673,72.0345
123.4286,72.0607
122.4090,73.0803
122.2975,73.1918
122.1664,73.2794
122.0634,73.3221
122.0207,73.3397
121.8660,73.3705
121.8660,73.3705
121.8660,73.3705
121.8660,73.3705
120.6592,73.3705
120.5921,73.3902
120.5464,73.4430
120.5389,73.4701
120.5381,73.4699
120.5363,73.4775
120.4860,73.6123
120.4860,73.6123
120.3997,73.7275
120.3997,73.7275
120.2845,73.8138
120.2845,73.8138
120.1497,73.8641
120.1497,73.8641
120.1428,73.8648
120.0901,73.8705
118.3943,73.8705
118.3347,73.8641
118.1999,73.8138
118.0847,73.7275
117.9984,73.6123
117.9481,73.4775
117.9417,73.4179
117.9417,71.7221
117.9481,71.6625
117.9984,71.5277
117.9984,71.5277
117.9984,71.5277
118.0847,71.4125
118.0847,71.4125
118.1023,71.3993
118.1441,71.3433
118.1491,71.2736
118.1156,71.2123
118.1023,71.2007
118.0847,71.1875
117.9984,71.0723
117.9481,70.9375
117.9417,70.8779
117.9417,69.1821
117.9481,69.1225
117.9616,69.0864
117.9984,68.9877
117.9984,68.9877
118.0847,68.8725
118.0847,68.8725
118.1999,68.7862
118.1999,68.7862
118.3347,68.7359
118.3347,68.7359
118.3943,68.7295
118.3943,68.7295
118.3943,68.7295
118.3943,68.7295
118.5077,68.7295
118.5747,68.7098
118.6205,68.6570
118.6317,68.6055
118.6317,68.0720
118.6120,68.0050
118.5592,67.9592
118.5467,67.9543
118.4879,67.9348
118.3385,67.8427
118.2145,67.7187
118.1224,67.5693
118.0672,67.4028
118.0567,67.3000
118.0567,66.4000
118.0672,66.2972
118.1224,66.1307
118.2145,65.9813
118.3385,65.8573
118.4879,65.7652
118.6544,65.7100
118.6544,65.7100
118.7572,65.6995
120.1072,65.6995
120.1072,65.6995
120.2100,65.7100
120.2100,65.7100
120.3765,65.7652
120.3765,65.7652
120.5259,65.8573
120.6499,65.9813
120.7420,66.1307
120.7420,66.1307
120.7699,66.2147
120.7972,66.2972
120.7972,66.2972
120.7972,66.2972
120.8077,66.4000
120.8077,67.3000
120.8077,67.3000
120.7972,67.4028
120.7972,67.4028
120.7605,67.5136
120.7420,67.5693
120.6499,67.7187
120.5259,67.8427
120.3765,67.9348
120.3765,67.9348
120.3561,67.9416
120.3177,67.9543
120.2603,67.9941
120.2334,68.0586
120.2327,68.0720
120.2327,68.6853
120.2524,68.7524
120.2824,68.7846
120.3997,68.8725
120.4860,68.9877
120.4860,68.9877
120.5363,69.1225
120.5427,69.1821
120.5427,69.1821
120.5427,69.1821
120.5427,70.8779
120.5427,70.8779
120.5363,70.9375
120.4860,71.0723
120.4860,71.0723
120.3997,71.1875
120.3997,71.1875
120.3997,71.1875
120.3821,71.2007
120.3821,71.2007
120.3403,71.2567
120.3353,71.3264
120.3688,71.3877
120.3821,71.3993
120.3997,71.4125
120.4860,71.5277
120.4860,71.5277
120.5363,71.6625
120.5381,71.6701
120.5403,71.6695
120.5626,71.7233
120.6200,71.7632
120.6592,71.7695
121.4043,71.7695
121.4713,71.7498
121.4919,71.7332
122.2935,70.9316
122.3270,70.8703
122.3261,70.8135
122.3221,70.7978
122.3221,70.7978
122.3016,70.5500
122.3016,70.5500
122.3221,70.3022
122.3221,70.3022
122.3831,70.0611
122.4830,69.8334
122.6190,69.6252
122.6676,69.5725
122.7875,69.4423
122.9837,69.2895
122.9837,69.2895
122.9837,69.2895
123.2024,69.1712
123.2024,69.1712
123.4376,69.0904
123.6829,69.0495
123.9315,69.0495
124.1768,69.0904
124.4120,69.1712
124.4120,69.1712
124.6307,69.2895
124.8269,69.4423
124.9954,69.6252
125.1314,69.8334
125.2313,70.0611
125.2923,70.3022
125.2923,70.3022
125.3128,70.5500
134.3067,70.5500
134.3067,70.4319
134.3436,70.1986
134.4166,69.9740
134.5239,69.7636
134.6627,69.5725
134.8297,69.4055
135.0208,69.2667
135.2312,69.1594
135.4558,69.0864
135.6891,69.0495
135.6891,69.0495
135.9253,69.0495
135.9253,69.0495
136.1586,69.0864
136.3832,69.1594
136.5936,69.2667
136.7027,69.3459
136.7847,69.4055
136.7847,69.4055
136.7847,69.4055
136.9517,69.5725
136.9517,69.5725
136.9517,69.5725
137.0113,69.6546
137.0905,69.7636
137.1978,69.9740
137.2708,70.1986
137.3077,70.4319
145.2197,70.4319
145.2197,65.9319
137.3077,65.9319
137.3077,66.1681
137.2708,66.4014
137.1978,66.6260
137.0905,66.8364
136.9517,67.0275
136.7847,67.1945
136.5936,67.3333
136.4942,67.3840
136.3832,67.4406
136.3832,67.4406
136.3832,67.4406
136.2628,67.4797
136.1586,67.5136
135.9253,67.5505
135.9253,67.5505
135.6891,67.5505
135.4558,67.5136
135.2312,67.4406
135.0208,67.3333
134.8297,67.1945
134.6627,67.0275
134.5239,66.8364
134.4166,66.6260
134.3436,66.4014
134.3271,66.2972
134.3067,66.1681
134.3067,65.9319
134.3436,65.6986
134.4166,65.4740
134.5239,65.2636
134.5337,65.2500
134.5337,65.2500
125.3077,65.2500
125.3077,66.8500
125.3077,66.8500
125.2972,66.9528
125.2972,66.9528
125.2724,67.0275
125.2420,67.1193
125.1499,67.2687
125.0259,67.3927
124.8765,67.4848
124.7100,67.5400
124.6072,67.5505
123.0072,67.5505
122.9044,67.5400
122.7379,67.4848
122.5885,67.3927
122.4645,67.2687
122.3724,67.1193
122.3172,66.9528
122.3067,66.8500
122.3067,65.7329
122.2870,65.6659
122.2704,65.6453
121.2119,64.5868
121.1506,64.5533
121.1243,64.5505
120.7612,64.5505
120.6941,64.5702
120.6556,64.6094
120.6521,64.6152
120.6499,64.6187
120.5259,64.7427
120.3765,64.8348
120.2100,64.8900
120.1072,64.9005
118.7572,64.9005
118.6544,64.8900
118.4879,64.8348
118.3385,64.7427
118.2145,64.6187
118.1224,64.4693
118.0672,64.3028
118.0567,64.2000
118.0567,63.3000
118.0672,63.1972
118.1224,63.0307
118.2145,62.8813
118.3385,62.7573
118.4879,62.6652
118.6544,62.6100
118.6544,62.6100
118.7572,62.5995
120.1072,62.5995
120.1072,62.5995
120.2100,62.6100
120.2100,62.6100
120.3765,62.6652
120.3765,62.6652
120.5259,62.7573
120.6499,62.8813
120.6556,62.8906
120.7076,62.9373
120.7612,62.9495
121.5860,62.9495
121.7407,62.9803
121.7407,62.9803
121.8864,63.0406
121.8864,63.0406
122.0175,63.1282
122.0175,63.1282
123.4025,64.5132
123.4638,64.5467
123.4901,64.5495
124.6072,64.5495
124.6072,64.5495
124.7100,64.5600
124.7100,64.5600
124.8765,64.6152
124.8765,64.6152
125.0259,64.7073
125.1499,64.8313
125.2420,64.9807
125.2420,64.9807
125.2972,65.1472
125.2972,65.1472
125.2972,65.1472
125.3077,65.2500
134.5337,65.2500
134.6627,65.0725
134.8297,64.9055
135.0208,64.7667
135.2312,64.6594
135.4558,64.5864
135.6891,64.5495
135.6891,64.5495
135.9253,64.5495
135.9253,64.5495
136.1586,64.5864
136.3832,64.6594
136.5936,64.7667
136.6827,64.8313
136.7847,64.9055
136.7847,64.9055
136.7847,64.9055
136.9517,65.0725
136.9517,65.0725
136.9517,65.0725
137.0060,65.1472
137.0905,65.2636
137.1978,65.4740
137.2708,65.6986
137.3077,65.9319
145.2197,65.9319
145.2197,58.8120
144.7075,58.8120
144.7075,58.8120
144.6882,59.1694
144.6882,59.1694
144.6303,59.5225
144.6303,59.5226
144.5345,59.8674
144.5345,59.8674
144.4021,60.1999
144.4020,60.1999
144.2344,60.5161
144.2344,60.5161
144.0336,60.8123
144.0336,60.8123
143.8019,61.0851
143.8019,61.0851
143.5420,61.3312
143.2571,61.5478
142.9505,61.7323
142.9505,61.7323
142.9504,61.7323
142.9504,61.7323
142.6256,61.8826
142.6256,61.8826
142.2865,61.9969
141.9369,62.0738
141.5811,62.1125
141.5811,62.1125
141.2233,62.1125
141.2233,62.1125
140.8675,62.0738
140.5179,61.9969
140.1788,61.8826
139.8539,61.7323
139.5473,61.5478
139.2624,61.3312
139.0025,61.0851
138.7708,60.8123
138.5700,60.5161
138.4023,60.1999
138.2699,59.8674
138.1741,59.5226
138.1162,59.1694
138.0969,58.8120
138.1162,58.4546
138.1741,58.1014
138.2699,57.7566
138.4023,57.4241
138.5700,57.1079
138.7708,56.8117
138.7708,56.8117
138.7708,56.8117
139.0025,56.5389
139.2624,56.2928
139.2624,56.2928
139.2624,56.2928
139.3300,56.2414
139.5473,56.0762
139.8539,55.8917
139.8539,55.8917
139.8540,55.8917
139.8540,55.8917
140.1788,55.7414
140.1788,55.7414
140.1788,55.7414
140.3483,55.6843
140.5179,55.6271
140.8675,55.5502
141.2233,55.5115
141.2233,55.5115
141.5811,55.5115
141.5811,55.5115
141.9369,55.5502
142.2865,55.6271
142.5422,55.7133
142.6256,55.7414
142.6256,55.7414
142.6256,55.7414
142.9504,55.8917
142.9504,55.8917
143.1788,56.0291
143.2571,56.0762
143.3454,56.1433
143.5420,56.2928
143.5420,56.2928
143.8019,56.5389
144.0336,56.8117
144.0336,56.8117
144.2344,57.1079
144.2344,57.1079
144.4020,57.4241
144.4021,57.4241
144.5345,57.7566
144.5345,57.7566
144.6303,58.1014
144.6303,58.1015
144.6882,58.4546
144.6882,58.4546
144.7075,58.8120
145.2197,58.8120
145.2197,54.6105
145.2000,54.5435
145.1472,54.4977
145.0957,54.4865
117.3758,54.4865
Z" /> 
<path style="fill:#FFFFFF; fill-opacity:1.0000; stroke:none;fill-rule:evenodd;"
d="M 72.6177,54.5062
72.5719,54.5590
72.5607,54.6105
72.5607,82.0635
72.5804,82.1305
72.6332,82.1763
72.6847,82.1875
113.6332,82.1875
113.7002,82.1678
113.7460,82.1150
113.7572,82.0635
113.7572,78.3700
79.4295,78.3700
79.4295,78.3700
79.4102,78.7274
79.4102,78.7274
79.3523,79.0805
79.3523,79.0806
79.2565,79.4254
79.2565,79.4254
79.1241,79.7579
79.1240,79.7579
78.9564,80.0741
78.9564,80.0741
78.7556,80.3703
78.7556,80.3703
78.5239,80.6431
78.5239,80.6431
78.2640,80.8892
77.9791,81.1058
77.6725,81.2903
77.6725,81.2903
77.6724,81.2903
77.6724,81.2903
77.3476,81.4406
77.3476,81.4406
77.0085,81.5549
76.6589,81.6318
76.3031,81.6705
76.3031,81.6705
75.9453,81.6705
75.9453,81.6705
75.5895,81.6318
75.2399,81.5549
74.9008,81.4406
74.5759,81.2903
74.2693,81.1058
73.9844,80.8892
73.7245,80.6431
73.4928,80.3703
73.2920,80.0741
73.1243,79.7579
72.9919,79.4254
72.8961,79.0806
72.8382,78.7274
72.8189,78.3700
72.8382,78.0126
72.8961,77.6594
72.9919,77.3146
73.1243,76.9821
73.2737,76.7005
73.2920,76.6659
73.2920,76.6659
73.2920,76.6659
73.4928,76.3697
73.4928,76.3697
73.4928,76.3697
73.7245,76.0969
73.8268,76.0000
73.9844,75.8508
73.9844,75.8508
73.9844,75.8508
74.1244,75.7443
74.2693,75.6342
74.5759,75.4497
74.5759,75.4497
74.5760,75.4497
74.5760,75.4497
74.9008,75.2994
74.9008,75.2994
74.9008,75.2994
75.0703,75.2423
75.2399,75.1851
75.5895,75.1082
75.9453,75.0695
75.9453,75.0695
76.3031,75.0695
76.3032,75.0695
76.6589,75.1082
77.0085,75.1851
77.2642,75.2713
77.3476,75.2994
77.3476,75.2994
77.3476,75.2994
77.6724,75.4497
77.6724,75.4497
77.8392,75.5500
77.9791,75.6342
78.0674,75.7013
78.2640,75.8508
78.2640,75.8508
78.5239,76.0969
78.7556,76.3697
78.7556,76.3697
78.9564,76.6659
78.9564,76.6659
79.1240,76.9821
79.1241,76.9821
79.2565,77.3146
79.2565,77.3146
79.3523,77.6594
79.3523,77.6595
79.4102,78.0126
79.4102,78.0126
79.4295,78.3700
113.7572,78.3700
113.7572,73.4178
112.9222,73.4178
112.9158,73.4774
112.9158,73.4774
112.8656,73.6121
112.8656,73.6121
112.7794,73.7272
112.7794,73.7272
112.6643,73.8133
112.6643,73.8134
112.5296,73.8636
112.5296,73.8636
112.4700,73.8700
112.4700,73.8700
111.8722,73.8700
111.3722,73.8700
110.7744,73.8700
110.7744,73.8700
110.7148,73.8636
110.7148,73.8636
110.5801,73.8134
110.5801,73.8133
110.4650,73.7272
110.4650,73.7272
110.3788,73.6121
110.3788,73.6121
110.3286,73.4774
110.3286,73.4774
110.3222,73.4178
110.3222,73.4178
110.3222,72.8200
111.3722,72.8200
111.3722,73.8700
111.8722,73.8700
111.8722,72.8200
112.9222,72.8200
112.9222,73.4178
113.7572,73.4178
113.7572,66.4000
113.3077,66.4000
113.3077,67.3000
113.3077,67.3000
113.2972,67.4028
113.2972,67.4028
113.2420,67.5693
113.2420,67.5693
113.2296,67.5895
113.1499,67.7187
113.0259,67.8427
112.8765,67.9348
112.8765,67.9348
112.8561,67.9416
112.8177,67.9543
112.7603,67.9941
112.7334,68.0586
112.7327,68.0720
112.7327,68.7752
112.7524,68.8422
112.7741,68.8655
112.7735,68.8662
112.7797,68.8725
112.8660,68.9877
112.8660,68.9877
112.9163,69.1225
112.9227,69.1821
112.9227,69.1821
112.9227,70.8779
112.9227,70.8779
112.9163,70.9375
112.8660,71.0723
112.8660,71.0723
112.7797,71.1875
112.7797,71.1875
112.7617,71.2010
112.7198,71.2570
112.7149,71.3267
112.7483,71.3880
112.7617,71.3996
112.7794,71.4128
112.8656,71.5279
112.8656,71.5279
112.9158,71.6626
112.9158,71.6626
112.9222,71.7222
112.9222,72.3200
110.3222,72.3200
110.3222,71.7222
110.3222,71.7222
110.3286,71.6626
110.3286,71.6626
110.3788,71.5279
110.3788,71.5279
110.4650,71.4128
110.4650,71.4128
110.4827,71.3996
110.5246,71.3436
110.5295,71.2740
110.4961,71.2126
110.4827,71.2011
110.4647,71.1875
110.3784,71.0723
110.3281,70.9375
110.3217,70.8779
110.3217,69.9129
110.3020,69.8459
110.2854,69.8253
109.4987,69.0386
109.4374,69.0051
109.3677,69.0101
109.3460,69.0207
109.2015,69.1098
109.0350,69.1650
108.9322,69.1755
108.1891,69.1755
108.1221,69.1952
108.0763,69.2480
108.0664,69.3171
108.0954,69.3807
108.1015,69.3872
108.6025,69.8882
108.6638,69.9217
108.6901,69.9245
108.9322,69.9245
108.9322,69.9245
109.0350,69.9350
109.0350,69.9350
109.2015,69.9902
109.2015,69.9902
109.3509,70.0823
109.4749,70.2063
109.5670,70.3557
109.5670,70.3557
109.6222,70.5222
109.6222,70.5222
109.6222,70.5222
109.6327,70.6250
109.6327,71.9750
109.6327,71.9750
109.6222,72.0778
109.6222,72.0778
109.5865,72.1855
109.5670,72.2443
109.4749,72.3937
109.3509,72.5177
109.3416,72.5234
109.2949,72.5754
109.2827,72.6290
109.2827,73.9306
109.3024,73.9977
109.3416,74.0362
109.3759,74.0573
109.4999,74.1813
109.5920,74.3307
109.5920,74.3307
109.5921,74.3309
109.6472,74.4972
109.6472,74.4972
109.6472,74.4972
109.6577,74.6000
109.6577,76.0000
109.6577,76.0000
109.6472,76.1028
109.6472,76.1028
109.6231,76.1755
109.5920,76.2693
109.4999,76.4187
109.3759,76.5427
109.2265,76.6348
109.0600,76.6900
108.9572,76.7005
108.0322,76.7005
108.0322,76.7005
108.0322,76.7005
107.9759,76.6947
107.9294,76.6900
107.7629,76.6348
107.6135,76.5427
107.4895,76.4187
107.3974,76.2693
107.3422,76.1028
107.3317,76.0000
107.3317,76.0000
106.5322,76.0000
106.5217,76.1027
106.4666,76.2691
106.4666,76.2691
106.3745,76.4183
106.2505,76.5423
106.1013,76.6344
106.1013,76.6344
105.9349,76.6895
105.9349,76.6895
105.8322,76.7000
105.6197,76.7000
105.1197,76.7000
104.9072,76.7000
104.9072,76.7000
104.8045,76.6895
104.6381,76.6344
104.6381,76.6344
104.4889,76.5423
104.3649,76.4183
104.2728,76.2691
104.2728,76.2691
104.2177,76.1027
104.2177,76.1027
104.2072,76.0000
104.2072,76.0000
104.2072,75.5500
105.1197,75.5500
105.1197,76.7000
105.6197,76.7000
105.6197,76.7000
105.6197,75.5500
106.5322,75.5500
106.5322,76.0000
107.3317,76.0000
107.3317,74.6000
107.3422,74.4972
107.3974,74.3307
107.4227,74.2896
107.4412,74.2222
107.4202,74.1555
107.3666,74.1108
107.3172,74.1005
106.5466,74.1005
106.4796,74.1202
106.4338,74.1730
106.4239,74.2421
106.4411,74.2896
106.4666,74.3309
106.4666,74.3309
106.5217,74.4973
106.5217,74.4973
106.5322,74.6000
106.5322,75.0500
104.2072,75.0500
104.2072,74.6000
104.2072,74.6000
104.2177,74.4973
104.2728,74.3309
104.2728,74.3309
104.2983,74.2896
104.3167,74.2222
104.2958,74.1555
104.2422,74.1108
104.1928,74.1005
103.8651,74.1005
103.7981,74.1202
103.7775,74.1368
103.1690,74.7453
103.1355,74.8066
103.1327,74.8329
103.1327,75.4750
103.1327,75.4750
103.1222,75.5778
103.1222,75.5778
103.1035,75.6342
103.0670,75.7443
102.9749,75.8937
102.8509,76.0177
102.7015,76.1098
102.5350,76.1650
102.4322,76.1755
101.5322,76.1755
101.5322,76.1755
101.5322,76.1755
101.4759,76.1697
101.4294,76.1650
101.2629,76.1098
101.1135,76.0177
100.9895,75.8937
100.8974,75.7443
100.8422,75.5778
100.8317,75.4750
100.8317,74.1250
100.8422,74.0222
100.8974,73.8557
100.9895,73.7063
101.1135,73.5823
101.2629,73.4902
101.4294,73.4350
101.4294,73.4350
101.5322,73.4245
101.5322,73.4245
102.1743,73.4245
102.2413,73.4048
102.2619,73.3882
102.7023,72.9478
102.7189,72.9255
102.7194,72.9259
102.7666,72.8552
102.7875,72.7885
102.7690,72.7211
102.7171,72.6745
102.6481,72.6633
102.6246,72.6686
102.5600,72.6900
102.4572,72.7005
101.5322,72.7005
101.5322,72.7005
101.5322,72.7005
101.4759,72.6947
101.4294,72.6900
101.2629,72.6348
101.1135,72.5427
100.9895,72.4187
100.8974,72.2693
100.8422,72.1028
100.8317,72.0000
100.8317,70.6000
100.8422,70.4972
100.8974,70.3307
100.9895,70.1813
101.1135,70.0573
101.1353,70.0439
101.1820,69.9919
101.1942,69.9383
101.1942,69.6675
101.1745,69.6005
101.1217,69.5547
101.0702,69.5435
101.0131,69.5435
100.9463,69.5374
100.9463,69.5374
100.9463,69.5374
100.7926,69.4895
100.6548,69.4062
100.5410,69.2924
100.4577,69.1546
100.4526,69.1383
100.4139,69.0801
100.3498,69.0522
100.2808,69.0632
100.2288,69.1099
100.2158,69.1383
100.2107,69.1546
100.2107,69.1546
100.2107,69.1546
100.1449,69.2636
100.1274,69.2924
100.0136,69.4062
100.0136,69.4062
100.0136,69.4062
99.8758,69.4895
99.8718,69.4908
99.8693,69.4925
99.8690,69.4926
99.8690,69.4927
99.8137,69.5295
99.7857,69.5935
99.7847,69.6092
99.7847,70.0398
99.8044,70.1068
99.8210,70.1275
99.8749,70.1813
99.9670,70.3307
99.9670,70.3307
100.0222,70.4972
100.0222,70.4972
100.0222,70.4972
100.0327,70.6000
100.0327,72.0000
100.0327,72.0000
100.0222,72.1028
100.0222,72.1028
99.9670,72.2693
99.9670,72.2693
99.9417,72.3104
99.8749,72.4187
99.7509,72.5427
99.7291,72.5561
99.6824,72.6081
99.6702,72.6617
99.6702,73.4633
99.6899,73.5304
99.7291,73.5689
99.7509,73.5823
99.8749,73.7063
99.9670,73.8557
99.9670,73.8557
99.9718,73.8700
100.0222,74.0222
100.0222,74.0222
100.0222,74.0222
100.0327,74.1250
100.0327,75.4750
100.0327,75.4750
100.0222,75.5778
100.0222,75.5778
100.0035,75.6342
99.9670,75.7443
99.8749,75.8937
99.7509,76.0177
99.6015,76.1098
99.4350,76.1650
99.3322,76.1755
98.4322,76.1755
98.4322,76.1755
98.4322,76.1755
98.3759,76.1697
98.3294,76.1650
98.1629,76.1098
98.0135,76.0177
97.8895,75.8937
97.7974,75.7443
97.7422,75.5778
97.7317,75.4750
97.7317,74.1250
97.7422,74.0222
97.7974,73.8557
97.8895,73.7063
98.0135,73.5823
98.0192,73.5778
98.0178,73.5760
98.0570,73.5323
98.0692,73.4788
98.0692,72.6617
98.0495,72.5946
98.0103,72.5561
97.9885,72.5427
97.8645,72.4187
97.7724,72.2693
97.7172,72.1028
97.7067,72.0000
97.7067,71.5000
95.4322,71.5000
95.4322,72.0500
94.2786,72.0500
94.3282,72.1360
94.3572,72.2440
94.3572,72.3560
94.3282,72.4640
94.2786,72.5500
95.4322,72.5500
95.4322,73.1000
95.4217,73.2027
95.3666,73.3691
95.3666,73.3691
95.2745,73.5183
95.1505,73.6423
95.0013,73.7344
95.0013,73.7344
94.8349,73.7895
94.8349,73.7895
94.7322,73.8000
94.1822,73.8000
94.1822,73.8000
94.1822,72.6464
94.0962,72.6960
93.9882,72.7250
93.8762,72.7250
93.7682,72.6960
93.6822,72.6464
93.6822,73.8000
93.1322,73.8000
93.1322,73.8000
93.0295,73.7895
92.8631,73.7344
92.8631,73.7344
92.7139,73.6423
92.5899,73.5183
92.4978,73.3691
92.4978,73.3691
92.4427,73.2027
92.4427,73.2027
92.4322,73.1000
92.4322,73.1000
92.4322,72.5500
93.5858,72.5500
93.5362,72.4640
93.5072,72.3560
93.5072,72.2440
93.5239,72.1819
83.4327,72.1819
83.4327,72.4181
83.3958,72.6514
83.3228,72.8760
83.2862,72.9478
83.2155,73.0864
83.0767,73.2775
82.9097,73.4445
82.7186,73.5833
82.6622,73.6121
82.5082,73.6906
82.5082,73.6906
82.5082,73.6906
82.3955,73.7272
82.2836,73.7636
82.0503,73.8005
82.0503,73.8005
81.8141,73.8005
81.5808,73.7636
81.3562,73.6906
81.1458,73.5833
80.9547,73.4445
80.7877,73.2775
80.6489,73.0864
80.5416,72.8760
80.4686,72.6514
80.4590,72.5906
80.4317,72.4181
80.4317,72.1819
80.4686,71.9486
80.5416,71.7240
80.5982,71.6130
80.6489,71.5136
80.7877,71.3225
80.9547,71.1555
81.1458,71.0167
81.3562,70.9094
81.5808,70.8364
81.8141,70.7995
81.8141,70.7995
82.0503,70.7995
82.0503,70.7995
82.2836,70.8364
82.5082,70.9094
82.7186,71.0167
82.8276,71.0959
82.9097,71.1555
82.9097,71.1555
82.9097,71.1555
83.0767,71.3225
83.0767,71.3225
83.0767,71.3225
83.1311,71.3973
83.2155,71.5136
83.3228,71.7240
83.3958,71.9486
83.4327,72.1819
93.5239,72.1819
93.5362,72.1360
93.5858,72.0500
92.4322,72.0500
92.4322,71.5000
92.4322,71.5000
92.4427,71.3973
92.4978,71.2309
92.4978,71.2309
92.5899,71.0817
92.7139,70.9577
92.8631,70.8656
92.8631,70.8656
93.0295,70.8105
93.0295,70.8105
93.1322,70.8000
93.6822,70.8000
93.6822,71.9536
93.7682,71.9040
93.8762,71.8750
93.9882,71.8750
94.0962,71.9040
94.1822,71.9536
94.1822,70.8000
94.7322,70.8000
94.7322,70.8000
94.8349,70.8105
95.0013,70.8656
95.0013,70.8656
95.1505,70.9577
95.2745,71.0817
95.3666,71.2309
95.3666,71.2309
95.4217,71.3973
95.4217,71.3973
95.4322,71.5000
97.7067,71.5000
97.7067,70.6000
97.7172,70.4972
97.7724,70.3307
97.8645,70.1813
97.9885,70.0573
98.1248,69.9732
98.1715,69.9213
98.1837,69.8677
98.1837,69.6425
98.1640,69.5755
98.1112,69.5297
98.0597,69.5185
96.1114,69.5185
96.1114,69.5185
95.9567,69.4877
95.8110,69.4274
95.6799,69.3398
95.1852,68.8450
95.1238,68.8116
95.0542,68.8165
95.0063,68.8487
94.9519,68.9077
94.7557,69.0605
94.7194,69.0801
94.5432,69.1755
94.5370,69.1788
94.3018,69.2596
94.0565,69.3005
93.8079,69.3005
93.5626,69.2596
93.3274,69.1788
93.1087,69.0605
92.9125,68.9077
92.7440,68.7248
92.6080,68.5166
92.5081,68.2889
92.4471,68.0478
92.4456,68.0298
92.4266,67.8000
92.4266,67.8000
92.4363,67.6819
83.4327,67.6819
83.4327,67.9181
83.3958,68.1514
83.3228,68.3760
83.2511,68.5166
83.2155,68.5864
83.0767,68.7775
82.9097,68.9445
82.7186,69.0833
82.6192,69.1340
82.5082,69.1906
82.5082,69.1906
82.5082,69.1906
82.4428,69.2118
82.2836,69.2636
82.0503,69.3005
82.0503,69.3005
81.8141,69.3005
81.5808,69.2636
81.5329,69.2480
81.3562,69.1906
81.1458,69.0833
80.9547,68.9445
80.7877,68.7775
80.6489,68.5864
80.5416,68.3760
80.4686,68.1514
80.4527,68.0508
80.4317,67.9181
80.4317,67.6819
80.4686,67.4486
80.5070,67.3307
80.5416,67.2240
80.5416,67.2240
80.5416,67.2240
80.6133,67.0834
80.6489,67.0136
80.7877,66.8225
80.9547,66.6555
81.1458,66.5167
81.1977,66.4902
81.3562,66.4094
81.5808,66.3364
81.8141,66.2995
81.8141,66.2995
82.0503,66.2995
82.0503,66.2995
82.2836,66.3364
82.5082,66.4094
82.7186,66.5167
82.8276,66.5959
82.9097,66.6555
82.9097,66.6555
82.9097,66.6555
83.0767,66.8225
83.0767,66.8225
83.0767,66.8225
83.1239,66.8874
83.2155,67.0136
83.3228,67.2240
83.3958,67.4486
83.4327,67.6819
92.4363,67.6819
92.4471,67.5522
92.4471,67.5522
92.5081,67.3111
92.6080,67.0834
92.7440,66.8752
92.7926,66.8225
92.9125,66.6923
93.1087,66.5395
93.1087,66.5395
93.1087,66.5395
93.3274,66.4212
93.3274,66.4212
93.5626,66.3404
93.8079,66.2995
94.0565,66.2995
94.3018,66.3404
94.5370,66.4212
94.5370,66.4212
94.7557,66.5395
94.9519,66.6923
95.1204,66.8752
95.1649,66.9433
95.2180,66.9887
95.2687,66.9995
95.3510,66.9995
95.5057,67.0303
95.5057,67.0303
95.6514,67.0906
95.6514,67.0906
95.7825,67.1782
95.7825,67.1782
96.4855,67.8812
96.5468,67.9147
96.5731,67.9175
98.1667,67.9175
98.2036,67.9119
98.2463,67.8986
98.2463,67.8986
98.2730,67.8961
98.3131,67.8925
98.3131,67.8925
99.6553,67.8925
99.7221,67.8986
99.7221,67.8986
99.8758,67.9465
100.0136,68.0298
100.1274,68.1436
100.1274,68.1436
100.2069,68.2751
100.2107,68.2814
100.2158,68.2977
100.2546,68.3559
100.3186,68.3838
100.3876,68.3728
100.4396,68.3261
100.4526,68.2977
100.4577,68.2814
100.4577,68.2814
100.4584,68.2791
100.4596,68.2092
100.4584,68.2053
100.4103,68.0508
100.4103,68.0508
100.4073,68.0180
100.6397,68.0180
100.7039,68.0001
100.7926,67.9465
100.7926,67.9465
100.9463,67.8986
100.9463,67.8986
100.9463,67.8986
100.9931,67.8943
101.0131,67.8925
101.0131,67.8925
102.3553,67.8925
102.4221,67.8986
102.4221,67.8986
102.5758,67.9465
102.6645,68.0001
102.7287,68.0180
102.9611,68.0180
102.9581,68.0508
102.9581,68.0508
102.9100,68.2053
102.9088,68.2751
102.9100,68.2790
102.9586,68.4351
102.9647,68.5019
102.9647,68.9341
102.9586,69.0009
102.9586,69.0009
102.9107,69.1546
102.9107,69.1546
102.9107,69.1546
102.8449,69.2636
102.8274,69.2924
102.8228,69.2983
102.8251,69.3001
102.7980,69.3496
102.7952,69.3760
102.7952,69.9383
102.8149,70.0054
102.8541,70.0439
102.8759,70.0573
102.9999,70.1813
103.0920,70.3307
103.0920,70.3307
103.1198,70.4145
103.1596,70.4719
103.2241,70.4988
103.2375,70.4995
104.1602,70.4995
104.2272,70.4798
104.2730,70.4270
104.2779,70.4145
104.2779,70.4145
104.2974,70.3557
104.3895,70.2063
104.5135,70.0823
104.6347,70.0075
104.6629,69.9902
104.6629,69.9902
104.6643,69.9897
104.8294,69.9350
104.8294,69.9350
104.9322,69.9245
105.8322,69.9245
105.8322,69.9245
105.9350,69.9350
105.9350,69.9350
106.0435,69.9709
106.1015,69.9902
106.1015,69.9902
106.1084,69.9925
106.1090,69.9905
106.1681,69.9995
106.2318,69.9709
106.2701,69.9125
106.2706,69.8426
106.2390,69.7889
105.6619,69.2118
105.6006,69.1783
105.5743,69.1755
104.9322,69.1755
104.9322,69.1755
104.8294,69.1650
104.6629,69.1098
104.5135,69.0177
104.3895,68.8937
104.2974,68.7443
104.2422,68.5778
104.2317,68.4750
104.2317,67.1250
104.2352,67.0906
104.2422,67.0222
104.2422,67.0222
104.2575,66.9760
104.2974,66.8557
104.3895,66.7063
104.5135,66.5823
104.6629,66.4902
104.8294,66.4350
104.8294,66.4350
104.9322,66.4245
105.8322,66.4245
105.8322,66.4245
105.9350,66.4350
105.9350,66.4350
106.1015,66.4902
106.1015,66.4902
106.2509,66.5823
106.3749,66.7063
106.4670,66.8557
106.4670,66.8557
106.4775,66.8874
106.5222,67.0222
106.5222,67.0222
106.5222,67.0222
106.5327,67.1250
106.5327,67.7671
106.5524,67.8341
106.5690,67.8547
107.1200,68.4057
107.1813,68.4392
107.2510,68.4342
107.3070,68.3924
107.3314,68.3269
107.3317,68.3181
107.3317,67.1250
107.3352,67.0906
107.3422,67.0222
107.3422,67.0222
107.3575,66.9760
107.3974,66.8557
107.4895,66.7063
107.6135,66.5823
107.7629,66.4902
107.9294,66.4350
107.9294,66.4350
108.0322,66.4245
108.9322,66.4245
108.9322,66.4245
109.0350,66.4350
109.0350,66.4350
109.2015,66.4902
109.2015,66.4902
109.3509,66.5823
109.4749,66.7063
109.5670,66.8557
109.5670,66.8557
109.6069,66.9760
109.6467,67.0335
109.6771,67.0516
109.7714,67.0906
109.7714,67.0906
109.9025,67.1782
109.9025,67.1782
110.4154,67.6911
110.4767,67.7246
110.5464,67.7196
110.6023,67.6777
110.6267,67.6123
110.6208,67.5644
110.5672,67.4028
110.5567,67.3000
110.5567,66.4000
110.5672,66.2972
110.6224,66.1307
110.7145,65.9813
110.8385,65.8573
110.9879,65.7652
111.1544,65.7100
111.1544,65.7100
111.2572,65.6995
112.6072,65.6995
112.6072,65.6995
112.7100,65.7100
112.7100,65.7100
112.8765,65.7652
112.8765,65.7652
113.0259,65.8573
113.1499,65.9813
113.2420,66.1307
113.2420,66.1307
113.2972,66.2972
113.2972,66.2972
113.2972,66.2972
113.3077,66.4000
113.7572,66.4000
113.7572,63.3000
113.3077,63.3000
113.3077,64.2000
113.3077,64.2000
113.2972,64.3028
113.2972,64.3028
113.2420,64.4693
113.2420,64.4693
113.2385,64.4750
113.1499,64.6187
113.0259,64.7427
112.8765,64.8348
112.7100,64.8900
112.6072,64.9005
111.2572,64.9005
111.1544,64.8900
110.9879,64.8348
110.8385,64.7427
110.7326,64.6368
110.6713,64.6033
110.6450,64.6005
109.7042,64.6005
109.6372,64.6202
109.5914,64.6730
109.5865,64.6855
109.5670,64.7443
109.5670,64.7443
109.5576,64.7596
109.4749,64.8937
109.3509,65.0177
109.2015,65.1098
109.0350,65.1650
108.9322,65.1755
108.0322,65.1755
108.0322,65.1755
108.0322,65.1755
107.9525,65.1674
107.9294,65.1650
107.7629,65.1098
107.6135,65.0177
107.4895,64.8937
107.3974,64.7443
107.3422,64.5778
107.3317,64.4750
107.3317,63.1250
107.3317,63.1250
106.5327,63.1250
106.5327,64.4750
106.5327,64.4750
106.5222,64.5778
106.5222,64.5778
106.4670,64.7443
106.4670,64.7443
106.4576,64.7596
106.3749,64.8937
106.2509,65.0177
106.1015,65.1098
105.9350,65.1650
105.8322,65.1755
104.9322,65.1755
104.9322,65.1755
104.9322,65.1755
104.8525,65.1674
104.8294,65.1650
104.6629,65.1098
104.5135,65.0177
104.3895,64.8937
104.2974,64.7443
104.2779,64.6855
104.2381,64.6281
104.1736,64.6012
104.1602,64.6005
103.3107,64.6005
103.2437,64.6202
103.1979,64.6730
103.1930,64.6855
103.1430,64.8363
103.0509,64.9857
102.9269,65.1097
102.9176,65.1154
102.8709,65.1674
102.8587,65.2210
102.8587,66.2608
102.8766,66.3249
102.9107,66.3814
102.9107,66.3814
102.9107,66.3814
102.9274,66.4350
102.9586,66.5351
102.9647,66.6019
102.9647,67.0341
102.9586,67.1009
102.9586,67.1009
102.9100,67.2570
102.9088,67.3268
102.9100,67.3307
102.9581,67.4852
102.9581,67.4852
102.9611,67.5180
102.9611,67.5180
102.7287,67.5180
102.6645,67.5359
102.5758,67.5895
102.4221,67.6374
102.3553,67.6435
101.0131,67.6435
101.0131,67.6435
100.9463,67.6374
100.9463,67.6374
100.9463,67.6374
100.7926,67.5895
100.7039,67.5359
100.6397,67.5180
100.4073,67.5180
100.4073,67.5180
100.4103,67.4852
100.4103,67.4852
100.4584,67.3307
100.4596,67.2609
100.4584,67.2570
100.4577,67.2546
100.4577,67.2546
100.4526,67.2383
100.4139,67.1801
100.3498,67.1522
100.2808,67.1632
100.2288,67.2099
100.2158,67.2383
100.2107,67.2546
100.2107,67.2546
100.2107,67.2546
100.1274,67.3924
100.1274,67.3924
100.0136,67.5062
100.0136,67.5062
100.0136,67.5062
99.8758,67.5895
99.7221,67.6374
99.6553,67.6435
98.3131,67.6435
98.3131,67.6435
98.2463,67.6374
98.2463,67.6374
98.2463,67.6374
98.0926,67.5895
97.9548,67.5062
97.8410,67.3924
97.7577,67.2546
97.7098,67.1009
97.7089,67.0913
97.6832,67.0263
97.6265,66.9855
97.5854,66.9785
96.7314,66.9785
96.7314,66.9785
96.5767,66.9477
96.4310,66.8874
96.2999,66.7998
94.3108,64.8107
94.2495,64.7772
94.2028,64.7761
94.0565,64.8005
94.0565,64.8005
93.8079,64.8005
93.5626,64.7596
93.3274,64.6788
93.1087,64.5605
92.9125,64.4077
92.7440,64.2248
92.6080,64.0166
92.5081,63.7889
92.4471,63.5478
92.4471,63.5478
92.4266,63.3000
92.4266,63.3000
92.4363,63.1819
83.4327,63.1819
83.4327,63.4181
83.3958,63.6514
83.3228,63.8760
83.2511,64.0166
83.2155,64.0864
83.0767,64.2775
82.9097,64.4445
82.7186,64.5833
82.6192,64.6340
82.5082,64.6906
82.5082,64.6906
82.5082,64.6906
82.3878,64.7297
82.2836,64.7636
82.0503,64.8005
82.0503,64.8005
81.8141,64.8005
81.5808,64.7636
81.5686,64.7596
81.3562,64.6906
81.1458,64.5833
80.9547,64.4445
80.7877,64.2775
80.6489,64.0864
80.5416,63.8760
80.4686,63.6514
80.4547,63.5635
80.4317,63.4181
80.4317,63.1819
80.4686,62.9486
80.5175,62.7983
80.5416,62.7240
80.5416,62.7240
80.5416,62.7240
80.5997,62.6100
80.6489,62.5136
80.7877,62.3225
80.9547,62.1555
81.1458,62.0167
81.1846,61.9969
81.3562,61.9094
81.5808,61.8364
81.8141,61.7995
81.8141,61.7995
82.0503,61.7995
82.0503,61.7995
82.2836,61.8364
82.5082,61.9094
82.7186,62.0167
82.8276,62.0959
82.9097,62.1555
82.9097,62.1555
82.9097,62.1555
83.0767,62.3225
83.0767,62.3225
83.0767,62.3225
83.1363,62.4046
83.2155,62.5136
83.3228,62.7240
83.3958,62.9486
83.4327,63.1819
92.4363,63.1819
92.4471,63.0522
92.4471,63.0522
92.5081,62.8111
92.6080,62.5834
92.7440,62.3752
92.7926,62.3225
92.9125,62.1923
93.0839,62.0588
93.1247,62.0021
93.1317,61.9610
93.1317,60.7372
93.1317,60.7372
93.1391,60.6999
93.1625,60.5825
93.1625,60.5825
93.2206,60.4422
93.2228,60.4368
93.3104,60.3057
93.4219,60.1942
94.5191,59.0971
94.5525,59.0357
94.5476,58.9660
94.5438,58.9570
94.5175,58.9006
94.4937,58.8120
79.4295,58.8120
79.4141,59.0971
79.4102,59.1694
79.4102,59.1694
79.3523,59.5225
79.3523,59.5226
79.2565,59.8674
79.2565,59.8674
79.1241,60.1999
79.1240,60.1999
78.9564,60.5161
78.9564,60.5161
78.9564,60.5161
78.8065,60.7372
78.7556,60.8123
78.7556,60.8123
78.5239,61.0851
78.5239,61.0851
78.2640,61.3312
77.9791,61.5478
77.6725,61.7323
77.6725,61.7323
77.6724,61.7323
77.6724,61.7323
77.4474,61.8364
77.3476,61.8826
77.0085,61.9969
76.6589,62.0738
76.3031,62.1125
76.3031,62.1125
75.9453,62.1125
75.9453,62.1125
75.5895,62.0738
75.2399,61.9969
74.9008,61.8826
74.5759,61.7323
74.2693,61.5478
73.9844,61.3312
73.7245,61.0851
73.4928,60.8123
73.2920,60.5161
73.1243,60.1999
72.9919,59.8674
72.8961,59.5226
72.8382,59.1694
72.8189,58.8120
72.8382,58.4546
72.8961,58.1014
72.9919,57.7566
73.1243,57.4241
73.1984,57.2845
73.2920,57.1079
73.2920,57.1079
73.2920,57.1079
73.4928,56.8117
73.4928,56.8117
73.4928,56.8117
73.7245,56.5389
73.9844,56.2928
73.9844,56.2928
73.9844,56.2928
74.0520,56.2414
74.2693,56.0762
74.5759,55.8917
74.5759,55.8917
74.5760,55.8917
74.5760,55.8917
74.9008,55.7414
74.9008,55.7414
74.9008,55.7414
75.0703,55.6843
75.2399,55.6271
75.5895,55.5502
75.9453,55.5115
75.9453,55.5115
76.3031,55.5115
76.3032,55.5115
76.6589,55.5502
77.0085,55.6271
77.2642,55.7133
77.3476,55.7414
77.3476,55.7414
77.3476,55.7414
77.6724,55.8917
77.6724,55.8917
77.9008,56.0291
77.9791,56.0762
78.0674,56.1433
78.2640,56.2928
78.2640,56.2928
78.5239,56.5389
78.7556,56.8117
78.7556,56.8117
78.9564,57.1079
78.9564,57.1079
79.1240,57.4241
79.1241,57.4241
79.2565,57.7566
79.2565,57.7566
79.3523,58.1014
79.3523,58.1015
79.4102,58.4546
79.4102,58.4546
79.4102,58.4546
79.4295,58.8120
94.4937,58.8120
94.4586,58.6808
94.4437,58.5109
94.4437,58.0971
94.4586,57.9272
94.5175,57.7074
94.6136,57.5012
94.7441,57.3148
94.9050,57.1539
95.0914,57.0234
95.0914,57.0234
95.0914,57.0234
95.1945,56.9753
95.2976,56.9273
95.2976,56.9273
95.2976,56.9273
95.5174,56.8684
95.6873,56.8535
95.6873,56.8535
97.2011,56.8535
97.2011,56.8535
97.3370,56.8654
97.3710,56.8684
97.3710,56.8684
97.5908,56.9273
97.5908,56.9273
97.7970,57.0234
97.9213,57.1105
97.9834,57.1539
97.9834,57.1539
97.9834,57.1539
98.1443,57.3148
98.2748,57.5012
98.3709,57.7074
98.3709,57.7074
98.4298,57.9272
98.4298,57.9272
98.4447,58.0971
98.4447,58.5109
98.4298,58.6808
98.4298,58.6808
98.3709,58.9006
98.3709,58.9006
98.3709,58.9006
98.3446,58.9570
98.2748,59.1068
98.2748,59.1068
98.1443,59.2932
97.9834,59.4541
97.7970,59.5846
97.5908,59.6807
97.3710,59.7396
97.2011,59.7545
97.2011,59.7545
97.2011,59.7545
96.1771,59.7545
96.1101,59.7742
96.0895,59.7908
94.7690,61.1113
94.7355,61.1726
94.7327,61.1989
94.7327,61.9610
94.7524,62.0280
94.7805,62.0588
94.9047,62.1555
94.9519,62.1923
95.1204,62.3752
95.2564,62.5834
95.3563,62.8111
95.4173,63.0522
95.4173,63.0522
95.4378,63.3000
95.4378,63.3000
95.4173,63.5478
95.4173,63.5478
95.4133,63.5635
95.4160,63.6333
95.4459,63.6816
97.1055,65.3412
97.1668,65.3747
97.1931,65.3775
98.0874,65.3775
98.1545,65.3578
98.2002,65.3050
98.2101,65.2359
98.1811,65.1723
98.1525,65.1480
98.0899,65.1093
97.9659,64.9853
97.8738,64.8361
97.8738,64.8361
97.8187,64.6697
97.8187,64.6697
97.8082,64.5670
97.8082,64.5670
97.8082,64.1420
98.7082,64.1420
98.7082,65.2670
98.7003,65.2749
98.6668,65.3363
98.6718,65.4059
98.7136,65.4619
98.7191,65.4657
98.8545,65.5562
98.8545,65.5562
99.2545,65.9562
99.3158,65.9897
99.3421,65.9925
99.6553,65.9925
99.7221,65.9986
99.7221,65.9986
99.8758,66.0465
100.0136,66.1298
100.1274,66.2436
100.2107,66.3814
100.2158,66.3977
100.2546,66.4559
100.3186,66.4838
100.3876,66.4728
100.4396,66.4261
100.4526,66.3977
100.4546,66.3913
100.4577,66.3814
100.5410,66.2436
100.5410,66.2436
100.5410,66.2436
100.6548,66.1298
100.7926,66.0465
100.7926,66.0465
100.9463,65.9986
100.9463,65.9986
100.9463,65.9986
100.9931,65.9943
101.0131,65.9925
101.0131,65.9925
101.1337,65.9925
101.2007,65.9728
101.2465,65.9200
101.2577,65.8685
101.2577,65.2210
101.2380,65.1539
101.1988,65.1154
101.1895,65.1097
101.0655,64.9857
100.9734,64.8363
100.9182,64.6698
100.9077,64.5670
100.9077,64.5670
100.1082,64.5670
100.0977,64.6697
100.0426,64.8361
100.0426,64.8361
99.9505,64.9853
99.8265,65.1093
99.6773,65.2014
99.6773,65.2014
99.5109,65.2565
99.5109,65.2565
99.4082,65.2670
99.2082,65.2670
99.2082,65.2670
99.2082,64.1420
100.1082,64.1420
100.1082,64.5670
100.9077,64.5670
100.9077,63.2170
100.1082,63.2170
100.1082,63.6420
99.2082,63.6420
98.7082,63.6420
97.8082,63.6420
97.8082,63.2170
97.8082,63.2170
97.8187,63.1143
97.8738,62.9479
97.8738,62.9479
97.9659,62.7987
98.0899,62.6747
98.2391,62.5826
98.2391,62.5826
98.4055,62.5275
98.4055,62.5275
98.5082,62.5170
98.7082,62.5170
98.7082,63.6420
99.2082,63.6420
99.2082,62.5170
99.4082,62.5170
99.4082,62.5170
99.5109,62.5275
99.6773,62.5826
99.6773,62.5826
99.8265,62.6747
99.9505,62.7987
100.0426,62.9479
100.0426,62.9479
100.0977,63.1143
100.0977,63.1143
100.1082,63.2170
100.9077,63.2170
100.9077,63.2170
100.9182,63.1142
100.9734,62.9477
101.0655,62.7983
101.1895,62.6743
101.3387,62.5823
101.3389,62.5822
101.3389,62.5822
101.3558,62.5766
101.5054,62.5270
101.5054,62.5270
101.6082,62.5165
102.5082,62.5165
102.5082,62.5165
102.6110,62.5270
102.6110,62.5270
102.7775,62.5822
102.7775,62.5822
102.9269,62.6743
103.0509,62.7983
103.1387,62.9406
103.1906,62.9873
103.2442,62.9995
104.1602,62.9995
104.2272,62.9798
104.2730,62.9270
104.2779,62.9145
104.2974,62.8557
104.3895,62.7063
104.5135,62.5823
104.6629,62.4902
104.8294,62.4350
104.8294,62.4350
104.9322,62.4245
105.8322,62.4245
105.8322,62.4245
105.9350,62.4350
105.9350,62.4350
106.1015,62.4902
106.1015,62.4902
106.2509,62.5823
106.3749,62.7063
106.4670,62.8557
106.4670,62.8557
106.5222,63.0222
106.5222,63.0222
106.5222,63.0222
106.5327,63.1250
107.3317,63.1250
107.3422,63.0222
107.3974,62.8557
107.4895,62.7063
107.6135,62.5823
107.6135,62.5823
107.6228,62.5766
107.6695,62.5246
107.6817,62.4710
107.6817,59.8731
107.6620,59.8060
107.6092,59.7603
107.5685,59.7495
107.4554,59.7396
107.2356,59.6807
107.0294,59.5846
106.8430,59.4541
106.6821,59.2932
106.5516,59.1068
106.4555,58.9006
106.3966,58.6808
106.3817,58.5109
106.3817,58.0971
106.3966,57.9272
106.4555,57.7074
106.5516,57.5012
106.6821,57.3148
106.8430,57.1539
107.0294,57.0234
107.0294,57.0234
107.0294,57.0234
107.1325,56.9753
107.2356,56.9273
107.2356,56.9273
107.2356,56.9273
107.4554,56.8684
107.6253,56.8535
107.6253,56.8535
109.1391,56.8535
109.1391,56.8535
109.2750,56.8654
109.3090,56.8684
109.3090,56.8684
109.5288,56.9273
109.5288,56.9273
109.7350,57.0234
109.8593,57.1105
109.9214,57.1539
109.9214,57.1539
109.9214,57.1539
110.0823,57.3148
110.2128,57.5012
110.3089,57.7074
110.3089,57.7074
110.3678,57.9272
110.3678,57.9272
110.3827,58.0971
110.3827,58.5109
110.3678,58.6808
110.3678,58.6808
110.3089,58.9006
110.3089,58.9006
110.3089,58.9006
110.2826,58.9570
110.2128,59.1068
110.2128,59.1068
110.0823,59.2932
109.9214,59.4541
109.7350,59.5846
109.5288,59.6807
109.3746,59.7220
109.3149,59.7584
109.2844,59.8213
109.2827,59.8418
109.2827,62.4710
109.3024,62.5381
109.3416,62.5766
109.3509,62.5823
109.4749,62.7063
109.5670,62.8557
109.5670,62.8557
109.5865,62.9145
109.6263,62.9719
109.6908,62.9988
109.7042,62.9995
110.5724,62.9995
110.6394,62.9798
110.6779,62.9406
110.7145,62.8813
110.8385,62.7573
110.9725,62.6747
110.9879,62.6652
110.9879,62.6652
110.9893,62.6647
111.1544,62.6100
111.1544,62.6100
111.2572,62.5995
112.6072,62.5995
112.6072,62.5995
112.7100,62.6100
112.7100,62.6100
112.8765,62.6652
112.8765,62.6652
113.0259,62.7573
113.1499,62.8813
113.2420,63.0307
113.2420,63.0307
113.2697,63.1142
113.2972,63.1972
113.2972,63.1972
113.2972,63.1972
113.3077,63.3000
113.7572,63.3000
113.7572,54.6105
113.7375,54.5435
113.6847,54.4977
113.6332,54.4865
72.6847,54.4865
Z" /> 
</g>
<g style="fill:#000000; fill-opacity:1.0000; stroke:none;">
<circle cx="141.4022" cy="58.8120" r="1.6000" /> 
</g>
<g style="fill:#000000; fill-opacity:1.0000; stroke:none;">
<circle cx="141.4022" cy="78.6240" r="1.6000" /> 
</g>
<g style="fill:#000000; fill-opacity:1.0000; stroke:none;">
<circle cx="81.9322" cy="72.3000" r="1.2500" /> 
</g>
<g style="fill:#000000; fill-opacity:1.0000; stroke:none;">
<circle cx="81.9322" cy="67.8000" r="1.2500" /> 
</g>
<g style="fill:#000000; fill-opacity:1.0000; stroke:none;">
<circle cx="81.9322" cy="63.3000" r="1.2500" /> 
</g>
<g style="fill:#000000; fill-opacity:1.0000; stroke:none;">
<circle cx="93.9322" cy="72.3000" r="0.4250" /> 
</g>
<g style="fill:#000000; fill-opacity:1.0000; stroke:none;">
<circle cx="93.9322" cy="67.8000" r="0.4250" /> 
</g>
<g style="fill:#000000; fill-opacity:1.0000; stroke:none;">
<circle cx="93.9322" cy="63.3000" r="0.4250" /> 
</g>
<g style="fill:#000000; fill-opacity:1.0000; stroke:none;">
<circle cx="108.3822" cy="58.3040" r="0.5000" /> 
</g>
<g style="fill:#000000; fill-opacity:1.0000; stroke:none;">
<circle cx="96.4442" cy="58.3040" r="0.5000" /> 
</g>
<g style="fill:#000000; fill-opacity:1.0000; stroke:none;">
<circle cx="76.1242" cy="58.8120" r="1.6000" /> 
</g>
<g style="fill:#000000; fill-opacity:1.0000; stroke:none;">
<circle cx="76.1242" cy="78.3700" r="1.6000" /> 
</g>
<g style="fill:#000000; fill-opacity:1.0000; stroke:none;">
<circle cx="135.8072" cy="66.0500" r="1.2500" /> 
</g>
<g style="fill:#000000; fill-opacity:1.0000; stroke:none;">
<circle cx="135.8072" cy="70.5500" r="1.2500" /> 
</g>
<g style="fill:#000000; fill-opacity:1.0000; stroke:none;">
<circle cx="123.8072" cy="66.0500" r="0.4250" /> 
</g>
<g style="fill:#000000; fill-opacity:1.0000; stroke:none;">
<circle cx="123.8072" cy="70.5500" r="0.4250" /> 
</g> 
</svg>
