%TF.GenerationSoftware,KiCad,Pcbnew,8.0.7*%
%TF.CreationDate,2025-02-03T10:28:06+01:00*%
%TF.ProjectId,pwmTo_0-5V,70776d54-6f5f-4302-9d35-562e6b696361,rev?*%
%TF.SameCoordinates,Original*%
%TF.FileFunction,Legend,Top*%
%TF.FilePolarity,Positive*%
%FSLAX46Y46*%
G04 Gerber Fmt 4.6, Leading zero omitted, Abs format (unit mm)*
G04 Created by KiCad (PCBNEW 8.0.7) date 2025-02-03 10:28:06*
%MOMM*%
%LPD*%
G01*
G04 APERTURE LIST*
%ADD10C,0.100000*%
%ADD11C,0.150000*%
%ADD12C,0.120000*%
G04 APERTURE END LIST*
D10*
X131392884Y-63637466D02*
X132154789Y-63637466D01*
X131773836Y-64018419D02*
X131773836Y-63256514D01*
X133107169Y-63018419D02*
X132630979Y-63018419D01*
X132630979Y-63018419D02*
X132583360Y-63494609D01*
X132583360Y-63494609D02*
X132630979Y-63446990D01*
X132630979Y-63446990D02*
X132726217Y-63399371D01*
X132726217Y-63399371D02*
X132964312Y-63399371D01*
X132964312Y-63399371D02*
X133059550Y-63446990D01*
X133059550Y-63446990D02*
X133107169Y-63494609D01*
X133107169Y-63494609D02*
X133154788Y-63589847D01*
X133154788Y-63589847D02*
X133154788Y-63827942D01*
X133154788Y-63827942D02*
X133107169Y-63923180D01*
X133107169Y-63923180D02*
X133059550Y-63970800D01*
X133059550Y-63970800D02*
X132964312Y-64018419D01*
X132964312Y-64018419D02*
X132726217Y-64018419D01*
X132726217Y-64018419D02*
X132630979Y-63970800D01*
X132630979Y-63970800D02*
X132583360Y-63923180D01*
X133440503Y-63018419D02*
X133773836Y-64018419D01*
X133773836Y-64018419D02*
X134107169Y-63018419D01*
X132170693Y-71702038D02*
X132075455Y-71654419D01*
X132075455Y-71654419D02*
X131932598Y-71654419D01*
X131932598Y-71654419D02*
X131789741Y-71702038D01*
X131789741Y-71702038D02*
X131694503Y-71797276D01*
X131694503Y-71797276D02*
X131646884Y-71892514D01*
X131646884Y-71892514D02*
X131599265Y-72082990D01*
X131599265Y-72082990D02*
X131599265Y-72225847D01*
X131599265Y-72225847D02*
X131646884Y-72416323D01*
X131646884Y-72416323D02*
X131694503Y-72511561D01*
X131694503Y-72511561D02*
X131789741Y-72606800D01*
X131789741Y-72606800D02*
X131932598Y-72654419D01*
X131932598Y-72654419D02*
X132027836Y-72654419D01*
X132027836Y-72654419D02*
X132170693Y-72606800D01*
X132170693Y-72606800D02*
X132218312Y-72559180D01*
X132218312Y-72559180D02*
X132218312Y-72225847D01*
X132218312Y-72225847D02*
X132027836Y-72225847D01*
X132646884Y-72654419D02*
X132646884Y-71654419D01*
X132646884Y-71654419D02*
X133218312Y-72654419D01*
X133218312Y-72654419D02*
X133218312Y-71654419D01*
X133694503Y-72654419D02*
X133694503Y-71654419D01*
X133694503Y-71654419D02*
X133932598Y-71654419D01*
X133932598Y-71654419D02*
X134075455Y-71702038D01*
X134075455Y-71702038D02*
X134170693Y-71797276D01*
X134170693Y-71797276D02*
X134218312Y-71892514D01*
X134218312Y-71892514D02*
X134265931Y-72082990D01*
X134265931Y-72082990D02*
X134265931Y-72225847D01*
X134265931Y-72225847D02*
X134218312Y-72416323D01*
X134218312Y-72416323D02*
X134170693Y-72511561D01*
X134170693Y-72511561D02*
X134075455Y-72606800D01*
X134075455Y-72606800D02*
X133932598Y-72654419D01*
X133932598Y-72654419D02*
X133694503Y-72654419D01*
X69162884Y-70622419D02*
X69162884Y-69622419D01*
X69639074Y-69955752D02*
X69639074Y-70622419D01*
X69639074Y-70050990D02*
X69686693Y-70003371D01*
X69686693Y-70003371D02*
X69781931Y-69955752D01*
X69781931Y-69955752D02*
X69924788Y-69955752D01*
X69924788Y-69955752D02*
X70020026Y-70003371D01*
X70020026Y-70003371D02*
X70067645Y-70098609D01*
X70067645Y-70098609D02*
X70067645Y-70622419D01*
X70543836Y-70241466D02*
X71305741Y-70241466D01*
X68908884Y-66558419D02*
X68908884Y-65558419D01*
X69385074Y-65891752D02*
X69385074Y-66558419D01*
X69385074Y-65986990D02*
X69432693Y-65939371D01*
X69432693Y-65939371D02*
X69527931Y-65891752D01*
X69527931Y-65891752D02*
X69670788Y-65891752D01*
X69670788Y-65891752D02*
X69766026Y-65939371D01*
X69766026Y-65939371D02*
X69813645Y-66034609D01*
X69813645Y-66034609D02*
X69813645Y-66558419D01*
X70289836Y-66177466D02*
X71051741Y-66177466D01*
X70670788Y-66558419D02*
X70670788Y-65796514D01*
X131837360Y-67336419D02*
X132027836Y-67336419D01*
X132027836Y-67336419D02*
X132123074Y-67384038D01*
X132123074Y-67384038D02*
X132218312Y-67479276D01*
X132218312Y-67479276D02*
X132265931Y-67669752D01*
X132265931Y-67669752D02*
X132265931Y-68003085D01*
X132265931Y-68003085D02*
X132218312Y-68193561D01*
X132218312Y-68193561D02*
X132123074Y-68288800D01*
X132123074Y-68288800D02*
X132027836Y-68336419D01*
X132027836Y-68336419D02*
X131837360Y-68336419D01*
X131837360Y-68336419D02*
X131742122Y-68288800D01*
X131742122Y-68288800D02*
X131646884Y-68193561D01*
X131646884Y-68193561D02*
X131599265Y-68003085D01*
X131599265Y-68003085D02*
X131599265Y-67669752D01*
X131599265Y-67669752D02*
X131646884Y-67479276D01*
X131646884Y-67479276D02*
X131742122Y-67384038D01*
X131742122Y-67384038D02*
X131837360Y-67336419D01*
X132694503Y-67336419D02*
X132694503Y-68145942D01*
X132694503Y-68145942D02*
X132742122Y-68241180D01*
X132742122Y-68241180D02*
X132789741Y-68288800D01*
X132789741Y-68288800D02*
X132884979Y-68336419D01*
X132884979Y-68336419D02*
X133075455Y-68336419D01*
X133075455Y-68336419D02*
X133170693Y-68288800D01*
X133170693Y-68288800D02*
X133218312Y-68241180D01*
X133218312Y-68241180D02*
X133265931Y-68145942D01*
X133265931Y-68145942D02*
X133265931Y-67336419D01*
X133599265Y-67336419D02*
X134170693Y-67336419D01*
X133884979Y-68336419D02*
X133884979Y-67336419D01*
D11*
X102908333Y-66434819D02*
X102575000Y-65958628D01*
X102336905Y-66434819D02*
X102336905Y-65434819D01*
X102336905Y-65434819D02*
X102717857Y-65434819D01*
X102717857Y-65434819D02*
X102813095Y-65482438D01*
X102813095Y-65482438D02*
X102860714Y-65530057D01*
X102860714Y-65530057D02*
X102908333Y-65625295D01*
X102908333Y-65625295D02*
X102908333Y-65768152D01*
X102908333Y-65768152D02*
X102860714Y-65863390D01*
X102860714Y-65863390D02*
X102813095Y-65911009D01*
X102813095Y-65911009D02*
X102717857Y-65958628D01*
X102717857Y-65958628D02*
X102336905Y-65958628D01*
X103241667Y-65434819D02*
X103908333Y-65434819D01*
X103908333Y-65434819D02*
X103479762Y-66434819D01*
X67843095Y-55466819D02*
X67843095Y-54466819D01*
X67843095Y-54943009D02*
X68414523Y-54943009D01*
X68414523Y-55466819D02*
X68414523Y-54466819D01*
X69319285Y-54800152D02*
X69319285Y-55466819D01*
X69081190Y-54419200D02*
X68843095Y-55133485D01*
X68843095Y-55133485D02*
X69462142Y-55133485D01*
X102908333Y-62434819D02*
X102575000Y-61958628D01*
X102336905Y-62434819D02*
X102336905Y-61434819D01*
X102336905Y-61434819D02*
X102717857Y-61434819D01*
X102717857Y-61434819D02*
X102813095Y-61482438D01*
X102813095Y-61482438D02*
X102860714Y-61530057D01*
X102860714Y-61530057D02*
X102908333Y-61625295D01*
X102908333Y-61625295D02*
X102908333Y-61768152D01*
X102908333Y-61768152D02*
X102860714Y-61863390D01*
X102860714Y-61863390D02*
X102813095Y-61911009D01*
X102813095Y-61911009D02*
X102717857Y-61958628D01*
X102717857Y-61958628D02*
X102336905Y-61958628D01*
X103241667Y-61434819D02*
X103860714Y-61434819D01*
X103860714Y-61434819D02*
X103527381Y-61815771D01*
X103527381Y-61815771D02*
X103670238Y-61815771D01*
X103670238Y-61815771D02*
X103765476Y-61863390D01*
X103765476Y-61863390D02*
X103813095Y-61911009D01*
X103813095Y-61911009D02*
X103860714Y-62006247D01*
X103860714Y-62006247D02*
X103860714Y-62244342D01*
X103860714Y-62244342D02*
X103813095Y-62339580D01*
X103813095Y-62339580D02*
X103765476Y-62387200D01*
X103765476Y-62387200D02*
X103670238Y-62434819D01*
X103670238Y-62434819D02*
X103384524Y-62434819D01*
X103384524Y-62434819D02*
X103289286Y-62387200D01*
X103289286Y-62387200D02*
X103241667Y-62339580D01*
X67843095Y-75278819D02*
X67843095Y-74278819D01*
X67843095Y-74755009D02*
X68414523Y-74755009D01*
X68414523Y-75278819D02*
X68414523Y-74278819D01*
X68795476Y-74278819D02*
X69414523Y-74278819D01*
X69414523Y-74278819D02*
X69081190Y-74659771D01*
X69081190Y-74659771D02*
X69224047Y-74659771D01*
X69224047Y-74659771D02*
X69319285Y-74707390D01*
X69319285Y-74707390D02*
X69366904Y-74755009D01*
X69366904Y-74755009D02*
X69414523Y-74850247D01*
X69414523Y-74850247D02*
X69414523Y-75088342D01*
X69414523Y-75088342D02*
X69366904Y-75183580D01*
X69366904Y-75183580D02*
X69319285Y-75231200D01*
X69319285Y-75231200D02*
X69224047Y-75278819D01*
X69224047Y-75278819D02*
X68938333Y-75278819D01*
X68938333Y-75278819D02*
X68843095Y-75231200D01*
X68843095Y-75231200D02*
X68795476Y-75183580D01*
X112888333Y-75522819D02*
X112555000Y-75046628D01*
X112316905Y-75522819D02*
X112316905Y-74522819D01*
X112316905Y-74522819D02*
X112697857Y-74522819D01*
X112697857Y-74522819D02*
X112793095Y-74570438D01*
X112793095Y-74570438D02*
X112840714Y-74618057D01*
X112840714Y-74618057D02*
X112888333Y-74713295D01*
X112888333Y-74713295D02*
X112888333Y-74856152D01*
X112888333Y-74856152D02*
X112840714Y-74951390D01*
X112840714Y-74951390D02*
X112793095Y-74999009D01*
X112793095Y-74999009D02*
X112697857Y-75046628D01*
X112697857Y-75046628D02*
X112316905Y-75046628D01*
X113793095Y-74522819D02*
X113316905Y-74522819D01*
X113316905Y-74522819D02*
X113269286Y-74999009D01*
X113269286Y-74999009D02*
X113316905Y-74951390D01*
X113316905Y-74951390D02*
X113412143Y-74903771D01*
X113412143Y-74903771D02*
X113650238Y-74903771D01*
X113650238Y-74903771D02*
X113745476Y-74951390D01*
X113745476Y-74951390D02*
X113793095Y-74999009D01*
X113793095Y-74999009D02*
X113840714Y-75094247D01*
X113840714Y-75094247D02*
X113840714Y-75332342D01*
X113840714Y-75332342D02*
X113793095Y-75427580D01*
X113793095Y-75427580D02*
X113745476Y-75475200D01*
X113745476Y-75475200D02*
X113650238Y-75522819D01*
X113650238Y-75522819D02*
X113412143Y-75522819D01*
X113412143Y-75522819D02*
X113316905Y-75475200D01*
X113316905Y-75475200D02*
X113269286Y-75427580D01*
X109332333Y-62526819D02*
X108999000Y-62050628D01*
X108760905Y-62526819D02*
X108760905Y-61526819D01*
X108760905Y-61526819D02*
X109141857Y-61526819D01*
X109141857Y-61526819D02*
X109237095Y-61574438D01*
X109237095Y-61574438D02*
X109284714Y-61622057D01*
X109284714Y-61622057D02*
X109332333Y-61717295D01*
X109332333Y-61717295D02*
X109332333Y-61860152D01*
X109332333Y-61860152D02*
X109284714Y-61955390D01*
X109284714Y-61955390D02*
X109237095Y-62003009D01*
X109237095Y-62003009D02*
X109141857Y-62050628D01*
X109141857Y-62050628D02*
X108760905Y-62050628D01*
X109713286Y-61622057D02*
X109760905Y-61574438D01*
X109760905Y-61574438D02*
X109856143Y-61526819D01*
X109856143Y-61526819D02*
X110094238Y-61526819D01*
X110094238Y-61526819D02*
X110189476Y-61574438D01*
X110189476Y-61574438D02*
X110237095Y-61622057D01*
X110237095Y-61622057D02*
X110284714Y-61717295D01*
X110284714Y-61717295D02*
X110284714Y-61812533D01*
X110284714Y-61812533D02*
X110237095Y-61955390D01*
X110237095Y-61955390D02*
X109665667Y-62526819D01*
X109665667Y-62526819D02*
X110284714Y-62526819D01*
X120383819Y-72607333D02*
X121098104Y-72607333D01*
X121098104Y-72607333D02*
X121240961Y-72654952D01*
X121240961Y-72654952D02*
X121336200Y-72750190D01*
X121336200Y-72750190D02*
X121383819Y-72893047D01*
X121383819Y-72893047D02*
X121383819Y-72988285D01*
X121383819Y-71607333D02*
X121383819Y-72178761D01*
X121383819Y-71893047D02*
X120383819Y-71893047D01*
X120383819Y-71893047D02*
X120526676Y-71988285D01*
X120526676Y-71988285D02*
X120621914Y-72083523D01*
X120621914Y-72083523D02*
X120669533Y-72178761D01*
X133121095Y-55466819D02*
X133121095Y-54466819D01*
X133121095Y-54943009D02*
X133692523Y-54943009D01*
X133692523Y-55466819D02*
X133692523Y-54466819D01*
X134692523Y-55466819D02*
X134121095Y-55466819D01*
X134406809Y-55466819D02*
X134406809Y-54466819D01*
X134406809Y-54466819D02*
X134311571Y-54609676D01*
X134311571Y-54609676D02*
X134216333Y-54704914D01*
X134216333Y-54704914D02*
X134121095Y-54752533D01*
X133121095Y-75024819D02*
X133121095Y-74024819D01*
X133121095Y-74501009D02*
X133692523Y-74501009D01*
X133692523Y-75024819D02*
X133692523Y-74024819D01*
X134121095Y-74120057D02*
X134168714Y-74072438D01*
X134168714Y-74072438D02*
X134263952Y-74024819D01*
X134263952Y-74024819D02*
X134502047Y-74024819D01*
X134502047Y-74024819D02*
X134597285Y-74072438D01*
X134597285Y-74072438D02*
X134644904Y-74120057D01*
X134644904Y-74120057D02*
X134692523Y-74215295D01*
X134692523Y-74215295D02*
X134692523Y-74310533D01*
X134692523Y-74310533D02*
X134644904Y-74453390D01*
X134644904Y-74453390D02*
X134073476Y-75024819D01*
X134073476Y-75024819D02*
X134692523Y-75024819D01*
X92849819Y-65466666D02*
X92373628Y-65799999D01*
X92849819Y-66038094D02*
X91849819Y-66038094D01*
X91849819Y-66038094D02*
X91849819Y-65657142D01*
X91849819Y-65657142D02*
X91897438Y-65561904D01*
X91897438Y-65561904D02*
X91945057Y-65514285D01*
X91945057Y-65514285D02*
X92040295Y-65466666D01*
X92040295Y-65466666D02*
X92183152Y-65466666D01*
X92183152Y-65466666D02*
X92278390Y-65514285D01*
X92278390Y-65514285D02*
X92326009Y-65561904D01*
X92326009Y-65561904D02*
X92373628Y-65657142D01*
X92373628Y-65657142D02*
X92373628Y-66038094D01*
X92849819Y-64514285D02*
X92849819Y-65085713D01*
X92849819Y-64799999D02*
X91849819Y-64799999D01*
X91849819Y-64799999D02*
X91992676Y-64895237D01*
X91992676Y-64895237D02*
X92087914Y-64990475D01*
X92087914Y-64990475D02*
X92135533Y-65085713D01*
X112634333Y-71617580D02*
X112586714Y-71665200D01*
X112586714Y-71665200D02*
X112443857Y-71712819D01*
X112443857Y-71712819D02*
X112348619Y-71712819D01*
X112348619Y-71712819D02*
X112205762Y-71665200D01*
X112205762Y-71665200D02*
X112110524Y-71569961D01*
X112110524Y-71569961D02*
X112062905Y-71474723D01*
X112062905Y-71474723D02*
X112015286Y-71284247D01*
X112015286Y-71284247D02*
X112015286Y-71141390D01*
X112015286Y-71141390D02*
X112062905Y-70950914D01*
X112062905Y-70950914D02*
X112110524Y-70855676D01*
X112110524Y-70855676D02*
X112205762Y-70760438D01*
X112205762Y-70760438D02*
X112348619Y-70712819D01*
X112348619Y-70712819D02*
X112443857Y-70712819D01*
X112443857Y-70712819D02*
X112586714Y-70760438D01*
X112586714Y-70760438D02*
X112634333Y-70808057D01*
X113015286Y-70808057D02*
X113062905Y-70760438D01*
X113062905Y-70760438D02*
X113158143Y-70712819D01*
X113158143Y-70712819D02*
X113396238Y-70712819D01*
X113396238Y-70712819D02*
X113491476Y-70760438D01*
X113491476Y-70760438D02*
X113539095Y-70808057D01*
X113539095Y-70808057D02*
X113586714Y-70903295D01*
X113586714Y-70903295D02*
X113586714Y-70998533D01*
X113586714Y-70998533D02*
X113539095Y-71141390D01*
X113539095Y-71141390D02*
X112967667Y-71712819D01*
X112967667Y-71712819D02*
X113586714Y-71712819D01*
X112293095Y-68426819D02*
X112293095Y-69236342D01*
X112293095Y-69236342D02*
X112340714Y-69331580D01*
X112340714Y-69331580D02*
X112388333Y-69379200D01*
X112388333Y-69379200D02*
X112483571Y-69426819D01*
X112483571Y-69426819D02*
X112674047Y-69426819D01*
X112674047Y-69426819D02*
X112769285Y-69379200D01*
X112769285Y-69379200D02*
X112816904Y-69331580D01*
X112816904Y-69331580D02*
X112864523Y-69236342D01*
X112864523Y-69236342D02*
X112864523Y-68426819D01*
X113293095Y-68522057D02*
X113340714Y-68474438D01*
X113340714Y-68474438D02*
X113435952Y-68426819D01*
X113435952Y-68426819D02*
X113674047Y-68426819D01*
X113674047Y-68426819D02*
X113769285Y-68474438D01*
X113769285Y-68474438D02*
X113816904Y-68522057D01*
X113816904Y-68522057D02*
X113864523Y-68617295D01*
X113864523Y-68617295D02*
X113864523Y-68712533D01*
X113864523Y-68712533D02*
X113816904Y-68855390D01*
X113816904Y-68855390D02*
X113245476Y-69426819D01*
X113245476Y-69426819D02*
X113864523Y-69426819D01*
X102982333Y-73490819D02*
X102649000Y-73014628D01*
X102410905Y-73490819D02*
X102410905Y-72490819D01*
X102410905Y-72490819D02*
X102791857Y-72490819D01*
X102791857Y-72490819D02*
X102887095Y-72538438D01*
X102887095Y-72538438D02*
X102934714Y-72586057D01*
X102934714Y-72586057D02*
X102982333Y-72681295D01*
X102982333Y-72681295D02*
X102982333Y-72824152D01*
X102982333Y-72824152D02*
X102934714Y-72919390D01*
X102934714Y-72919390D02*
X102887095Y-72967009D01*
X102887095Y-72967009D02*
X102791857Y-73014628D01*
X102791857Y-73014628D02*
X102410905Y-73014628D01*
X103839476Y-72490819D02*
X103649000Y-72490819D01*
X103649000Y-72490819D02*
X103553762Y-72538438D01*
X103553762Y-72538438D02*
X103506143Y-72586057D01*
X103506143Y-72586057D02*
X103410905Y-72728914D01*
X103410905Y-72728914D02*
X103363286Y-72919390D01*
X103363286Y-72919390D02*
X103363286Y-73300342D01*
X103363286Y-73300342D02*
X103410905Y-73395580D01*
X103410905Y-73395580D02*
X103458524Y-73443200D01*
X103458524Y-73443200D02*
X103553762Y-73490819D01*
X103553762Y-73490819D02*
X103744238Y-73490819D01*
X103744238Y-73490819D02*
X103839476Y-73443200D01*
X103839476Y-73443200D02*
X103887095Y-73395580D01*
X103887095Y-73395580D02*
X103934714Y-73300342D01*
X103934714Y-73300342D02*
X103934714Y-73062247D01*
X103934714Y-73062247D02*
X103887095Y-72967009D01*
X103887095Y-72967009D02*
X103839476Y-72919390D01*
X103839476Y-72919390D02*
X103744238Y-72871771D01*
X103744238Y-72871771D02*
X103553762Y-72871771D01*
X103553762Y-72871771D02*
X103458524Y-72919390D01*
X103458524Y-72919390D02*
X103410905Y-72967009D01*
X103410905Y-72967009D02*
X103363286Y-73062247D01*
X93813095Y-67154819D02*
X93813095Y-67964342D01*
X93813095Y-67964342D02*
X93860714Y-68059580D01*
X93860714Y-68059580D02*
X93908333Y-68107200D01*
X93908333Y-68107200D02*
X94003571Y-68154819D01*
X94003571Y-68154819D02*
X94194047Y-68154819D01*
X94194047Y-68154819D02*
X94289285Y-68107200D01*
X94289285Y-68107200D02*
X94336904Y-68059580D01*
X94336904Y-68059580D02*
X94384523Y-67964342D01*
X94384523Y-67964342D02*
X94384523Y-67154819D01*
X95384523Y-68154819D02*
X94813095Y-68154819D01*
X95098809Y-68154819D02*
X95098809Y-67154819D01*
X95098809Y-67154819D02*
X95003571Y-67297676D01*
X95003571Y-67297676D02*
X94908333Y-67392914D01*
X94908333Y-67392914D02*
X94813095Y-67440533D01*
X102982333Y-77967580D02*
X102934714Y-78015200D01*
X102934714Y-78015200D02*
X102791857Y-78062819D01*
X102791857Y-78062819D02*
X102696619Y-78062819D01*
X102696619Y-78062819D02*
X102553762Y-78015200D01*
X102553762Y-78015200D02*
X102458524Y-77919961D01*
X102458524Y-77919961D02*
X102410905Y-77824723D01*
X102410905Y-77824723D02*
X102363286Y-77634247D01*
X102363286Y-77634247D02*
X102363286Y-77491390D01*
X102363286Y-77491390D02*
X102410905Y-77300914D01*
X102410905Y-77300914D02*
X102458524Y-77205676D01*
X102458524Y-77205676D02*
X102553762Y-77110438D01*
X102553762Y-77110438D02*
X102696619Y-77062819D01*
X102696619Y-77062819D02*
X102791857Y-77062819D01*
X102791857Y-77062819D02*
X102934714Y-77110438D01*
X102934714Y-77110438D02*
X102982333Y-77158057D01*
X103934714Y-78062819D02*
X103363286Y-78062819D01*
X103649000Y-78062819D02*
X103649000Y-77062819D01*
X103649000Y-77062819D02*
X103553762Y-77205676D01*
X103553762Y-77205676D02*
X103458524Y-77300914D01*
X103458524Y-77300914D02*
X103363286Y-77348533D01*
X87854819Y-68633333D02*
X88569104Y-68633333D01*
X88569104Y-68633333D02*
X88711961Y-68680952D01*
X88711961Y-68680952D02*
X88807200Y-68776190D01*
X88807200Y-68776190D02*
X88854819Y-68919047D01*
X88854819Y-68919047D02*
X88854819Y-69014285D01*
X87950057Y-68204761D02*
X87902438Y-68157142D01*
X87902438Y-68157142D02*
X87854819Y-68061904D01*
X87854819Y-68061904D02*
X87854819Y-67823809D01*
X87854819Y-67823809D02*
X87902438Y-67728571D01*
X87902438Y-67728571D02*
X87950057Y-67680952D01*
X87950057Y-67680952D02*
X88045295Y-67633333D01*
X88045295Y-67633333D02*
X88140533Y-67633333D01*
X88140533Y-67633333D02*
X88283390Y-67680952D01*
X88283390Y-67680952D02*
X88854819Y-68252380D01*
X88854819Y-68252380D02*
X88854819Y-67633333D01*
X100349819Y-65466666D02*
X99873628Y-65799999D01*
X100349819Y-66038094D02*
X99349819Y-66038094D01*
X99349819Y-66038094D02*
X99349819Y-65657142D01*
X99349819Y-65657142D02*
X99397438Y-65561904D01*
X99397438Y-65561904D02*
X99445057Y-65514285D01*
X99445057Y-65514285D02*
X99540295Y-65466666D01*
X99540295Y-65466666D02*
X99683152Y-65466666D01*
X99683152Y-65466666D02*
X99778390Y-65514285D01*
X99778390Y-65514285D02*
X99826009Y-65561904D01*
X99826009Y-65561904D02*
X99873628Y-65657142D01*
X99873628Y-65657142D02*
X99873628Y-66038094D01*
X99683152Y-64609523D02*
X100349819Y-64609523D01*
X99302200Y-64847618D02*
X100016485Y-65085713D01*
X100016485Y-65085713D02*
X100016485Y-64466666D01*
D12*
%TO.C,R7*%
X102347936Y-66890000D02*
X103802064Y-66890000D01*
X102347936Y-68710000D02*
X103802064Y-68710000D01*
%TO.C,R3*%
X102347936Y-62890000D02*
X103802064Y-62890000D01*
X102347936Y-64710000D02*
X103802064Y-64710000D01*
%TO.C,R5*%
X108847936Y-73890000D02*
X110302064Y-73890000D01*
X108847936Y-75710000D02*
X110302064Y-75710000D01*
%TO.C,R2*%
X108771936Y-62982000D02*
X110226064Y-62982000D01*
X108771936Y-64802000D02*
X110226064Y-64802000D01*
%TO.C,J1*%
X117335000Y-62190000D02*
X126965000Y-62190000D01*
X117335000Y-64410000D02*
X126965000Y-64410000D01*
X117335000Y-66690000D02*
X126965000Y-66690000D01*
X117335000Y-68910000D02*
X126965000Y-68910000D01*
X117335000Y-71190000D02*
X126965000Y-71190000D01*
X117335000Y-73410000D02*
X126965000Y-73410000D01*
%TO.C,JP1*%
X99085000Y-56272000D02*
X115595000Y-56272000D01*
X99085000Y-60336000D02*
X99085000Y-56272000D01*
X115595000Y-56272000D02*
X115595000Y-60336000D01*
X115595000Y-60336000D02*
X99085000Y-60336000D01*
D10*
X112420000Y-58939000D02*
X102895000Y-58939000D01*
X102895000Y-57669000D01*
X112420000Y-57669000D01*
X112420000Y-58939000D01*
G36*
X112420000Y-58939000D02*
G01*
X102895000Y-58939000D01*
X102895000Y-57669000D01*
X112420000Y-57669000D01*
X112420000Y-58939000D01*
G37*
D12*
%TO.C,R1*%
X89665000Y-64572936D02*
X89665000Y-66027064D01*
X91485000Y-64572936D02*
X91485000Y-66027064D01*
%TO.C,C2*%
X108863748Y-70390000D02*
X110286252Y-70390000D01*
X108863748Y-72210000D02*
X110286252Y-72210000D01*
%TO.C,U2*%
X108773000Y-69378000D02*
X110573000Y-69378000D01*
X109773000Y-66158000D02*
X108973000Y-66158000D01*
X109773000Y-66158000D02*
X110573000Y-66158000D01*
X108473000Y-66208000D02*
X108233000Y-65878000D01*
X108713000Y-65878000D01*
X108473000Y-66208000D01*
G36*
X108473000Y-66208000D02*
G01*
X108233000Y-65878000D01*
X108713000Y-65878000D01*
X108473000Y-66208000D01*
G37*
%TO.C,R6*%
X102347936Y-70390000D02*
X103802064Y-70390000D01*
X102347936Y-72210000D02*
X103802064Y-72210000D01*
%TO.C,U1*%
X89435000Y-68640000D02*
X89435000Y-73960000D01*
X89435000Y-73960000D02*
X99715000Y-73960000D01*
X91925000Y-68700000D02*
X91925000Y-73900000D01*
X91925000Y-73900000D02*
X97225000Y-73900000D01*
X93575000Y-68700000D02*
X91925000Y-68700000D01*
X97225000Y-68700000D02*
X95575000Y-68700000D01*
X97225000Y-73900000D02*
X97225000Y-68700000D01*
X99715000Y-68640000D02*
X89435000Y-68640000D01*
X99715000Y-73960000D02*
X99715000Y-68640000D01*
X95575000Y-68700000D02*
G75*
G02*
X93575000Y-68700000I-1000000J0D01*
G01*
%TO.C,C1*%
X102363748Y-74390000D02*
X103786252Y-74390000D01*
X102363748Y-76210000D02*
X103786252Y-76210000D01*
%TO.C,J2*%
X84940000Y-64940000D02*
X75310000Y-64940000D01*
X84940000Y-67160000D02*
X75310000Y-67160000D01*
X84940000Y-69440000D02*
X75310000Y-69440000D01*
X84940000Y-71660000D02*
X75310000Y-71660000D01*
%TO.C,R4*%
X97165000Y-64572936D02*
X97165000Y-66027064D01*
X98985000Y-64572936D02*
X98985000Y-66027064D01*
%TD*%
M02*
