%TF.GenerationSoftware,KiCad,Pcbnew,8.0.7*%
%TF.CreationDate,2025-02-03T10:27:33+01:00*%
%TF.ProjectId,pwmTo_0-5V,70776d54-6f5f-4302-9d35-562e6b696361,rev?*%
%TF.SameCoordinates,Original*%
%TF.FileFunction,Drillmap*%
%TF.FilePolarity,Positive*%
%FSLAX45Y45*%
G04 Gerber Fmt 4.5, Leading zero omitted, Abs format (unit mm)*
G04 Created by KiCad (PCBNEW 8.0.7) date 2025-02-03 10:27:33*
%MOMM*%
%LPD*%
G01*
G04 APERTURE LIST*
%ADD10C,0.050000*%
%ADD11C,0.200000*%
%ADD12C,0.250000*%
G04 APERTURE END LIST*
D10*
X6428700Y-5398600D02*
X13794700Y-5398600D01*
X13794700Y-8268800D01*
X6428700Y-8268800D01*
X6428700Y-5398600D01*
D11*
D12*
X7295000Y-6480000D02*
X7545000Y-6730000D01*
X7545000Y-6480000D02*
X7295000Y-6730000D01*
X7295000Y-6930000D02*
X7545000Y-7180000D01*
X7545000Y-6930000D02*
X7295000Y-7180000D01*
X12682500Y-6205000D02*
X12932500Y-6455000D01*
X12932500Y-6205000D02*
X12682500Y-6455000D01*
X12682500Y-6655000D02*
X12932500Y-6905000D01*
X12932500Y-6655000D02*
X12682500Y-6905000D01*
X12682500Y-7105000D02*
X12932500Y-7355000D01*
X12932500Y-7105000D02*
X12682500Y-7355000D01*
D11*
X6686977Y-8582784D02*
X6686977Y-8382784D01*
X6686977Y-8382784D02*
X6734596Y-8382784D01*
X6734596Y-8382784D02*
X6763167Y-8392308D01*
X6763167Y-8392308D02*
X6782215Y-8411355D01*
X6782215Y-8411355D02*
X6791739Y-8430403D01*
X6791739Y-8430403D02*
X6801262Y-8468498D01*
X6801262Y-8468498D02*
X6801262Y-8497070D01*
X6801262Y-8497070D02*
X6791739Y-8535165D01*
X6791739Y-8535165D02*
X6782215Y-8554212D01*
X6782215Y-8554212D02*
X6763167Y-8573260D01*
X6763167Y-8573260D02*
X6734596Y-8582784D01*
X6734596Y-8582784D02*
X6686977Y-8582784D01*
X6886977Y-8582784D02*
X6886977Y-8449450D01*
X6886977Y-8487546D02*
X6896501Y-8468498D01*
X6896501Y-8468498D02*
X6906024Y-8458974D01*
X6906024Y-8458974D02*
X6925072Y-8449450D01*
X6925072Y-8449450D02*
X6944120Y-8449450D01*
X7010786Y-8582784D02*
X7010786Y-8449450D01*
X7010786Y-8382784D02*
X7001262Y-8392308D01*
X7001262Y-8392308D02*
X7010786Y-8401831D01*
X7010786Y-8401831D02*
X7020310Y-8392308D01*
X7020310Y-8392308D02*
X7010786Y-8382784D01*
X7010786Y-8382784D02*
X7010786Y-8401831D01*
X7134596Y-8582784D02*
X7115548Y-8573260D01*
X7115548Y-8573260D02*
X7106024Y-8554212D01*
X7106024Y-8554212D02*
X7106024Y-8382784D01*
X7239358Y-8582784D02*
X7220310Y-8573260D01*
X7220310Y-8573260D02*
X7210786Y-8554212D01*
X7210786Y-8554212D02*
X7210786Y-8382784D01*
X7467929Y-8582784D02*
X7467929Y-8382784D01*
X7467929Y-8382784D02*
X7534596Y-8525641D01*
X7534596Y-8525641D02*
X7601262Y-8382784D01*
X7601262Y-8382784D02*
X7601262Y-8582784D01*
X7782215Y-8582784D02*
X7782215Y-8478022D01*
X7782215Y-8478022D02*
X7772691Y-8458974D01*
X7772691Y-8458974D02*
X7753643Y-8449450D01*
X7753643Y-8449450D02*
X7715548Y-8449450D01*
X7715548Y-8449450D02*
X7696501Y-8458974D01*
X7782215Y-8573260D02*
X7763167Y-8582784D01*
X7763167Y-8582784D02*
X7715548Y-8582784D01*
X7715548Y-8582784D02*
X7696501Y-8573260D01*
X7696501Y-8573260D02*
X7686977Y-8554212D01*
X7686977Y-8554212D02*
X7686977Y-8535165D01*
X7686977Y-8535165D02*
X7696501Y-8516117D01*
X7696501Y-8516117D02*
X7715548Y-8506593D01*
X7715548Y-8506593D02*
X7763167Y-8506593D01*
X7763167Y-8506593D02*
X7782215Y-8497070D01*
X7877453Y-8449450D02*
X7877453Y-8649450D01*
X7877453Y-8458974D02*
X7896501Y-8449450D01*
X7896501Y-8449450D02*
X7934596Y-8449450D01*
X7934596Y-8449450D02*
X7953643Y-8458974D01*
X7953643Y-8458974D02*
X7963167Y-8468498D01*
X7963167Y-8468498D02*
X7972691Y-8487546D01*
X7972691Y-8487546D02*
X7972691Y-8544689D01*
X7972691Y-8544689D02*
X7963167Y-8563736D01*
X7963167Y-8563736D02*
X7953643Y-8573260D01*
X7953643Y-8573260D02*
X7934596Y-8582784D01*
X7934596Y-8582784D02*
X7896501Y-8582784D01*
X7896501Y-8582784D02*
X7877453Y-8573260D01*
X8058405Y-8563736D02*
X8067929Y-8573260D01*
X8067929Y-8573260D02*
X8058405Y-8582784D01*
X8058405Y-8582784D02*
X8048882Y-8573260D01*
X8048882Y-8573260D02*
X8058405Y-8563736D01*
X8058405Y-8563736D02*
X8058405Y-8582784D01*
X8058405Y-8458974D02*
X8067929Y-8468498D01*
X8067929Y-8468498D02*
X8058405Y-8478022D01*
X8058405Y-8478022D02*
X8048882Y-8468498D01*
X8048882Y-8468498D02*
X8058405Y-8458974D01*
X8058405Y-8458974D02*
X8058405Y-8478022D01*
X6226200Y-8811300D02*
X6426200Y-9011300D01*
X6426200Y-8811300D02*
X6226200Y-9011300D01*
X6677453Y-8821831D02*
X6686977Y-8812308D01*
X6686977Y-8812308D02*
X6706024Y-8802784D01*
X6706024Y-8802784D02*
X6753643Y-8802784D01*
X6753643Y-8802784D02*
X6772691Y-8812308D01*
X6772691Y-8812308D02*
X6782215Y-8821831D01*
X6782215Y-8821831D02*
X6791739Y-8840879D01*
X6791739Y-8840879D02*
X6791739Y-8859927D01*
X6791739Y-8859927D02*
X6782215Y-8888498D01*
X6782215Y-8888498D02*
X6667929Y-9002784D01*
X6667929Y-9002784D02*
X6791739Y-9002784D01*
X6877453Y-8983736D02*
X6886977Y-8993260D01*
X6886977Y-8993260D02*
X6877453Y-9002784D01*
X6877453Y-9002784D02*
X6867929Y-8993260D01*
X6867929Y-8993260D02*
X6877453Y-8983736D01*
X6877453Y-8983736D02*
X6877453Y-9002784D01*
X7067929Y-8802784D02*
X6972691Y-8802784D01*
X6972691Y-8802784D02*
X6963167Y-8898022D01*
X6963167Y-8898022D02*
X6972691Y-8888498D01*
X6972691Y-8888498D02*
X6991739Y-8878974D01*
X6991739Y-8878974D02*
X7039358Y-8878974D01*
X7039358Y-8878974D02*
X7058405Y-8888498D01*
X7058405Y-8888498D02*
X7067929Y-8898022D01*
X7067929Y-8898022D02*
X7077453Y-8917070D01*
X7077453Y-8917070D02*
X7077453Y-8964689D01*
X7077453Y-8964689D02*
X7067929Y-8983736D01*
X7067929Y-8983736D02*
X7058405Y-8993260D01*
X7058405Y-8993260D02*
X7039358Y-9002784D01*
X7039358Y-9002784D02*
X6991739Y-9002784D01*
X6991739Y-9002784D02*
X6972691Y-8993260D01*
X6972691Y-8993260D02*
X6963167Y-8983736D01*
X7201262Y-8802784D02*
X7220310Y-8802784D01*
X7220310Y-8802784D02*
X7239358Y-8812308D01*
X7239358Y-8812308D02*
X7248882Y-8821831D01*
X7248882Y-8821831D02*
X7258405Y-8840879D01*
X7258405Y-8840879D02*
X7267929Y-8878974D01*
X7267929Y-8878974D02*
X7267929Y-8926593D01*
X7267929Y-8926593D02*
X7258405Y-8964689D01*
X7258405Y-8964689D02*
X7248882Y-8983736D01*
X7248882Y-8983736D02*
X7239358Y-8993260D01*
X7239358Y-8993260D02*
X7220310Y-9002784D01*
X7220310Y-9002784D02*
X7201262Y-9002784D01*
X7201262Y-9002784D02*
X7182215Y-8993260D01*
X7182215Y-8993260D02*
X7172691Y-8983736D01*
X7172691Y-8983736D02*
X7163167Y-8964689D01*
X7163167Y-8964689D02*
X7153643Y-8926593D01*
X7153643Y-8926593D02*
X7153643Y-8878974D01*
X7153643Y-8878974D02*
X7163167Y-8840879D01*
X7163167Y-8840879D02*
X7172691Y-8821831D01*
X7172691Y-8821831D02*
X7182215Y-8812308D01*
X7182215Y-8812308D02*
X7201262Y-8802784D01*
X7391739Y-8802784D02*
X7410786Y-8802784D01*
X7410786Y-8802784D02*
X7429834Y-8812308D01*
X7429834Y-8812308D02*
X7439358Y-8821831D01*
X7439358Y-8821831D02*
X7448882Y-8840879D01*
X7448882Y-8840879D02*
X7458405Y-8878974D01*
X7458405Y-8878974D02*
X7458405Y-8926593D01*
X7458405Y-8926593D02*
X7448882Y-8964689D01*
X7448882Y-8964689D02*
X7439358Y-8983736D01*
X7439358Y-8983736D02*
X7429834Y-8993260D01*
X7429834Y-8993260D02*
X7410786Y-9002784D01*
X7410786Y-9002784D02*
X7391739Y-9002784D01*
X7391739Y-9002784D02*
X7372691Y-8993260D01*
X7372691Y-8993260D02*
X7363167Y-8983736D01*
X7363167Y-8983736D02*
X7353643Y-8964689D01*
X7353643Y-8964689D02*
X7344120Y-8926593D01*
X7344120Y-8926593D02*
X7344120Y-8878974D01*
X7344120Y-8878974D02*
X7353643Y-8840879D01*
X7353643Y-8840879D02*
X7363167Y-8821831D01*
X7363167Y-8821831D02*
X7372691Y-8812308D01*
X7372691Y-8812308D02*
X7391739Y-8802784D01*
X7544120Y-9002784D02*
X7544120Y-8869450D01*
X7544120Y-8888498D02*
X7553643Y-8878974D01*
X7553643Y-8878974D02*
X7572691Y-8869450D01*
X7572691Y-8869450D02*
X7601263Y-8869450D01*
X7601263Y-8869450D02*
X7620310Y-8878974D01*
X7620310Y-8878974D02*
X7629834Y-8898022D01*
X7629834Y-8898022D02*
X7629834Y-9002784D01*
X7629834Y-8898022D02*
X7639358Y-8878974D01*
X7639358Y-8878974D02*
X7658405Y-8869450D01*
X7658405Y-8869450D02*
X7686977Y-8869450D01*
X7686977Y-8869450D02*
X7706024Y-8878974D01*
X7706024Y-8878974D02*
X7715548Y-8898022D01*
X7715548Y-8898022D02*
X7715548Y-9002784D01*
X7810786Y-9002784D02*
X7810786Y-8869450D01*
X7810786Y-8888498D02*
X7820310Y-8878974D01*
X7820310Y-8878974D02*
X7839358Y-8869450D01*
X7839358Y-8869450D02*
X7867929Y-8869450D01*
X7867929Y-8869450D02*
X7886977Y-8878974D01*
X7886977Y-8878974D02*
X7896501Y-8898022D01*
X7896501Y-8898022D02*
X7896501Y-9002784D01*
X7896501Y-8898022D02*
X7906024Y-8878974D01*
X7906024Y-8878974D02*
X7925072Y-8869450D01*
X7925072Y-8869450D02*
X7953643Y-8869450D01*
X7953643Y-8869450D02*
X7972691Y-8878974D01*
X7972691Y-8878974D02*
X7982215Y-8898022D01*
X7982215Y-8898022D02*
X7982215Y-9002784D01*
X8372691Y-8793260D02*
X8201263Y-9050403D01*
X8629834Y-8802784D02*
X8648882Y-8802784D01*
X8648882Y-8802784D02*
X8667929Y-8812308D01*
X8667929Y-8812308D02*
X8677453Y-8821831D01*
X8677453Y-8821831D02*
X8686977Y-8840879D01*
X8686977Y-8840879D02*
X8696501Y-8878974D01*
X8696501Y-8878974D02*
X8696501Y-8926593D01*
X8696501Y-8926593D02*
X8686977Y-8964689D01*
X8686977Y-8964689D02*
X8677453Y-8983736D01*
X8677453Y-8983736D02*
X8667929Y-8993260D01*
X8667929Y-8993260D02*
X8648882Y-9002784D01*
X8648882Y-9002784D02*
X8629834Y-9002784D01*
X8629834Y-9002784D02*
X8610787Y-8993260D01*
X8610787Y-8993260D02*
X8601263Y-8983736D01*
X8601263Y-8983736D02*
X8591739Y-8964689D01*
X8591739Y-8964689D02*
X8582215Y-8926593D01*
X8582215Y-8926593D02*
X8582215Y-8878974D01*
X8582215Y-8878974D02*
X8591739Y-8840879D01*
X8591739Y-8840879D02*
X8601263Y-8821831D01*
X8601263Y-8821831D02*
X8610787Y-8812308D01*
X8610787Y-8812308D02*
X8629834Y-8802784D01*
X8782215Y-8983736D02*
X8791739Y-8993260D01*
X8791739Y-8993260D02*
X8782215Y-9002784D01*
X8782215Y-9002784D02*
X8772691Y-8993260D01*
X8772691Y-8993260D02*
X8782215Y-8983736D01*
X8782215Y-8983736D02*
X8782215Y-9002784D01*
X8915548Y-8802784D02*
X8934596Y-8802784D01*
X8934596Y-8802784D02*
X8953644Y-8812308D01*
X8953644Y-8812308D02*
X8963168Y-8821831D01*
X8963168Y-8821831D02*
X8972691Y-8840879D01*
X8972691Y-8840879D02*
X8982215Y-8878974D01*
X8982215Y-8878974D02*
X8982215Y-8926593D01*
X8982215Y-8926593D02*
X8972691Y-8964689D01*
X8972691Y-8964689D02*
X8963168Y-8983736D01*
X8963168Y-8983736D02*
X8953644Y-8993260D01*
X8953644Y-8993260D02*
X8934596Y-9002784D01*
X8934596Y-9002784D02*
X8915548Y-9002784D01*
X8915548Y-9002784D02*
X8896501Y-8993260D01*
X8896501Y-8993260D02*
X8886977Y-8983736D01*
X8886977Y-8983736D02*
X8877453Y-8964689D01*
X8877453Y-8964689D02*
X8867929Y-8926593D01*
X8867929Y-8926593D02*
X8867929Y-8878974D01*
X8867929Y-8878974D02*
X8877453Y-8840879D01*
X8877453Y-8840879D02*
X8886977Y-8821831D01*
X8886977Y-8821831D02*
X8896501Y-8812308D01*
X8896501Y-8812308D02*
X8915548Y-8802784D01*
X9077453Y-9002784D02*
X9115548Y-9002784D01*
X9115548Y-9002784D02*
X9134596Y-8993260D01*
X9134596Y-8993260D02*
X9144120Y-8983736D01*
X9144120Y-8983736D02*
X9163168Y-8955165D01*
X9163168Y-8955165D02*
X9172691Y-8917070D01*
X9172691Y-8917070D02*
X9172691Y-8840879D01*
X9172691Y-8840879D02*
X9163168Y-8821831D01*
X9163168Y-8821831D02*
X9153644Y-8812308D01*
X9153644Y-8812308D02*
X9134596Y-8802784D01*
X9134596Y-8802784D02*
X9096501Y-8802784D01*
X9096501Y-8802784D02*
X9077453Y-8812308D01*
X9077453Y-8812308D02*
X9067929Y-8821831D01*
X9067929Y-8821831D02*
X9058406Y-8840879D01*
X9058406Y-8840879D02*
X9058406Y-8888498D01*
X9058406Y-8888498D02*
X9067929Y-8907546D01*
X9067929Y-8907546D02*
X9077453Y-8917070D01*
X9077453Y-8917070D02*
X9096501Y-8926593D01*
X9096501Y-8926593D02*
X9134596Y-8926593D01*
X9134596Y-8926593D02*
X9153644Y-8917070D01*
X9153644Y-8917070D02*
X9163168Y-8907546D01*
X9163168Y-8907546D02*
X9172691Y-8888498D01*
X9286977Y-8888498D02*
X9267929Y-8878974D01*
X9267929Y-8878974D02*
X9258406Y-8869450D01*
X9258406Y-8869450D02*
X9248882Y-8850403D01*
X9248882Y-8850403D02*
X9248882Y-8840879D01*
X9248882Y-8840879D02*
X9258406Y-8821831D01*
X9258406Y-8821831D02*
X9267929Y-8812308D01*
X9267929Y-8812308D02*
X9286977Y-8802784D01*
X9286977Y-8802784D02*
X9325072Y-8802784D01*
X9325072Y-8802784D02*
X9344120Y-8812308D01*
X9344120Y-8812308D02*
X9353644Y-8821831D01*
X9353644Y-8821831D02*
X9363168Y-8840879D01*
X9363168Y-8840879D02*
X9363168Y-8850403D01*
X9363168Y-8850403D02*
X9353644Y-8869450D01*
X9353644Y-8869450D02*
X9344120Y-8878974D01*
X9344120Y-8878974D02*
X9325072Y-8888498D01*
X9325072Y-8888498D02*
X9286977Y-8888498D01*
X9286977Y-8888498D02*
X9267929Y-8898022D01*
X9267929Y-8898022D02*
X9258406Y-8907546D01*
X9258406Y-8907546D02*
X9248882Y-8926593D01*
X9248882Y-8926593D02*
X9248882Y-8964689D01*
X9248882Y-8964689D02*
X9258406Y-8983736D01*
X9258406Y-8983736D02*
X9267929Y-8993260D01*
X9267929Y-8993260D02*
X9286977Y-9002784D01*
X9286977Y-9002784D02*
X9325072Y-9002784D01*
X9325072Y-9002784D02*
X9344120Y-8993260D01*
X9344120Y-8993260D02*
X9353644Y-8983736D01*
X9353644Y-8983736D02*
X9363168Y-8964689D01*
X9363168Y-8964689D02*
X9363168Y-8926593D01*
X9363168Y-8926593D02*
X9353644Y-8907546D01*
X9353644Y-8907546D02*
X9344120Y-8898022D01*
X9344120Y-8898022D02*
X9325072Y-8888498D01*
X9534596Y-8869450D02*
X9534596Y-9002784D01*
X9486977Y-8793260D02*
X9439358Y-8936117D01*
X9439358Y-8936117D02*
X9563168Y-8936117D01*
X9629834Y-8802784D02*
X9629834Y-8840879D01*
X9706025Y-8802784D02*
X9706025Y-8840879D01*
X10001263Y-9078974D02*
X9991739Y-9069450D01*
X9991739Y-9069450D02*
X9972691Y-9040879D01*
X9972691Y-9040879D02*
X9963168Y-9021831D01*
X9963168Y-9021831D02*
X9953644Y-8993260D01*
X9953644Y-8993260D02*
X9944120Y-8945641D01*
X9944120Y-8945641D02*
X9944120Y-8907546D01*
X9944120Y-8907546D02*
X9953644Y-8859927D01*
X9953644Y-8859927D02*
X9963168Y-8831355D01*
X9963168Y-8831355D02*
X9972691Y-8812308D01*
X9972691Y-8812308D02*
X9991739Y-8783736D01*
X9991739Y-8783736D02*
X10001263Y-8774212D01*
X10172691Y-8802784D02*
X10077453Y-8802784D01*
X10077453Y-8802784D02*
X10067930Y-8898022D01*
X10067930Y-8898022D02*
X10077453Y-8888498D01*
X10077453Y-8888498D02*
X10096501Y-8878974D01*
X10096501Y-8878974D02*
X10144120Y-8878974D01*
X10144120Y-8878974D02*
X10163168Y-8888498D01*
X10163168Y-8888498D02*
X10172691Y-8898022D01*
X10172691Y-8898022D02*
X10182215Y-8917070D01*
X10182215Y-8917070D02*
X10182215Y-8964689D01*
X10182215Y-8964689D02*
X10172691Y-8983736D01*
X10172691Y-8983736D02*
X10163168Y-8993260D01*
X10163168Y-8993260D02*
X10144120Y-9002784D01*
X10144120Y-9002784D02*
X10096501Y-9002784D01*
X10096501Y-9002784D02*
X10077453Y-8993260D01*
X10077453Y-8993260D02*
X10067930Y-8983736D01*
X10420311Y-9002784D02*
X10420311Y-8802784D01*
X10506025Y-9002784D02*
X10506025Y-8898022D01*
X10506025Y-8898022D02*
X10496501Y-8878974D01*
X10496501Y-8878974D02*
X10477453Y-8869450D01*
X10477453Y-8869450D02*
X10448882Y-8869450D01*
X10448882Y-8869450D02*
X10429834Y-8878974D01*
X10429834Y-8878974D02*
X10420311Y-8888498D01*
X10629834Y-9002784D02*
X10610787Y-8993260D01*
X10610787Y-8993260D02*
X10601263Y-8983736D01*
X10601263Y-8983736D02*
X10591739Y-8964689D01*
X10591739Y-8964689D02*
X10591739Y-8907546D01*
X10591739Y-8907546D02*
X10601263Y-8888498D01*
X10601263Y-8888498D02*
X10610787Y-8878974D01*
X10610787Y-8878974D02*
X10629834Y-8869450D01*
X10629834Y-8869450D02*
X10658406Y-8869450D01*
X10658406Y-8869450D02*
X10677453Y-8878974D01*
X10677453Y-8878974D02*
X10686977Y-8888498D01*
X10686977Y-8888498D02*
X10696501Y-8907546D01*
X10696501Y-8907546D02*
X10696501Y-8964689D01*
X10696501Y-8964689D02*
X10686977Y-8983736D01*
X10686977Y-8983736D02*
X10677453Y-8993260D01*
X10677453Y-8993260D02*
X10658406Y-9002784D01*
X10658406Y-9002784D02*
X10629834Y-9002784D01*
X10810787Y-9002784D02*
X10791739Y-8993260D01*
X10791739Y-8993260D02*
X10782215Y-8974212D01*
X10782215Y-8974212D02*
X10782215Y-8802784D01*
X10963168Y-8993260D02*
X10944120Y-9002784D01*
X10944120Y-9002784D02*
X10906025Y-9002784D01*
X10906025Y-9002784D02*
X10886977Y-8993260D01*
X10886977Y-8993260D02*
X10877453Y-8974212D01*
X10877453Y-8974212D02*
X10877453Y-8898022D01*
X10877453Y-8898022D02*
X10886977Y-8878974D01*
X10886977Y-8878974D02*
X10906025Y-8869450D01*
X10906025Y-8869450D02*
X10944120Y-8869450D01*
X10944120Y-8869450D02*
X10963168Y-8878974D01*
X10963168Y-8878974D02*
X10972692Y-8898022D01*
X10972692Y-8898022D02*
X10972692Y-8917070D01*
X10972692Y-8917070D02*
X10877453Y-8936117D01*
X11048882Y-8993260D02*
X11067930Y-9002784D01*
X11067930Y-9002784D02*
X11106025Y-9002784D01*
X11106025Y-9002784D02*
X11125073Y-8993260D01*
X11125073Y-8993260D02*
X11134596Y-8974212D01*
X11134596Y-8974212D02*
X11134596Y-8964689D01*
X11134596Y-8964689D02*
X11125073Y-8945641D01*
X11125073Y-8945641D02*
X11106025Y-8936117D01*
X11106025Y-8936117D02*
X11077453Y-8936117D01*
X11077453Y-8936117D02*
X11058406Y-8926593D01*
X11058406Y-8926593D02*
X11048882Y-8907546D01*
X11048882Y-8907546D02*
X11048882Y-8898022D01*
X11048882Y-8898022D02*
X11058406Y-8878974D01*
X11058406Y-8878974D02*
X11077453Y-8869450D01*
X11077453Y-8869450D02*
X11106025Y-8869450D01*
X11106025Y-8869450D02*
X11125073Y-8878974D01*
X11201263Y-9078974D02*
X11210787Y-9069450D01*
X11210787Y-9069450D02*
X11229834Y-9040879D01*
X11229834Y-9040879D02*
X11239358Y-9021831D01*
X11239358Y-9021831D02*
X11248882Y-8993260D01*
X11248882Y-8993260D02*
X11258406Y-8945641D01*
X11258406Y-8945641D02*
X11258406Y-8907546D01*
X11258406Y-8907546D02*
X11248882Y-8859927D01*
X11248882Y-8859927D02*
X11239358Y-8831355D01*
X11239358Y-8831355D02*
X11229834Y-8812308D01*
X11229834Y-8812308D02*
X11210787Y-8783736D01*
X11210787Y-8783736D02*
X11201263Y-8774212D01*
X11563168Y-9078974D02*
X11553644Y-9069450D01*
X11553644Y-9069450D02*
X11534596Y-9040879D01*
X11534596Y-9040879D02*
X11525072Y-9021831D01*
X11525072Y-9021831D02*
X11515549Y-8993260D01*
X11515549Y-8993260D02*
X11506025Y-8945641D01*
X11506025Y-8945641D02*
X11506025Y-8907546D01*
X11506025Y-8907546D02*
X11515549Y-8859927D01*
X11515549Y-8859927D02*
X11525072Y-8831355D01*
X11525072Y-8831355D02*
X11534596Y-8812308D01*
X11534596Y-8812308D02*
X11553644Y-8783736D01*
X11553644Y-8783736D02*
X11563168Y-8774212D01*
X11639358Y-8869450D02*
X11639358Y-9002784D01*
X11639358Y-8888498D02*
X11648882Y-8878974D01*
X11648882Y-8878974D02*
X11667930Y-8869450D01*
X11667930Y-8869450D02*
X11696501Y-8869450D01*
X11696501Y-8869450D02*
X11715549Y-8878974D01*
X11715549Y-8878974D02*
X11725072Y-8898022D01*
X11725072Y-8898022D02*
X11725072Y-9002784D01*
X11848882Y-9002784D02*
X11829834Y-8993260D01*
X11829834Y-8993260D02*
X11820311Y-8983736D01*
X11820311Y-8983736D02*
X11810787Y-8964689D01*
X11810787Y-8964689D02*
X11810787Y-8907546D01*
X11810787Y-8907546D02*
X11820311Y-8888498D01*
X11820311Y-8888498D02*
X11829834Y-8878974D01*
X11829834Y-8878974D02*
X11848882Y-8869450D01*
X11848882Y-8869450D02*
X11877453Y-8869450D01*
X11877453Y-8869450D02*
X11896501Y-8878974D01*
X11896501Y-8878974D02*
X11906025Y-8888498D01*
X11906025Y-8888498D02*
X11915549Y-8907546D01*
X11915549Y-8907546D02*
X11915549Y-8964689D01*
X11915549Y-8964689D02*
X11906025Y-8983736D01*
X11906025Y-8983736D02*
X11896501Y-8993260D01*
X11896501Y-8993260D02*
X11877453Y-9002784D01*
X11877453Y-9002784D02*
X11848882Y-9002784D01*
X11972692Y-8869450D02*
X12048882Y-8869450D01*
X12001263Y-8802784D02*
X12001263Y-8974212D01*
X12001263Y-8974212D02*
X12010787Y-8993260D01*
X12010787Y-8993260D02*
X12029834Y-9002784D01*
X12029834Y-9002784D02*
X12048882Y-9002784D01*
X12267930Y-8869450D02*
X12267930Y-9069450D01*
X12267930Y-8878974D02*
X12286977Y-8869450D01*
X12286977Y-8869450D02*
X12325073Y-8869450D01*
X12325073Y-8869450D02*
X12344120Y-8878974D01*
X12344120Y-8878974D02*
X12353644Y-8888498D01*
X12353644Y-8888498D02*
X12363168Y-8907546D01*
X12363168Y-8907546D02*
X12363168Y-8964689D01*
X12363168Y-8964689D02*
X12353644Y-8983736D01*
X12353644Y-8983736D02*
X12344120Y-8993260D01*
X12344120Y-8993260D02*
X12325073Y-9002784D01*
X12325073Y-9002784D02*
X12286977Y-9002784D01*
X12286977Y-9002784D02*
X12267930Y-8993260D01*
X12477453Y-9002784D02*
X12458406Y-8993260D01*
X12458406Y-8993260D02*
X12448882Y-8974212D01*
X12448882Y-8974212D02*
X12448882Y-8802784D01*
X12639358Y-9002784D02*
X12639358Y-8898022D01*
X12639358Y-8898022D02*
X12629834Y-8878974D01*
X12629834Y-8878974D02*
X12610787Y-8869450D01*
X12610787Y-8869450D02*
X12572692Y-8869450D01*
X12572692Y-8869450D02*
X12553644Y-8878974D01*
X12639358Y-8993260D02*
X12620311Y-9002784D01*
X12620311Y-9002784D02*
X12572692Y-9002784D01*
X12572692Y-9002784D02*
X12553644Y-8993260D01*
X12553644Y-8993260D02*
X12544120Y-8974212D01*
X12544120Y-8974212D02*
X12544120Y-8955165D01*
X12544120Y-8955165D02*
X12553644Y-8936117D01*
X12553644Y-8936117D02*
X12572692Y-8926593D01*
X12572692Y-8926593D02*
X12620311Y-8926593D01*
X12620311Y-8926593D02*
X12639358Y-8917070D01*
X12706025Y-8869450D02*
X12782215Y-8869450D01*
X12734596Y-8802784D02*
X12734596Y-8974212D01*
X12734596Y-8974212D02*
X12744120Y-8993260D01*
X12744120Y-8993260D02*
X12763168Y-9002784D01*
X12763168Y-9002784D02*
X12782215Y-9002784D01*
X12925073Y-8993260D02*
X12906025Y-9002784D01*
X12906025Y-9002784D02*
X12867930Y-9002784D01*
X12867930Y-9002784D02*
X12848882Y-8993260D01*
X12848882Y-8993260D02*
X12839358Y-8974212D01*
X12839358Y-8974212D02*
X12839358Y-8898022D01*
X12839358Y-8898022D02*
X12848882Y-8878974D01*
X12848882Y-8878974D02*
X12867930Y-8869450D01*
X12867930Y-8869450D02*
X12906025Y-8869450D01*
X12906025Y-8869450D02*
X12925073Y-8878974D01*
X12925073Y-8878974D02*
X12934596Y-8898022D01*
X12934596Y-8898022D02*
X12934596Y-8917070D01*
X12934596Y-8917070D02*
X12839358Y-8936117D01*
X13106025Y-9002784D02*
X13106025Y-8802784D01*
X13106025Y-8993260D02*
X13086977Y-9002784D01*
X13086977Y-9002784D02*
X13048882Y-9002784D01*
X13048882Y-9002784D02*
X13029834Y-8993260D01*
X13029834Y-8993260D02*
X13020311Y-8983736D01*
X13020311Y-8983736D02*
X13010787Y-8964689D01*
X13010787Y-8964689D02*
X13010787Y-8907546D01*
X13010787Y-8907546D02*
X13020311Y-8888498D01*
X13020311Y-8888498D02*
X13029834Y-8878974D01*
X13029834Y-8878974D02*
X13048882Y-8869450D01*
X13048882Y-8869450D02*
X13086977Y-8869450D01*
X13086977Y-8869450D02*
X13106025Y-8878974D01*
X13182215Y-9078974D02*
X13191739Y-9069450D01*
X13191739Y-9069450D02*
X13210787Y-9040879D01*
X13210787Y-9040879D02*
X13220311Y-9021831D01*
X13220311Y-9021831D02*
X13229834Y-8993260D01*
X13229834Y-8993260D02*
X13239358Y-8945641D01*
X13239358Y-8945641D02*
X13239358Y-8907546D01*
X13239358Y-8907546D02*
X13229834Y-8859927D01*
X13229834Y-8859927D02*
X13220311Y-8831355D01*
X13220311Y-8831355D02*
X13210787Y-8812308D01*
X13210787Y-8812308D02*
X13191739Y-8783736D01*
X13191739Y-8783736D02*
X13182215Y-8774212D01*
M02*
