<?xml version="1.0" encoding="UTF-8" standalone="no"?>
<svg
   xmlns:dc="http://purl.org/dc/elements/1.1/"
   xmlns:cc="http://creativecommons.org/ns#"
   xmlns:rdf="http://www.w3.org/1999/02/22-rdf-syntax-ns#"
   xmlns:svg="http://www.w3.org/2000/svg"
   xmlns="http://www.w3.org/2000/svg"
   xmlns:xlink="http://www.w3.org/1999/xlink"
   xmlns:sodipodi="http://sodipodi.sourceforge.net/DTD/sodipodi-0.dtd"
   xmlns:inkscape="http://www.inkscape.org/namespaces/inkscape"
   version="1.1"
   width="148mm"
   height="210mm"
   viewBox="0 0 148 210"
   id="svg4097"
   sodipodi:docname="pwmTo_0-5V-F_Cu-panel.svg"
   inkscape:version="0.92.3 (2405546, 2018-03-11)">
  <metadata
     id="metadata4103">
    <rdf:RDF>
      <cc:Work
         rdf:about="">
        <dc:format>image/svg+xml</dc:format>
        <dc:type
           rdf:resource="http://purl.org/dc/dcmitype/StillImage" />
        <dc:title>SVG Image created as pwmTo_0-5V-F_Cu.svg date 2025/01/25 11:21:49 </dc:title>
      </cc:Work>
    </rdf:RDF>
  </metadata>
  <defs
     id="defs4101">
    <clipPath
       clipPathUnits="userSpaceOnUse"
       id="clipPath4260">
      <rect
         style="fill:none;fill-opacity:1;stroke:#000000;stroke-width:0.26523495;stroke-opacity:1"
         id="rect4262"
         width="72.246567"
         height="27.203379"
         x="72.739067"
         y="116.74995" />
    </clipPath>
    <clipPath
       clipPathUnits="userSpaceOnUse"
       id="clipPath8162">
      <rect
         style="fill:none;fill-opacity:1;stroke:#000000;stroke-width:0.26459453;stroke-opacity:1"
         id="rect8164"
         width="72.202492"
         height="27.2682"
         x="80.094528"
         y="52.491089" />
    </clipPath>
  </defs>
  <sodipodi:namedview
     pagecolor="#ffffff"
     bordercolor="#666666"
     borderopacity="1"
     objecttolerance="10"
     gridtolerance="10"
     guidetolerance="10"
     inkscape:pageopacity="0"
     inkscape:pageshadow="2"
     inkscape:window-width="2560"
     inkscape:window-height="1417"
     id="namedview4099"
     showgrid="false"
     inkscape:zoom="1.1172845"
     inkscape:cx="161.79806"
     inkscape:cy="508.63942"
     inkscape:window-x="-8"
     inkscape:window-y="-8"
     inkscape:window-maximized="1"
     inkscape:current-layer="svg4097"
     inkscape:snap-to-guides="true"
     inkscape:snap-others="true"
     inkscape:snap-global="true" />
  <title
     id="title3829">SVG Image created as pwmTo_0-5V-F_Cu.svg date 2025/01/25 11:21:49 </title>
  <desc
     id="desc3831">Image generated by PCBNEW </desc>
  <g
     style="fill:#000000;fill-opacity:1;stroke:#000000;stroke-linecap:round;stroke-linejoin:round;stroke-opacity:1"
     id="g3833"
     transform="translate(0,61.9942)" />
  <g
     id="g9115"
     transform="translate(0.74622026)">
    <g
       transform="matrix(0,0.5400003,-0.5400003,0,18.892095,-9.0125451)"
       id="g2187">
      <path
         style="fill:none;stroke:#000000;stroke-width:0.26458335px;stroke-linecap:butt;stroke-linejoin:miter;stroke-opacity:1"
         d="m 39.605017,13.092635 -0.09147,8.23199"
         id="path2168"
         inkscape:connector-curvature="0" />
      <path
         style="fill:none;stroke:#000000;stroke-width:0.26458335px;stroke-linecap:butt;stroke-linejoin:miter;stroke-opacity:1"
         d="m 35.054729,17.164999 h 8.79602"
         id="path2170"
         inkscape:connector-curvature="0" />
      <circle
         style="fill:none;stroke:#000000;stroke-width:0.26458335"
         id="path2172"
         cx="39.582092"
         cy="17.164999"
         r="5.3358212" />
    </g>
    <use
       height="100%"
       width="100%"
       transform="translate(127.26158,83.054926)"
       id="use4566"
       xlink:href="#g2187"
       y="0"
       x="0" />
    <g
       inkscape:tile-y0="16.235699"
       inkscape:tile-x0="14.457207"
       inkscape:tile-h="72.202494"
       inkscape:tile-w="27.268201"
       inkscape:tile-cy="52.358468"
       inkscape:tile-cx="28.126274"
       transform="translate(-89.170105,-11.893767)"
       id="g7081">
      <g
         style="fill:#000000;fill-opacity:1;stroke:#000000;stroke-linecap:round;stroke-linejoin:round;stroke-opacity:1"
         id="g6683" />
      <g
         id="g7212">
        <g
           transform="rotate(-90,116.19577,66.125189)"
           clip-path="url(#clipPath8162)"
           id="g8154">
          <g
             id="g8021"
             transform="translate(7.2840499,-2.1768431)">
            <g
               id="g7623"
               style="fill:#000000;fill-opacity:1;stroke:#000000;stroke-linecap:round;stroke-linejoin:round;stroke-opacity:1" />
            <g
               id="g7631"
               style="fill:#000000;fill-opacity:1;stroke:#000000;stroke-width:0.0212;stroke-linecap:round;stroke-linejoin:round;stroke-opacity:1">
              <rect
                 id="rect7625"
                 rx="0.000000"
                 height="38.751999"
                 width="83.709999"
                 y="48.960999"
                 x="67.035202" />
              <path
                 id="path7627"
                 d="m 109.1322,67.175 -0.019,-0.0957 -0.0542,-0.0811 -0.0811,-0.0542 -0.0957,-0.019 h -0.8 l -0.0957,0.019 -0.0811,0.0542 -0.0542,0.0811 -0.019,0.0957 v 1.25 l 0.019,0.0957 0.0542,0.0811 0.0811,0.0542 0.0957,0.019 h 0.8 l 0.0957,-0.019 0.0811,-0.0542 0.0542,-0.0811 0.019,-0.0957 z"
                 style="fill:#ffffff;fill-opacity:1;fill-rule:evenodd;stroke:none"
                 inkscape:connector-curvature="0" />
              <path
                 id="path7629"
                 d="m 106.0322,67.175 -0.019,-0.0957 -0.0542,-0.0811 -0.0811,-0.0542 -0.0957,-0.019 h -0.8 l -0.0957,0.019 -0.0811,0.0542 -0.0542,0.0811 -0.019,0.0957 v 1.25 l 0.019,0.0957 0.0542,0.0811 0.0811,0.0542 0.0957,0.019 h 0.8 l 0.0957,-0.019 0.0811,-0.0542 0.0542,-0.0811 0.019,-0.0957 z"
                 style="fill:#ffffff;fill-opacity:1;fill-rule:evenodd;stroke:none"
                 inkscape:connector-curvature="0" />
            </g>
            <g
               id="g7635"
               style="fill:#ffffff;fill-opacity:1;stroke:none">
              <circle
                 id="circle7633"
                 r="1.8"
                 cy="58.812"
                 cx="141.40221" />
            </g>
            <g
               id="g7643"
               style="fill:#ffffff;fill-opacity:1;stroke:none">
              <circle
                 id="circle7637"
                 r="2.8"
                 cy="58.812"
                 cx="141.40221" />
              <path
                 id="path7639"
                 d="m 109.1322,63.175 -0.019,-0.0957 -0.0542,-0.0811 -0.0811,-0.0542 -0.0957,-0.019 h -0.8 l -0.0957,0.019 -0.0811,0.0542 -0.0542,0.0811 -0.019,0.0957 v 1.25 l 0.019,0.0957 0.0542,0.0811 0.0811,0.0542 0.0957,0.019 h 0.8 l 0.0957,-0.019 0.0811,-0.0542 0.0542,-0.0811 0.019,-0.0957 z"
                 style="fill:#ffffff;fill-opacity:1;fill-rule:evenodd;stroke:none"
                 inkscape:connector-curvature="0" />
              <path
                 id="path7641"
                 d="m 106.0322,63.175 -0.019,-0.0957 -0.0542,-0.0811 -0.0811,-0.0542 -0.0957,-0.019 h -0.8 l -0.0957,0.019 -0.0811,0.0542 -0.0542,0.0811 -0.019,0.0957 v 1.25 l 0.019,0.0957 0.0542,0.0811 0.0811,0.0542 0.0957,0.019 h 0.8 l 0.0957,-0.019 0.0811,-0.0542 0.0542,-0.0811 0.019,-0.0957 z"
                 style="fill:#ffffff;fill-opacity:1;fill-rule:evenodd;stroke:none"
                 inkscape:connector-curvature="0" />
            </g>
            <g
               id="g7647"
               style="fill:#ffffff;fill-opacity:1;stroke:none">
              <circle
                 id="circle7645"
                 r="1.8"
                 cy="78.624001"
                 cx="141.40221" />
            </g>
            <g
               id="g7661"
               style="fill:#ffffff;fill-opacity:1;stroke:none">
              <circle
                 id="circle7649"
                 r="2.8"
                 cy="78.624001"
                 cx="141.40221" />
              <path
                 id="path7651"
                 d="m 102.6322,74.175 -0.019,-0.0957 -0.0542,-0.0811 -0.0811,-0.0542 -0.0957,-0.019 h -0.8 l -0.0957,0.019 -0.0811,0.0542 -0.0542,0.0811 -0.019,0.0957 v 1.25 l 0.019,0.0957 0.0542,0.0811 0.0811,0.0542 0.0957,0.019 h 0.8 l 0.0957,-0.019 0.0811,-0.0542 0.0542,-0.0811 0.019,-0.0957 z"
                 style="fill:#ffffff;fill-opacity:1;fill-rule:evenodd;stroke:none"
                 inkscape:connector-curvature="0" />
              <path
                 id="path7653"
                 d="M 99.5322,74.175 99.5132,74.0793 99.459,73.9982 99.3779,73.944 99.2822,73.925 h -0.8 l -0.0957,0.019 -0.0811,0.0542 -0.0542,0.0811 -0.019,0.0957 v 1.25 l 0.019,0.0957 0.0542,0.0811 0.0811,0.0542 0.0957,0.019 h 0.8 l 0.0957,-0.019 0.0811,-0.0542 0.0542,-0.0811 0.019,-0.0957 z"
                 style="fill:#ffffff;fill-opacity:1;fill-rule:evenodd;stroke:none"
                 inkscape:connector-curvature="0" />
              <path
                 id="path7655"
                 d="m 102.7082,63.267 -0.019,-0.0957 -0.0542,-0.0811 -0.0811,-0.0542 -0.0957,-0.019 h -0.8 l -0.0957,0.019 -0.0811,0.0542 -0.0542,0.0811 -0.019,0.0957 v 1.25 l 0.019,0.0957 0.0542,0.0811 0.0811,0.0542 0.0957,0.019 h 0.8 l 0.0957,-0.019 0.0811,-0.0542 0.0542,-0.0811 0.019,-0.0957 z"
                 style="fill:#ffffff;fill-opacity:1;fill-rule:evenodd;stroke:none"
                 inkscape:connector-curvature="0" />
              <path
                 id="path7657"
                 d="M 99.6082,63.267 99.5892,63.1713 99.535,63.0902 99.4539,63.036 99.3582,63.017 h -0.8 l -0.0957,0.019 -0.0811,0.0542 -0.0542,0.0811 -0.019,0.0957 v 1.25 l 0.019,0.0957 0.0542,0.0811 0.0811,0.0542 0.0957,0.019 h 0.8 l 0.0957,-0.019 0.0811,-0.0542 0.0542,-0.0811 0.019,-0.0957 z"
                 style="fill:#ffffff;fill-opacity:1;fill-rule:evenodd;stroke:none"
                 inkscape:connector-curvature="0" />
              <path
                 id="path7659"
                 d="m 94.6822,73.3 0.0957,-0.019 0.0811,-0.0542 0.0542,-0.0811 0.019,-0.0957 v -1.5 L 94.9132,71.4543 94.859,71.3732 94.7779,71.319 94.6822,71.3 h -1.5 l -0.0957,0.019 -0.0811,0.0542 -0.0542,0.0811 -0.019,0.0957 v 1.5 l 0.019,0.0957 0.0542,0.0811 0.0811,0.0542 0.0957,0.019 z"
                 style="fill:#ffffff;fill-opacity:1;fill-rule:evenodd;stroke:none"
                 inkscape:connector-curvature="0" />
            </g>
            <g
               id="g7665"
               style="fill:#ffffff;fill-opacity:1;stroke:none">
              <circle
                 id="circle7663"
                 r="1"
                 cy="67.800003"
                 cx="93.932198" />
            </g>
            <g
               id="g7673"
               style="fill:#ffffff;fill-opacity:1;stroke:none">
              <circle
                 id="circle7667"
                 r="1"
                 cy="63.299999"
                 cx="93.932198" />
              <path
                 id="path7669"
                 d="m 109.8822,58.1539 -0.0201,-0.178 -0.0591,-0.1691 -0.0953,-0.1516 -0.1267,-0.1267 -0.1516,-0.0953 -0.1691,-0.0591 -0.178,-0.0201 h -1.4002 l -0.178,0.0201 -0.1691,0.0591 -0.1516,0.0953 -0.1267,0.1267 -0.0953,0.1516 -0.0591,0.1691 -0.0201,0.178 v 0.3002 l 0.0201,0.178 0.0591,0.1691 0.0953,0.1516 0.1267,0.1267 0.1516,0.0953 0.1691,0.0591 0.178,0.0201 h 1.4002 l 0.178,-0.0201 0.1691,-0.0591 0.1516,-0.0953 0.1267,-0.1267 0.0953,-0.1516 0.0591,-0.1691 0.0201,-0.178 z"
                 style="fill:#ffffff;fill-opacity:1;fill-rule:evenodd;stroke:none"
                 inkscape:connector-curvature="0" />
              <path
                 id="path7671"
                 d="M 97.9442,58.1539 97.9241,57.9759 97.865,57.8068 97.7697,57.6552 97.643,57.5285 97.4914,57.4332 97.3223,57.3741 97.1443,57.354 h -1.4002 l -0.178,0.0201 -0.1691,0.0591 -0.1516,0.0953 -0.1267,0.1267 -0.0953,0.1516 -0.0591,0.1691 -0.0201,0.178 v 0.3002 l 0.0201,0.178 0.0591,0.1691 0.0953,0.1516 0.1267,0.1267 0.1516,0.0953 0.1691,0.0591 0.178,0.0201 h 1.4002 l 0.178,-0.0201 0.1691,-0.0591 0.1516,-0.0953 0.1267,-0.1267 0.0953,-0.1516 0.0591,-0.1691 0.0201,-0.178 z"
                 style="fill:#ffffff;fill-opacity:1;fill-rule:evenodd;stroke:none"
                 inkscape:connector-curvature="0" />
            </g>
            <g
               id="g7677"
               style="fill:#ffffff;fill-opacity:1;stroke:none">
              <circle
                 id="circle7675"
                 r="1.8"
                 cy="58.812"
                 cx="76.124199" />
            </g>
            <g
               id="g7681"
               style="fill:#ffffff;fill-opacity:1;stroke:none">
              <circle
                 id="circle7679"
                 r="2.8"
                 cy="58.812"
                 cx="76.124199" />
            </g>
            <g
               id="g7685"
               style="fill:#ffffff;fill-opacity:1;stroke:none">
              <circle
                 id="circle7683"
                 r="1.8"
                 cy="78.370003"
                 cx="76.124199" />
            </g>
            <g
               id="g7725"
               style="fill:#ffffff;fill-opacity:1;stroke:none">
              <circle
                 id="circle7687"
                 r="2.8"
                 cy="78.370003"
                 cx="76.124199" />
              <path
                 id="path7689"
                 d="m 118.8072,63.1 -0.0957,0.019 -0.0811,0.0542 -0.0542,0.0811 -0.019,0.0957 v 0.8 l 0.019,0.0957 0.0542,0.0811 0.0811,0.0542 0.0957,0.019 h 1.25 l 0.0957,-0.019 0.0811,-0.0542 0.0542,-0.0811 0.019,-0.0957 v -0.8 l -0.019,-0.0957 -0.0542,-0.0811 -0.0811,-0.0542 -0.0957,-0.019 z"
                 style="fill:#ffffff;fill-opacity:1;fill-rule:evenodd;stroke:none"
                 inkscape:connector-curvature="0" />
              <path
                 id="path7691"
                 d="m 118.8072,66.2 -0.0957,0.019 -0.0811,0.0542 -0.0542,0.0811 -0.019,0.0957 v 0.8 l 0.019,0.0957 0.0542,0.0811 0.0811,0.0542 0.0957,0.019 h 1.25 l 0.0957,-0.019 0.0811,-0.0542 0.0542,-0.0811 0.019,-0.0957 v -0.8 l -0.019,-0.0957 -0.0542,-0.0811 -0.0811,-0.0542 -0.0957,-0.019 z"
                 style="fill:#ffffff;fill-opacity:1;fill-rule:evenodd;stroke:none"
                 inkscape:connector-curvature="0" />
              <path
                 id="path7693"
                 d="m 102.6572,70.65 -0.019,-0.0957 -0.0542,-0.0811 -0.0811,-0.0542 -0.0957,-0.019 h -0.825 l -0.0957,0.019 -0.0811,0.0542 -0.0542,0.0811 -0.019,0.0957 v 1.3 l 0.019,0.0957 0.0542,0.0811 0.0811,0.0542 0.0957,0.019 h 0.825 l 0.0957,-0.019 0.0811,-0.0542 0.0542,-0.0811 0.019,-0.0957 z"
                 style="fill:#ffffff;fill-opacity:1;fill-rule:evenodd;stroke:none"
                 inkscape:connector-curvature="0" />
              <path
                 id="path7695"
                 d="M 99.5322,70.65 99.5132,70.5543 99.459,70.4732 99.3779,70.419 99.2822,70.4 h -0.825 l -0.0957,0.019 -0.0811,0.0542 -0.0542,0.0811 -0.019,0.0957 v 1.3 l 0.019,0.0957 0.0542,0.0811 0.0811,0.0542 0.0957,0.019 h 0.825 l 0.0957,-0.019 0.0811,-0.0542 0.0542,-0.0811 0.019,-0.0957 z"
                 style="fill:#ffffff;fill-opacity:1;fill-rule:evenodd;stroke:none"
                 inkscape:connector-curvature="0" />
              <path
                 id="path7697"
                 d="m 102.4642,66.6555 -0.0124,-0.0622 -0.0352,-0.0527 -0.0527,-0.0352 -0.0622,-0.0124 h -1.235 l -0.0622,0.0124 -0.0527,0.0352 -0.0352,0.0527 -0.0124,0.0622 v 0.325 l 0.0124,0.0622 0.0352,0.0527 0.0527,0.0352 0.0622,0.0124 h 1.235 l 0.0622,-0.0124 0.0527,-0.0352 0.0352,-0.0527 0.0124,-0.0622 z"
                 style="fill:#ffffff;fill-opacity:1;fill-rule:evenodd;stroke:none"
                 inkscape:connector-curvature="0" />
              <path
                 id="path7699"
                 d="m 102.4642,67.6055 -0.0124,-0.0622 -0.0352,-0.0527 -0.0527,-0.0352 -0.0622,-0.0124 h -1.235 l -0.0622,0.0124 -0.0527,0.0352 -0.0352,0.0527 -0.0124,0.0622 v 0.325 l 0.0124,0.0622 0.0352,0.0527 0.0527,0.0352 0.0622,0.0124 h 1.235 l 0.0622,-0.0124 0.0527,-0.0352 0.0352,-0.0527 0.0124,-0.0622 z"
                 style="fill:#ffffff;fill-opacity:1;fill-rule:evenodd;stroke:none"
                 inkscape:connector-curvature="0" />
              <path
                 id="path7701"
                 d="m 102.4642,68.5555 -0.0124,-0.0622 -0.0352,-0.0527 -0.0527,-0.0352 -0.0622,-0.0124 h -1.235 l -0.0622,0.0124 -0.0527,0.0352 -0.0352,0.0527 -0.0124,0.0622 v 0.325 l 0.0124,0.0622 0.0352,0.0527 0.0527,0.0352 0.0622,0.0124 h 1.235 l 0.0622,-0.0124 0.0527,-0.0352 0.0352,-0.0527 0.0124,-0.0622 z"
                 style="fill:#ffffff;fill-opacity:1;fill-rule:evenodd;stroke:none"
                 inkscape:connector-curvature="0" />
              <path
                 id="path7703"
                 d="M 99.7642,68.5555 99.7518,68.4933 99.7166,68.4406 99.6639,68.4054 99.6017,68.393 h -1.235 l -0.0622,0.0124 -0.0527,0.0352 -0.0352,0.0527 -0.0124,0.0622 v 0.325 l 0.0124,0.0622 0.0352,0.0527 0.0527,0.0352 0.0622,0.0124 h 1.235 l 0.0622,-0.0124 0.0527,-0.0352 0.0352,-0.0527 0.0124,-0.0622 z"
                 style="fill:#ffffff;fill-opacity:1;fill-rule:evenodd;stroke:none"
                 inkscape:connector-curvature="0" />
              <path
                 id="path7705"
                 d="M 99.7642,66.6555 99.7518,66.5933 99.7166,66.5406 99.6639,66.5054 99.6017,66.493 h -1.235 l -0.0622,0.0124 -0.0527,0.0352 -0.0352,0.0527 -0.0124,0.0622 v 0.325 l 0.0124,0.0622 0.0352,0.0527 0.0527,0.0352 0.0622,0.0124 h 1.235 l 0.0622,-0.0124 0.0527,-0.0352 0.0352,-0.0527 0.0124,-0.0622 z"
                 style="fill:#ffffff;fill-opacity:1;fill-rule:evenodd;stroke:none"
                 inkscape:connector-curvature="0" />
              <path
                 id="path7707"
                 d="m 109.1322,70.675 -0.019,-0.0957 -0.0542,-0.0811 -0.0811,-0.0542 -0.0957,-0.019 h -0.8 l -0.0957,0.019 -0.0811,0.0542 -0.0542,0.0811 -0.019,0.0957 v 1.25 l 0.019,0.0957 0.0542,0.0811 0.0811,0.0542 0.0957,0.019 h 0.8 l 0.0957,-0.019 0.0811,-0.0542 0.0542,-0.0811 0.019,-0.0957 z"
                 style="fill:#ffffff;fill-opacity:1;fill-rule:evenodd;stroke:none"
                 inkscape:connector-curvature="0" />
              <path
                 id="path7709"
                 d="m 106.0322,70.675 -0.019,-0.0957 -0.0542,-0.0811 -0.0811,-0.0542 -0.0957,-0.019 h -0.8 l -0.0957,0.019 -0.0811,0.0542 -0.0542,0.0811 -0.019,0.0957 v 1.25 l 0.019,0.0957 0.0542,0.0811 0.0811,0.0542 0.0957,0.019 h 0.8 l 0.0957,-0.019 0.0811,-0.0542 0.0542,-0.0811 0.019,-0.0957 z"
                 style="fill:#ffffff;fill-opacity:1;fill-rule:evenodd;stroke:none"
                 inkscape:connector-curvature="0" />
              <path
                 id="path7711"
                 d="m 120.0422,70.83 v -1.6 h -1.6 v 1.6 z"
                 style="fill:#ffffff;fill-opacity:1;fill-rule:evenodd;stroke:none"
                 inkscape:connector-curvature="0" />
              <path
                 id="path7713"
                 d="m 120.0422,73.37 v -1.6 h -1.6 v 1.6 z"
                 style="fill:#ffffff;fill-opacity:1;fill-rule:evenodd;stroke:none"
                 inkscape:connector-curvature="0" />
              <path
                 id="path7715"
                 d="m 112.4222,73.37 v -1.6 h -1.6 v 1.6 z"
                 style="fill:#ffffff;fill-opacity:1;fill-rule:evenodd;stroke:none"
                 inkscape:connector-curvature="0" />
              <path
                 id="path7717"
                 d="m 112.4222,70.83 v -1.6 h -1.6 v 1.6 z"
                 style="fill:#ffffff;fill-opacity:1;fill-rule:evenodd;stroke:none"
                 inkscape:connector-curvature="0" />
              <path
                 id="path7719"
                 d="m 109.1572,74.65 -0.019,-0.0957 -0.0542,-0.0811 -0.0811,-0.0542 -0.0957,-0.019 h -0.825 l -0.0957,0.019 -0.0811,0.0542 -0.0542,0.0811 -0.019,0.0957 v 1.3 l 0.019,0.0957 0.0542,0.0811 0.0811,0.0542 0.0957,0.019 h 0.825 l 0.0957,-0.019 0.0811,-0.0542 0.0542,-0.0811 0.019,-0.0957 z"
                 style="fill:#ffffff;fill-opacity:1;fill-rule:evenodd;stroke:none"
                 inkscape:connector-curvature="0" />
              <path
                 id="path7721"
                 d="m 106.0322,74.65 -0.019,-0.0957 -0.0542,-0.0811 -0.0811,-0.0542 -0.0957,-0.019 h -0.825 l -0.0957,0.019 -0.0811,0.0542 -0.0542,0.0811 -0.019,0.0957 v 1.3 l 0.019,0.0957 0.0542,0.0811 0.0811,0.0542 0.0957,0.019 h 0.825 l 0.0957,-0.019 0.0811,-0.0542 0.0542,-0.0811 0.019,-0.0957 z"
                 style="fill:#ffffff;fill-opacity:1;fill-rule:evenodd;stroke:none"
                 inkscape:connector-curvature="0" />
              <path
                 id="path7723"
                 d="m 123.0572,65.05 -0.0957,0.019 -0.0811,0.0542 -0.0542,0.0811 -0.019,0.0957 v 1.5 l 0.019,0.0957 0.0542,0.0811 0.0811,0.0542 0.0957,0.019 h 1.5 l 0.0957,-0.019 0.0811,-0.0542 0.0542,-0.0811 0.019,-0.0957 v -1.5 l -0.019,-0.0957 -0.0542,-0.0811 -0.0811,-0.0542 -0.0957,-0.019 z"
                 style="fill:#ffffff;fill-opacity:1;fill-rule:evenodd;stroke:none"
                 inkscape:connector-curvature="0" />
            </g>
            <g
               id="g7733"
               style="fill:#ffffff;fill-opacity:1;stroke:none">
              <circle
                 id="circle7727"
                 r="1"
                 cy="70.550003"
                 cx="123.8072" />
              <path
                 id="path7729"
                 d="m 111.3072,63.1 -0.0957,0.019 -0.0811,0.0542 -0.0542,0.0811 -0.019,0.0957 v 0.8 l 0.019,0.0957 0.0542,0.0811 0.0811,0.0542 0.0957,0.019 h 1.25 l 0.0957,-0.019 0.0811,-0.0542 0.0542,-0.0811 0.019,-0.0957 v -0.8 l -0.019,-0.0957 -0.0542,-0.0811 -0.0811,-0.0542 -0.0957,-0.019 z"
                 style="fill:#ffffff;fill-opacity:1;fill-rule:evenodd;stroke:none"
                 inkscape:connector-curvature="0" />
              <path
                 id="path7731"
                 d="m 111.3072,66.2 -0.0957,0.019 -0.0811,0.0542 -0.0542,0.0811 -0.019,0.0957 v 0.8 l 0.019,0.0957 0.0542,0.0811 0.0811,0.0542 0.0957,0.019 h 1.25 l 0.0957,-0.019 0.0811,-0.0542 0.0542,-0.0811 0.019,-0.0957 v -0.8 l -0.019,-0.0957 -0.0542,-0.0811 -0.0811,-0.0542 -0.0957,-0.019 z"
                 style="fill:#ffffff;fill-opacity:1;fill-rule:evenodd;stroke:none"
                 inkscape:connector-curvature="0" />
            </g>
            <g
               id="g7817"
               style="fill:none;stroke:#ffffff;stroke-width:0.60000002;stroke-linecap:round;stroke-linejoin:round;stroke-opacity:1">
              <path
                 id="path7735"
                 d="M 103.4322,73.35 V 73.3"
                 inkscape:connector-curvature="0" />
              <path
                 id="path7737"
                 d="m 101.9822,74.8 1.45,-1.45"
                 inkscape:connector-curvature="0" />
              <path
                 id="path7739"
                 d="m 103.4322,73.3 h 5.05"
                 inkscape:connector-curvature="0" />
              <path
                 id="path7741"
                 d="m 108.4822,73.3 v 1.4875"
                 inkscape:connector-curvature="0" />
              <path
                 id="path7743"
                 d="M 108.4822,74.7875 108.4947,74.8"
                 inkscape:connector-curvature="0" />
              <path
                 id="path7745"
                 d="m 108.4822,70.9 v 0.4"
                 inkscape:connector-curvature="0" />
              <path
                 id="path7747"
                 d="m 108.4822,71.3 v 2"
                 inkscape:connector-curvature="0" />
              <path
                 id="path7749"
                 d="m 105.3822,67.8 3.1,3.1"
                 inkscape:connector-curvature="0" />
              <path
                 id="path7751"
                 d="m 101.9947,71.3 h 3.3875"
                 inkscape:connector-curvature="0" />
              <path
                 id="path7753"
                 d="M 101.9947,69.0285 101.6842,68.718"
                 inkscape:connector-curvature="0" />
              <path
                 id="path7755"
                 d="M 101.9947,71.3 V 69.0285"
                 inkscape:connector-curvature="0" />
              <path
                 id="path7757"
                 d="M 98.9842,71.1855 98.8697,71.3"
                 inkscape:connector-curvature="0" />
              <path
                 id="path7759"
                 d="m 96.1902,68.718 h 2.794"
                 inkscape:connector-curvature="0" />
              <path
                 id="path7761"
                 d="m 98.9842,68.718 v 2.4675"
                 inkscape:connector-curvature="0" />
              <path
                 id="path7763"
                 d="m 93.9322,67.8 h 1.34"
                 inkscape:connector-curvature="0" />
              <path
                 id="path7765"
                 d="m 98.8697,71.3 v 3.4875"
                 inkscape:connector-curvature="0" />
              <path
                 id="path7767"
                 d="m 95.2722,67.8 0.918,0.918"
                 inkscape:connector-curvature="0" />
              <path
                 id="path7769"
                 d="M 98.8697,74.7875 98.8822,74.8"
                 inkscape:connector-curvature="0" />
              <path
                 id="path7771"
                 d="m 111.8822,63.8 0.05,-0.05"
                 inkscape:connector-curvature="0" />
              <path
                 id="path7773"
                 d="m 93.9322,60.816 2.512,-2.512"
                 inkscape:connector-curvature="0" />
              <path
                 id="path7775"
                 d="M 93.9322,60.816 V 62.5"
                 inkscape:connector-curvature="0" />
              <path
                 id="path7777"
                 d="m 108.4822,63.8 h 3.4"
                 inkscape:connector-curvature="0" />
              <path
                 id="path7779"
                 d="m 98.3442,66.178 0.64,0.64"
                 inkscape:connector-curvature="0" />
              <path
                 id="path7781"
                 d="m 96.8102,66.178 h 1.534"
                 inkscape:connector-curvature="0" />
              <path
                 id="path7783"
                 d="m 93.9322,63.3 2.878,2.878"
                 inkscape:connector-curvature="0" />
              <path
                 id="path7785"
                 d="M 108.4822,63.8 V 58.404"
                 inkscape:connector-curvature="0" />
              <path
                 id="path7787"
                 d="m 108.4822,58.404 -0.1,-0.1"
                 inkscape:connector-curvature="0" />
              <path
                 id="path7789"
                 d="m 121.7872,72.57 h -2.545"
                 inkscape:connector-curvature="0" />
              <path
                 id="path7791"
                 d="m 123.8072,70.55 -2.02,2.02"
                 inkscape:connector-curvature="0" />
              <path
                 id="path7793"
                 d="m 121.5072,63.75 2.3,2.3"
                 inkscape:connector-curvature="0" />
              <path
                 id="path7795"
                 d="m 119.4322,63.75 h 2.075"
                 inkscape:connector-curvature="0" />
              <path
                 id="path7797"
                 d="m 119.4322,66.85 v 2.99"
                 inkscape:connector-curvature="0" />
              <path
                 id="path7799"
                 d="m 119.4322,69.84 -0.19,0.19"
                 inkscape:connector-curvature="0" />
              <path
                 id="path7801"
                 d="m 105.3822,63.8 h -3.4"
                 inkscape:connector-curvature="0" />
              <path
                 id="path7803"
                 d="m 102.0582,63.892 v 2.552"
                 inkscape:connector-curvature="0" />
              <path
                 id="path7805"
                 d="m 102.0582,66.444 -0.374,0.374"
                 inkscape:connector-curvature="0" />
              <path
                 id="path7807"
                 d="m 109.3922,67.8 2.23,2.23"
                 inkscape:connector-curvature="0" />
              <path
                 id="path7809"
                 d="m 108.4822,67.8 h 0.91"
                 inkscape:connector-curvature="0" />
              <path
                 id="path7811"
                 d="m 111.9322,66.85 v 2.87"
                 inkscape:connector-curvature="0" />
              <path
                 id="path7813"
                 d="m 111.9322,69.72 -0.31,0.31"
                 inkscape:connector-curvature="0" />
              <path
                 id="path7815"
                 d="m 72.6177,54.5062 -0.0458,0.0528 -0.0112,0.0515 v 27.453 l 0.0197,0.067 0.0528,0.0458 0.0515,0.0112 h 72.411 l 0.067,-0.0197 0.0458,-0.0528 0.0112,-0.0515 V 78.624 h -0.5122 v 0 l -0.0193,0.3574 v 0 l -0.0579,0.3531 v 10e-5 l -0.0958,0.3448 v 0 l -0.1324,0.3325 h -1e-4 l -0.1676,0.3162 v 0 0 l -0.0286,0.0422 -0.1722,0.254 v 0 l -0.225,0.2649 -0.007,0.0079 -0.2599,0.2461 -0.2849,0.2166 -0.3066,0.1845 v 0 h -1e-4 v 0 l -0.2727,0.1262 -0.0521,0.0241 -0.3391,0.1143 -0.3496,0.0769 -0.3558,0.0387 v 0 h -0.3578 v 0 l -0.3558,-0.0387 -0.3496,-0.0769 -0.3391,-0.1143 -0.3249,-0.1503 -0.3066,-0.1845 -0.2849,-0.2166 -0.2599,-0.2461 -0.2317,-0.2728 -0.2008,-0.2962 -0.1677,-0.3162 -0.1324,-0.3325 -0.0958,-0.3448 -0.0579,-0.3532 -0.0193,-0.3574 0.0137,-0.254 H 79.4295 v 0 l -0.0193,0.3574 v 0 l -0.0579,0.3531 v 1e-4 l -0.0958,0.3448 v 0 l -0.1324,0.3325 h -1e-4 l -0.1676,0.3162 v 0 l -0.2008,0.2962 v 0 l -0.2158,0.254 -0.0159,0.0188 -0.2599,0.2461 -0.2849,0.2166 -0.3066,0.1845 v 0 h -1e-4 v 0 l -0.1501,0.0695 -0.1747,0.0808 -0.3391,0.1143 -0.3496,0.0769 -0.3558,0.0387 v 0 h -0.3578 v 0 L 75.5895,81.6318 75.2399,81.5549 74.9008,81.4406 74.5759,81.2903 74.2693,81.1058 73.9844,80.8892 73.7245,80.6431 73.4928,80.3703 73.292,80.0741 73.1243,79.7579 72.9919,79.4254 72.8961,79.0806 72.8382,78.7274 72.8189,78.37 l 0.0193,-0.3574 0.0579,-0.3532 0.0958,-0.3448 0.1324,-0.3325 0.1494,-0.2816 0.0183,-0.0346 v 0 0 l 0.2008,-0.2962 v 0 0 L 73.7245,76.0969 73.8268,76 73.9844,75.8508 v 0 0 l 0.14,-0.1065 0.1449,-0.1101 0.3066,-0.1845 v 0 h 10e-5 v 0 l 0.3248,-0.1503 v 0 0 l 0.1695,-0.0571 0.1696,-0.0572 0.3496,-0.0769 0.3558,-0.0387 v 0 h 0.3578 1e-4 l 0.3557,0.0387 0.3496,0.0769 0.2557,0.0862 0.0834,0.0281 v 0 0 l 0.3248,0.1503 v 0 l 0.1724,0.1037 0.1343,0.0808 0.0883,0.0671 0.1966,0.1495 v 0 l 0.2599,0.2461 0.2317,0.2728 v 0 l 0.2008,0.2962 v 0 l 0.1676,0.3162 h 1e-4 l 0.1324,0.3325 v 0 l 0.0958,0.3448 v 10e-5 l 0.0579,0.3531 v 0 l 0.0193,0.3574 h 58.6811 l 0.006,-0.1034 0.0417,-0.254 0.0162,-0.0991 v 0 -1e-4 l 0.0958,-0.3448 0.1012,-0.254 0.0312,-0.0785 h 1e-4 l 0.1676,-0.3162 v 0 0 l 0.2008,-0.2962 v 0 0 l 0.2317,-0.2728 0.0864,-0.0818 0.1735,-0.1643 v 0 0 l 0.1145,-0.0871 0.1704,-0.1295 0.3066,-0.1845 v 0 h 1e-4 v 0 l 0.3248,-0.1503 v 0 0 l 0.1695,-0.0571 0.1696,-0.0572 0.3496,-0.0769 0.3558,-0.0387 v 0 h 0.3578 v 0 l 0.3558,0.0387 0.3496,0.0769 0.2557,0.0862 0.0834,0.0281 v 0 0 l 0.3248,0.1503 v 0 l 0.2284,0.1374 0.0783,0.0471 0.0883,0.0671 0.1966,0.1495 v 0 l 0.2599,0.2461 0.2317,0.2728 v 0 l 0.2008,0.2962 v 0 l 0.1676,0.3162 h 1e-4 l 0.1324,0.3325 v 0 l 0.0958,0.3448 v 1e-4 l 0.0579,0.3531 v 0 l 0.0193,0.3574 h 0.5122 v -8.1921 h -7.912 v 0.2362 l -0.0369,0.2333 -0.073,0.2246 -0.0717,0.1406 -0.0356,0.0698 -0.1388,0.1911 -0.167,0.167 -0.1911,0.1388 -0.0817,0.0417 -0.1287,0.0656 v 0 0 l -0.0596,0.0193 -0.165,0.0537 -0.2333,0.0369 v 0 h -0.2362 L 135.4558,72.0136 135.4141,72 l -0.1829,-0.0594 -0.2104,-0.1073 -0.1911,-0.1388 -0.167,-0.167 -0.1388,-0.1911 -0.1073,-0.2104 -0.073,-0.2246 -0.009,-0.0561 -0.0281,-0.1772 V 70.55 h -8.9939 v 0 l -0.0205,0.2478 v 0 l -0.061,0.2411 -0.0999,0.2277 -0.136,0.2082 v 0 l -0.1685,0.1829 -0.1962,0.1528 v 0 l -0.1727,0.0935 -0.046,0.0248 -0.2352,0.0808 -0.2453,0.0409 h -0.2486 v 0 l -0.1463,-0.0244 -0.0693,0.0084 -0.0387,0.0262 -1.0196,1.0196 -0.1115,0.1115 v 0 l -0.1283,0.0857 -0.003,0.0019 -0.103,0.0427 -0.0427,0.0176 -0.1477,0.0294 -0.007,0.0014 v 0 0 0 h -1.2068 l -0.0671,0.0197 -0.0457,0.0528 -0.008,0.0271 -8e-4,-2e-4 -0.002,0.0076 -0.0503,0.1348 v 0 l -0.0863,0.1152 v 0 l -0.1152,0.0863 v 0 l -0.1348,0.0503 v 0 l -0.007,7e-4 -0.0527,0.0057 h -1.6958 l -0.0596,-0.0064 -0.1348,-0.0503 -0.1152,-0.0863 -0.0863,-0.1152 -0.0503,-0.1348 -0.006,-0.0596 v -1e-4 h -5.0195 l -0.006,0.0596 v 0 l -0.0502,0.1347 v 0 l -0.0862,0.1151 v 0 l -0.1151,0.0861 v 1e-4 l -0.1347,0.0502 v 0 L 112.47,73.87 v 0 h -0.5978 -0.5 -0.5978 v 0 l -0.0596,-0.0064 v 0 l -0.1347,-0.0502 v -1e-4 l -0.1151,-0.0861 v 0 l -0.0862,-0.1151 v 0 l -0.0502,-0.1347 v 0 l -0.006,-0.0596 v 0 -0.5978 h 1.05 v 1.05 h 0.5 v -1.05 h 1.05 v 0.5978 h 5.0195 v -1.6957 l 0.006,-0.0596 0.0502,-0.1346 1e-4,-2e-4 v 0 l 0.0863,-0.1152 v 0 l 0.0172,-0.0129 4e-4,-3e-4 0.0418,-0.056 0.005,-0.0697 -0.0335,-0.0613 -0.0133,-0.0116 -0.0176,-0.0132 -0.0863,-0.1152 -0.0503,-0.1348 -0.006,-0.0596 v -1.6958 l 0.006,-0.0596 0.005,-0.0127 0.0456,-0.1221 v 0 l 0.0863,-0.1152 v 0 l 0.1152,-0.0863 v 0 l 0.1348,-0.0503 v 0 l 0.0596,-0.0064 v 0 0 0 h 0.1134 l 0.067,-0.0197 0.0458,-0.0528 0.0112,-0.0515 V 68.072 l -0.0197,-0.067 -0.0528,-0.0458 -0.0125,-0.0049 -0.0588,-0.0195 -0.1494,-0.0921 -0.124,-0.124 -0.0921,-0.1494 -0.0552,-0.1665 L 118.057,67.3 v -0.9 0 h -4.749 v 0.9 0 l -0.0105,0.1028 v 0 l -0.0552,0.1665 v 0 l -0.0124,0.0202 -0.0797,0.1292 -0.124,0.124 -0.1494,0.0921 v 0 l -0.0204,0.0068 -0.0384,0.0127 -0.0574,0.0398 -0.0269,0.0645 -7e-4,0.0134 v 0.7032 l 0.0197,0.067 0.0217,0.0233 -6e-4,7e-4 0.006,0.0063 0.0863,0.1152 v 0 l 0.0503,0.1348 0.006,0.0563 4e-4,0.0033 v 0 1.6958 0 l -0.006,0.0596 -0.0503,0.1348 v 0 l -0.0863,0.1152 v 0 l -0.018,0.0135 -0.0419,0.056 -0.005,0.0697 0.0334,0.0613 0.0134,0.0116 0.0177,0.0132 0.0862,0.1151 v 0 l 0.0502,0.1347 v 0 l 0.006,0.0596 V 72.32 h -2.6 v -0.5978 0 l 0.006,-0.0596 v 0 l 0.0502,-0.1347 v 0 l 0.0862,-0.1151 v 0 l 0.0177,-0.0132 0.0419,-0.056 0.005,-0.0696 -0.0334,-0.0614 -0.0134,-0.0115 -0.018,-0.0136 -0.0863,-0.1152 -0.0503,-0.1348 -0.006,-0.0596 v -0.965 l -0.0197,-0.067 -0.0166,-0.0206 -0.7867,-0.7867 -0.0613,-0.0335 -0.0697,0.005 -0.0217,0.0106 -0.1445,0.0891 -0.1665,0.0552 -0.1028,0.0105 h -0.7431 l -0.067,0.0197 -0.0458,0.0528 -0.01,0.0691 0.029,0.0636 0.006,0.0065 0.501,0.501 0.0613,0.0335 0.0263,0.0028 h 0.2421 v 0 l 0.1028,0.0105 v 0 l 0.1665,0.0552 v 0 l 0.1494,0.0921 0.124,0.124 0.0921,0.1494 v 0 l 0.0552,0.1665 v 0 0 l 0.0105,0.1028 v 1.35 0 l -0.0105,0.1028 v 0 l -0.0357,0.1077 -0.0195,0.0588 -0.0921,0.1494 -0.124,0.124 -0.009,0.0057 -0.0467,0.052 -0.0122,0.0536 v 1.3016 l 0.0197,0.0671 0.0392,0.0385 0.0343,0.0211 0.124,0.124 0.0921,0.1494 v 0 l 10e-5,2e-4 0.0551,0.1663 v 0 0 l 0.0105,0.1028 v 1.4 0 l -0.0105,0.1028 v 0 l -0.0241,0.0727 -0.0311,0.0938 -0.0921,0.1494 -0.124,0.124 -0.1494,0.0921 -0.1665,0.0552 -0.1028,0.0105 h -0.925 v 0 0 l -0.0563,-0.0058 -0.0465,-0.0047 -0.1665,-0.0552 -0.1494,-0.0921 -0.124,-0.124 -0.0921,-0.1494 -0.0552,-0.1665 L 107.3317,76 v 0 h -0.7995 l -0.0105,0.1027 -0.0551,0.1664 v 0 l -0.0921,0.1492 -0.124,0.124 -0.1492,0.0921 v 0 l -0.1664,0.0551 v 0 L 105.8322,76.7 h -0.2125 -0.5 -0.2125 v 0 l -0.1027,-0.0105 -0.1664,-0.0551 v 0 l -0.1492,-0.0921 -0.124,-0.124 -0.0921,-0.1492 v 0 l -0.0551,-0.1664 v 0 L 104.2072,76 v 0 -0.45 h 0.9125 v 1.15 h 0.5 v 0 -1.15 h 0.9125 V 76 h 0.7995 v -1.4 l 0.0105,-0.1028 0.0552,-0.1665 0.0253,-0.0411 0.0185,-0.0674 -0.021,-0.0667 -0.0536,-0.0447 -0.0494,-0.0103 h -0.7706 l -0.067,0.0197 -0.0458,0.0528 -0.01,0.0691 0.0172,0.0475 0.0255,0.0413 v 0 l 0.0551,0.1664 v 0 l 0.0105,0.1027 v 0.45 h -2.325 v -0.45 0 l 0.0105,-0.1027 0.0551,-0.1664 v 0 l 0.0255,-0.0413 0.0184,-0.0674 -0.0209,-0.0667 -0.0536,-0.0447 -0.0494,-0.0103 h -0.3277 l -0.067,0.0197 -0.0206,0.0166 -0.6085,0.6085 -0.0335,0.0613 -0.003,0.0263 v 0.6421 0 l -0.0105,0.1028 v 0 l -0.0417,0.1259 -0.0135,0.0406 -0.0921,0.1494 -0.124,0.124 -0.1494,0.0921 -0.1665,0.0552 -0.1028,0.0105 h -0.9 v 0 0 l -0.0563,-0.0058 -0.0465,-0.0047 -0.1665,-0.0552 -0.1494,-0.0921 -0.124,-0.124 -0.0921,-0.1494 -0.0552,-0.1665 -0.0105,-0.1028 v -1.35 l 0.0105,-0.1028 0.0552,-0.1665 0.0921,-0.1494 0.124,-0.124 0.1494,-0.0921 0.1665,-0.0552 v 0 l 0.1028,-0.0105 v 0 h 0.6421 l 0.067,-0.0197 0.0206,-0.0166 0.4404,-0.4404 0.0166,-0.0223 5e-4,4e-4 0.0472,-0.0707 0.0209,-0.0667 -0.0185,-0.0674 -0.0519,-0.0466 -0.069,-0.0112 -0.0235,0.0053 -0.0646,0.0214 -0.1028,0.0105 h -0.925 v 0 0 l -0.0563,-0.0058 -0.0465,-0.0047 -0.1665,-0.0552 -0.1494,-0.0921 -0.124,-0.124 -0.0921,-0.1494 -0.0552,-0.1665 L 100.8317,72 v -1.4 l 0.0105,-0.1028 0.0552,-0.1665 0.0921,-0.1494 0.124,-0.124 0.0218,-0.0134 0.0467,-0.052 0.0122,-0.0536 v -0.2708 l -0.0197,-0.067 -0.0528,-0.0458 -0.0515,-0.0112 h -0.0571 l -0.0668,-0.0061 v 0 0 l -0.1537,-0.0479 -0.1378,-0.0833 -0.1138,-0.1138 -0.0833,-0.1378 -0.005,-0.0163 -0.0387,-0.0582 -0.0641,-0.0279 -0.069,0.011 -0.052,0.0467 -0.013,0.0284 -0.005,0.0163 v 0 0 l -0.0658,0.109 -0.0175,0.0288 -0.1138,0.1138 v 0 0 l -0.1378,0.0833 -0.004,0.0013 -0.0025,0.0017 -3e-4,10e-5 v 1e-4 l -0.0553,0.0368 -0.028,0.064 -0.001,0.0157 v 0.4306 l 0.0197,0.067 0.0166,0.0207 0.0539,0.0538 0.0921,0.1494 v 0 l 0.0552,0.1665 v 0 0 l 0.0105,0.1028 v 1.4 0 l -0.0105,0.1028 v 0 l -0.0552,0.1665 v 0 l -0.0253,0.0411 -0.0668,0.1083 -0.124,0.124 -0.0218,0.0134 -0.0467,0.052 -0.0122,0.0536 v 0.8016 l 0.0197,0.0671 0.0392,0.0385 0.0218,0.0134 0.124,0.124 0.0921,0.1494 v 0 l 0.0048,0.0143 0.0504,0.1522 v 0 0 l 0.0105,0.1028 v 1.35 0 l -0.0105,0.1028 v 0 l -0.0417,0.1259 -0.0135,0.0406 -0.0921,0.1494 -0.124,0.124 -0.1494,0.0921 -0.1665,0.0552 -0.1028,0.0105 h -0.9 v 0 0 l -0.0563,-0.0058 -0.0465,-0.0047 -0.1665,-0.0552 -0.1494,-0.0921 -0.124,-0.124 -0.0921,-0.1494 -0.0552,-0.1665 -0.0105,-0.1028 v -1.35 l 0.0105,-0.1028 0.0552,-0.1665 0.0921,-0.1494 0.124,-0.124 0.0057,-0.0045 -0.0014,-0.0018 0.0392,-0.0437 0.0122,-0.0535 V 72.6617 L 98.0495,72.5946 98.0103,72.5561 97.9885,72.5427 97.8645,72.4187 97.7724,72.2693 97.7172,72.1028 97.7067,72 v -0.5 h -2.2745 v 0.55 h -1.1536 l 0.0496,0.086 0.029,0.108 v 0.112 l -0.029,0.108 -0.0496,0.086 h 1.1536 v 0.55 l -0.0105,0.1027 -0.0551,0.1664 v 0 l -0.0921,0.1492 -0.124,0.124 -0.1492,0.0921 v 0 l -0.1664,0.0551 v 0 L 94.7322,73.8 h -0.55 v 0 -1.1536 l -0.086,0.0496 -0.108,0.029 h -0.112 l -0.108,-0.029 -0.086,-0.0496 V 73.8 h -0.55 v 0 l -0.1027,-0.0105 -0.1664,-0.0551 v 0 l -0.1492,-0.0921 -0.124,-0.124 -0.0921,-0.1492 v 0 l -0.0551,-0.1664 v 0 L 92.4322,73.1 v 0 -0.55 h 1.1536 l -0.0496,-0.086 -0.029,-0.108 v -0.112 l 0.0167,-0.0621 H 83.4327 v 0.2362 l -0.0369,0.2333 -0.073,0.2246 -0.0366,0.0718 -0.0707,0.1386 -0.1388,0.1911 -0.167,0.167 -0.1911,0.1388 -0.0569,0.029 -0.1535,0.0783 v 0 0 l -0.1127,0.0366 -0.1119,0.0364 -0.2333,0.0369 v 0 h -0.2362 l -0.2333,-0.0369 -0.2246,-0.073 -0.2104,-0.1073 -0.1911,-0.1388 -0.167,-0.167 -0.1388,-0.1911 -0.1073,-0.2104 -0.073,-0.2246 -0.0096,-0.0608 -0.0273,-0.1725 v -0.2362 l 0.0369,-0.2333 0.0449,-0.1381 0.0281,-0.0865 v 0 0 l 0.0566,-0.111 0.0507,-0.0994 0.1388,-0.1911 0.167,-0.167 0.1911,-0.1388 0.2104,-0.1073 0.2246,-0.073 0.2333,-0.0369 v 0 h 0.2362 v 0 l 0.2333,0.0369 0.2246,0.073 0.2104,0.1073 0.109,0.0792 0.0821,0.0596 v 0 0 l 0.167,0.167 v 0 0 l 0.0544,0.0748 0.0844,0.1163 0.1073,0.2104 0.073,0.2246 0.0369,0.2333 h 10.0912 l 0.0123,-0.0459 0.0496,-0.086 h -1.1536 v -0.55 0 l 0.0105,-0.1027 0.0551,-0.1664 v 0 l 0.0921,-0.1492 0.124,-0.124 0.1492,-0.0921 v 0 l 0.1664,-0.0551 v 0 L 93.1322,70.8 h 0.55 v 1.1536 l 0.086,-0.0496 0.108,-0.029 h 0.112 l 0.108,0.029 0.086,0.0496 V 70.8 h 0.55 v 0 l 0.1027,0.0105 0.1664,0.0551 v 0 l 0.1492,0.0921 0.124,0.124 0.0921,0.1492 v 0 l 0.0551,0.1664 v 0 L 95.4322,71.5 h 2.2745 v -0.9 l 0.0105,-0.1028 0.0552,-0.1665 0.0921,-0.1494 0.124,-0.124 0.1363,-0.0841 0.0467,-0.0519 0.0122,-0.0536 v -0.2252 l -0.0197,-0.067 -0.0528,-0.0458 -0.0515,-0.0112 h -1.9483 v 0 l -0.1547,-0.0308 -0.1457,-0.0603 -0.1311,-0.0876 -0.4947,-0.4948 -0.0614,-0.0334 -0.0696,0.0049 -0.0479,0.0322 -0.0544,0.059 -0.1962,0.1528 -0.0363,0.0196 -0.1762,0.0954 -0.0062,0.0033 -0.2352,0.0808 -0.2453,0.0409 H 93.8079 L 93.5626,69.2596 93.3274,69.1788 93.1087,69.0605 92.9125,68.9077 92.744,68.7248 92.608,68.5166 92.5081,68.2889 92.4471,68.0478 92.4456,68.0298 92.4266,67.8 v 0 l 0.0097,-0.1181 h -9.0036 v 0.2362 l -0.0369,0.2333 -0.073,0.2246 -0.0717,0.1406 -0.0356,0.0698 -0.1388,0.1911 -0.167,0.167 -0.1911,0.1388 -0.0994,0.0507 -0.111,0.0566 v 0 0 l -0.0654,0.0212 -0.1592,0.0518 -0.2333,0.0369 v 0 h -0.2362 l -0.2333,-0.0369 -0.0479,-0.0156 -0.1767,-0.0574 -0.2104,-0.1073 -0.1911,-0.1388 -0.167,-0.167 -0.1388,-0.1911 -0.1073,-0.2104 -0.073,-0.2246 -0.0159,-0.1006 -0.021,-0.1327 v -0.2362 l 0.0369,-0.2333 0.0384,-0.1179 0.0346,-0.1067 v 0 0 l 0.0717,-0.1406 0.0356,-0.0698 0.1388,-0.1911 0.167,-0.167 0.1911,-0.1388 0.0519,-0.0265 0.1585,-0.0808 0.2246,-0.073 0.2333,-0.0369 v 0 h 0.2362 v 0 l 0.2333,0.0369 0.2246,0.073 0.2104,0.1073 0.109,0.0792 0.0821,0.0596 v 0 0 l 0.167,0.167 v 0 0 l 0.0472,0.0649 0.0916,0.1262 0.1073,0.2104 0.073,0.2246 0.0369,0.2333 h 9.0036 l 0.0108,-0.1297 v 0 l 0.061,-0.2411 0.0999,-0.2277 0.136,-0.2082 0.0486,-0.0527 0.1199,-0.1302 0.1962,-0.1528 v 0 0 l 0.2187,-0.1183 v 0 l 0.2352,-0.0808 0.2453,-0.0409 h 0.2486 l 0.2453,0.0409 0.2352,0.0808 v 0 l 0.2187,0.1183 0.1962,0.1528 0.1685,0.1829 0.0445,0.0681 0.0531,0.0454 0.0507,0.0108 h 0.0823 l 0.1547,0.0308 v 0 l 0.1457,0.0603 v 0 l 0.1311,0.0876 v 0 l 0.703,0.703 0.0613,0.0335 0.0263,0.0028 h 1.5936 l 0.0369,-0.0056 0.0427,-0.0133 v 0 l 0.0267,-0.0025 0.0401,-0.0036 v 0 h 1.3422 l 0.0668,0.0061 v 0 l 0.1537,0.0479 0.1378,0.0833 0.1138,0.1138 v 0 l 0.0795,0.1315 0.004,0.0063 0.005,0.0163 0.0388,0.0582 0.064,0.0279 0.069,-0.011 0.052,-0.0467 0.013,-0.0284 0.005,-0.0163 v 0 l 7e-4,-0.0023 0.001,-0.0699 -0.001,-0.0039 -0.0481,-0.1545 v 0 l -0.003,-0.0328 h 0.2324 l 0.0642,-0.0179 0.0887,-0.0536 v 0 l 0.1537,-0.0479 v 0 0 l 0.0468,-0.0043 0.02,-0.0018 v 0 h 1.3422 l 0.0668,0.0061 v 0 l 0.1537,0.0479 0.0887,0.0536 0.0642,0.0179 h 0.2324 l -0.003,0.0328 v 0 l -0.0481,0.1545 -10e-4,0.0698 10e-4,0.0039 0.0486,0.1561 0.006,0.0668 v 0.4322 l -0.006,0.0668 v 0 l -0.0479,0.1537 v 0 0 l -0.0658,0.109 -0.0175,0.0288 -0.005,0.0059 0.002,0.0018 -0.0271,0.0495 -0.003,0.0264 v 0.5623 l 0.0197,0.0671 0.0392,0.0385 0.0218,0.0134 0.124,0.124 0.0921,0.1494 v 0 l 0.0278,0.0838 0.0398,0.0574 0.0645,0.0269 0.0134,7e-4 h 0.9227 l 0.067,-0.0197 0.0458,-0.0528 0.005,-0.0125 v 0 l 0.0195,-0.0588 0.0921,-0.1494 0.124,-0.124 0.1212,-0.0748 0.0282,-0.0173 v 0 l 0.0488,-0.0162 0.1177,-0.039 v 0 l 0.1028,-0.0105 h 0.9 v 0 l 0.1028,0.0105 v 0 l 0.1085,0.0359 0.058,0.0193 v 0 l 0.007,0.0023 6e-4,-0.002 0.0591,0.009 0.0637,-0.0286 0.0383,-0.0584 5e-4,-0.0699 -0.0316,-0.0537 -0.5771,-0.5771 -0.0613,-0.0335 -0.0263,-0.0028 h -0.6421 v 0 l -0.1028,-0.0105 -0.1665,-0.0552 -0.1494,-0.0921 -0.124,-0.124 -0.0921,-0.1494 -0.0552,-0.1665 -0.0105,-0.1028 v -1.35 l 0.004,-0.0344 0.007,-0.0684 v 0 l 0.0153,-0.0462 0.0399,-0.1203 0.0921,-0.1494 0.124,-0.124 0.1494,-0.0921 0.1665,-0.0552 v 0 l 0.1028,-0.0105 h 0.9 v 0 l 0.1028,0.0105 v 0 l 0.1665,0.0552 v 0 l 0.1494,0.0921 0.124,0.124 0.0921,0.1494 v 0 l 0.0105,0.0317 0.0447,0.1348 v 0 0 l 0.0105,0.1028 v 0.6421 l 0.0197,0.067 0.0166,0.0206 0.551,0.551 0.0613,0.0335 0.0697,-0.005 0.056,-0.0418 0.0244,-0.0655 3e-4,-0.0088 V 67.125 l 0.004,-0.0344 0.007,-0.0684 v 0 l 0.0153,-0.0462 0.0399,-0.1203 0.0921,-0.1494 0.124,-0.124 0.1494,-0.0921 0.1665,-0.0552 v 0 l 0.1028,-0.0105 h 0.9 v 0 l 0.1028,0.0105 v 0 l 0.1665,0.0552 v 0 l 0.1494,0.0921 0.124,0.124 0.0921,0.1494 v 0 l 0.0399,0.1203 0.0398,0.0575 0.0304,0.0181 0.0943,0.039 v 0 l 0.1311,0.0876 v 0 l 0.5129,0.5129 0.0613,0.0335 0.0697,-0.005 0.0559,-0.0419 0.0244,-0.0654 -0.006,-0.0479 -0.0536,-0.1616 -0.0105,-0.1028 v -0.9 l 0.0105,-0.1028 0.0552,-0.1665 0.0921,-0.1494 0.124,-0.124 0.1494,-0.0921 0.1665,-0.0552 v 0 l 0.1028,-0.0105 h 1.35 v 0 L 112.71,65.71 v 0 l 0.1665,0.0552 v 0 l 0.1494,0.0921 0.124,0.124 0.0921,0.1494 v 0 l 0.0279,0.084 0.0273,0.0825 v 0 0 l 0.0105,0.1028 h 4.749 l 0.0105,-0.1028 0.0552,-0.1665 0.0921,-0.1494 0.124,-0.124 0.1494,-0.0921 0.1665,-0.0552 v 0 l 0.1028,-0.0105 h 1.35 v 0 L 120.21,65.71 v 0 l 0.1665,0.0552 v 0 l 0.1494,0.0921 0.124,0.124 0.0921,0.1494 v 0 l 0.0279,0.084 0.0273,0.0825 v 0 0 l 0.0105,0.1028 v 0.9 0 l -0.0105,0.1028 v 0 l -0.0552,0.1665 v 0 l -0.0124,0.0202 -0.0797,0.1292 -0.124,0.124 -0.1494,0.0921 v 0 l -0.0204,0.0068 -0.0384,0.0127 -0.0574,0.0398 -0.0269,0.0645 -7e-4,0.0134 v 0.6133 l 0.0197,0.0671 0.03,0.0322 0.1173,0.0879 0.0863,0.1152 v 0 l 0.0503,0.1348 0.006,0.0563 4e-4,0.0033 v 0 1.6958 0 l -0.006,0.0596 -0.0503,0.1348 v 0 l -0.0863,0.1152 v 0 0 l -0.0176,0.0132 v 0 l -0.0418,0.056 -0.005,0.0697 0.0335,0.0613 0.0133,0.0116 0.0176,0.0132 0.0863,0.1152 v 0 l 0.0503,0.1348 0.002,0.0076 0.002,-6e-4 0.0223,0.0538 0.0574,0.0399 0.0392,0.0063 h 0.7451 l 0.067,-0.0197 0.0206,-0.0166 0.8016,-0.8016 0.0335,-0.0613 -9e-4,-0.0568 -0.004,-0.0157 v 0 L 122.3016,70.55 v 0 l 0.0205,-0.2478 v 0 l 0.061,-0.2411 0.0999,-0.2277 0.136,-0.2082 0.0808,-0.0878 0.0877,-0.0951 0.1962,-0.1528 v 0 0 l 0.2187,-0.1183 v 0 l 0.2352,-0.0808 0.2453,-0.0409 h 0.2486 l 0.2453,0.0409 0.2352,0.0808 v 0 l 0.2187,0.1183 0.1962,0.1528 0.1685,0.1829 0.136,0.2082 0.0999,0.2277 0.061,0.2411 v 0 l 0.0205,0.2478 h 8.9939 v -0.1181 l 0.0369,-0.2333 0.0648,-0.1991 0.008,-0.0255 v 0 0 l 0.0758,-0.1487 0.0315,-0.0617 0.1388,-0.1911 0.167,-0.167 0.1911,-0.1388 0.0366,-0.0187 0.1738,-0.0886 0.2246,-0.073 0.2333,-0.0369 v 0 h 0.2362 v 0 l 0.2333,0.0369 0.2246,0.073 0.2104,0.1073 0.1007,0.0731 0.0904,0.0657 v 0 0 l 0.167,0.167 v 0 0 l 0.0509,0.07 0.0879,0.1211 0.1073,0.2104 0.073,0.2246 0.0369,0.2333 h 7.912 v -4.5 h -7.912 v 0.2362 l -0.0369,0.2333 -0.073,0.2246 -0.0338,0.0663 -0.0735,0.1441 -0.1388,0.1911 -0.167,0.167 -0.1911,0.1388 -0.0994,0.0507 -0.111,0.0566 v 0 0 l -0.1204,0.0391 -0.1042,0.0339 -0.2333,0.0369 v 0 h -0.2362 l -0.2333,-0.0369 -0.0225,-0.0074 -0.2021,-0.0656 -0.2104,-0.1073 -0.1911,-0.1388 -0.167,-0.167 -0.1388,-0.1911 -0.1073,-0.2104 -0.073,-0.2246 -0.01,-0.061 -0.0273,-0.1723 v -0.2362 l 0.0369,-0.2333 0.073,-0.2246 0.0702,-0.1377 0.0371,-0.0727 0.01,-0.0136 h -9.226 v 1.6 0 l -0.0105,0.1028 v 0 l -0.0552,0.1665 v 0 l -0.0202,0.0329 -0.0719,0.1165 -0.124,0.124 -0.1494,0.0921 -0.1665,0.0552 -0.1028,0.0105 h -1.6 l -0.1028,-0.0105 -0.1665,-0.0552 -0.1494,-0.0921 -0.124,-0.124 -0.0921,-0.1494 -0.0552,-0.1665 -0.0105,-0.1028 v -1.1171 l -0.0197,-0.067 -0.0166,-0.0206 -1.0585,-1.0585 -0.0613,-0.0335 -0.0263,-0.0028 h -0.3631 l -0.0671,0.0197 -0.0385,0.0392 -0.004,0.0058 -0.002,0.0035 -0.124,0.124 -0.1494,0.0921 -0.1665,0.0552 -0.1028,0.0105 h -1.35 l -0.1028,-0.0105 -0.1665,-0.0552 -0.1494,-0.0921 -0.124,-0.124 -0.0921,-0.1494 -0.0552,-0.1665 L 118.056,64.2 v -0.9 0 h -4.749 v 0.9 0 l -0.0105,0.1028 v 0 l -0.0552,0.1665 v 0 l -0.004,0.0057 -0.0886,0.1437 -0.124,0.124 -0.1494,0.0921 -0.1665,0.0552 -0.1028,0.0105 h -1.35 l -0.1028,-0.0105 -0.1665,-0.0552 -0.1494,-0.0921 -0.1059,-0.1059 -0.0613,-0.0335 -0.0263,-0.0028 h -0.9408 l -0.067,0.0197 -0.0458,0.0528 -0.005,0.0125 -0.0189,0.0572 -6e-4,0.0016 v 0 l -0.009,0.0153 -0.0827,0.1341 -0.124,0.124 -0.1494,0.0921 -0.1665,0.0552 -0.1028,0.0105 h -0.9 v 0 0 l -0.0797,-0.0081 -0.0231,-0.0024 -0.1665,-0.0552 -0.1494,-0.0921 -0.124,-0.124 -0.0921,-0.1494 -0.0552,-0.1665 -0.0105,-0.1028 v -1.35 0 h -0.799 v 1.35 0 l -0.0105,0.1028 v 0 l -0.0552,0.1665 v 0 l -0.009,0.0153 -0.0827,0.1341 -0.124,0.124 -0.1494,0.0921 -0.1665,0.0552 -0.1028,0.0105 h -0.9 v 0 0 l -0.0797,-0.0081 -0.0231,-0.0024 -0.1665,-0.0552 -0.1494,-0.0921 -0.124,-0.124 -0.0921,-0.1494 -0.0195,-0.0588 -0.0398,-0.0574 -0.0645,-0.0269 -0.0134,-7e-4 h -0.8495 l -0.067,0.0197 -0.0458,0.0528 -0.005,0.0125 -0.05,0.1508 -0.0921,0.1494 -0.124,0.124 -0.009,0.0057 -0.0467,0.052 -0.0122,0.0536 v 1.0398 l 0.0179,0.0641 0.0341,0.0565 v 0 0 l 0.0167,0.0536 0.0312,0.1001 0.006,0.0668 v 0.4322 l -0.006,0.0668 v 0 l -0.0486,0.1561 -0.001,0.0698 0.001,0.0039 0.0481,0.1545 v 0 l 0.003,0.0328 v 0 h -0.2324 l -0.0642,0.0179 -0.0887,0.0536 -0.1537,0.0479 -0.0668,0.0061 h -1.3422 v 0 l -0.0668,-0.0061 v 0 0 l -0.1537,-0.0479 -0.0887,-0.0536 -0.0642,-0.0179 h -0.2324 v 0 l 0.003,-0.0328 v 0 l 0.0481,-0.1545 0.001,-0.0698 -0.001,-0.0039 -7e-4,-0.0024 v 0 l -0.005,-0.0163 -0.0387,-0.0582 -0.0641,-0.0279 -0.069,0.011 -0.052,0.0467 -0.013,0.0284 -0.005,0.0163 v 0 0 l -0.0476,0.0787 -0.0357,0.0591 -0.1138,0.1138 v 0 0 l -0.1378,0.0833 -0.1537,0.0479 -0.0668,0.0061 H 98.313 v 0 l -0.0668,-0.0061 v 0 0 l -0.1537,-0.0479 -0.1378,-0.0833 -0.1138,-0.1138 -0.0833,-0.1378 -0.0479,-0.1537 -9e-4,-0.0096 -0.0257,-0.065 -0.0567,-0.0408 -0.0411,-0.007 h -0.854 v 0 l -0.1547,-0.0308 -0.1457,-0.0603 -0.1311,-0.0876 -1.9891,-1.9891 -0.0613,-0.0335 -0.0467,-0.0011 -0.1463,0.0244 v 0 h -0.2486 l -0.2453,-0.0409 -0.2352,-0.0808 -0.2187,-0.1183 -0.1962,-0.1528 -0.1685,-0.1829 -0.136,-0.2082 -0.0999,-0.2277 -0.061,-0.2411 v 0 L 92.4266,63.3 v 0 l 0.0097,-0.1181 h -9.0036 v 0.2362 l -0.0369,0.2333 -0.073,0.2246 -0.0717,0.1406 -0.0356,0.0698 -0.1388,0.1911 -0.167,0.167 -0.1911,0.1388 -0.0994,0.0507 -0.111,0.0566 v 0 0 l -0.0515,0.0167 -0.1731,0.0563 -0.2333,0.0369 v 0 h -0.2362 l -0.2333,-0.0369 -0.0122,-0.004 -0.2124,-0.069 -0.2104,-0.1073 -0.1911,-0.1388 -0.167,-0.167 -0.1388,-0.1911 -0.1073,-0.2104 -0.073,-0.2246 -0.0139,-0.0879 -0.023,-0.1454 v -0.2362 l 0.0369,-0.2333 0.0489,-0.1503 0.0241,-0.0743 v 0 0 l 0.0581,-0.114 0.0492,-0.0964 0.1388,-0.1911 0.167,-0.167 0.1911,-0.1388 0.0388,-0.0198 0.1716,-0.0875 0.2246,-0.073 0.2333,-0.0369 v 0 h 0.2362 v 0 l 0.2333,0.0369 0.2246,0.073 0.2104,0.1073 0.109,0.0792 0.0821,0.0596 v 0 0 l 0.167,0.167 v 0 0 l 0.0596,0.0821 0.0792,0.109 0.1073,0.2104 0.073,0.2246 0.0369,0.2333 h 9.0036 l 0.0108,-0.1297 v 0 l 0.061,-0.2411 0.0999,-0.2277 0.136,-0.2082 0.0486,-0.0527 0.1199,-0.1302 0.1714,-0.1335 0.0408,-0.0567 0.007,-0.0411 v -1.2238 0 l 0.0074,-0.0373 0.0234,-0.1174 v 0 l 0.0581,-0.1403 0.0022,-0.0054 0.0876,-0.1311 0.1115,-0.1115 1.0972,-1.0971 0.0334,-0.0614 L 94.5476,58.966 94.5438,58.957 94.5175,58.9006 94.4937,58.812 H 79.4295 l -0.0154,0.2851 -0.0039,0.0723 v 0 l -0.0579,0.3531 v 10e-5 l -0.0958,0.3448 v 0 l -0.1324,0.3325 h -1e-4 l -0.1676,0.3162 v 0 0 l -0.1499,0.2211 -0.0509,0.0751 v 0 l -0.2317,0.2728 v 0 l -0.2599,0.2461 -0.2849,0.2166 -0.3066,0.1845 v 0 h -1e-4 v 0 l -0.225,0.1041 -0.0998,0.0462 -0.3391,0.1143 -0.3496,0.0769 -0.3558,0.0387 v 0 h -0.3578 v 0 l -0.3558,-0.0387 -0.3496,-0.0769 -0.3391,-0.1143 -0.3249,-0.1503 -0.3066,-0.1845 -0.2849,-0.2166 -0.2599,-0.2461 -0.2317,-0.2728 -0.2008,-0.2962 -0.1677,-0.3162 -0.1324,-0.3325 -0.0958,-0.3448 -0.0579,-0.3532 -0.0193,-0.3574 0.0193,-0.3574 0.0579,-0.3532 0.0958,-0.3448 0.1324,-0.3325 0.0741,-0.1396 0.0936,-0.1766 v 0 0 l 0.2008,-0.2962 v 0 0 l 0.2317,-0.2728 0.2599,-0.2461 v 0 0 l 0.0676,-0.0514 0.2173,-0.1652 0.3066,-0.1845 v 0 h 10e-5 v 0 l 0.3248,-0.1503 v 0 0 l 0.1695,-0.0571 0.1696,-0.0572 0.3496,-0.0769 0.3558,-0.0387 v 0 h 0.3578 1e-4 l 0.3557,0.0387 0.3496,0.0769 0.2557,0.0862 0.0834,0.0281 v 0 0 l 0.3248,0.1503 v 0 l 0.2284,0.1374 0.0783,0.0471 0.0883,0.0671 0.1966,0.1495 v 0 l 0.2599,0.2461 0.2317,0.2728 v 0 l 0.2008,0.2962 v 0 l 0.1676,0.3162 h 1e-4 l 0.1324,0.3325 v 0 l 0.0958,0.3448 v 1e-4 l 0.0579,0.3531 v 0 0 l 0.0193,0.3574 h 15.0642 l -0.0351,-0.1312 -0.0149,-0.1699 v -0.4138 l 0.0149,-0.1699 0.0589,-0.2198 0.0961,-0.2062 0.1305,-0.1864 0.1609,-0.1609 0.1864,-0.1305 v 0 0 l 0.1031,-0.0481 0.1031,-0.048 v 0 0 l 0.2198,-0.0589 0.1699,-0.0149 v 0 h 1.5138 v 0 l 0.1359,0.0119 0.034,0.003 v 0 l 0.2198,0.0589 v 0 l 0.2062,0.0961 0.1243,0.0871 0.0621,0.0434 v 0 0 l 0.1609,0.1609 0.1305,0.1864 0.0961,0.2062 v 0 l 0.0589,0.2198 v 0 l 0.0149,0.1699 v 0.4138 l -0.0149,0.1699 v 0 l -0.0589,0.2198 v 0 0 l -0.0263,0.0564 -0.0698,0.1498 v 0 l -0.1305,0.1864 -0.1609,0.1609 -0.1864,0.1305 -0.2062,0.0961 -0.2198,0.0589 -0.1699,0.0149 v 0 0 h -1.024 l -0.067,0.0197 -0.0206,0.0166 -1.3205,1.3205 -0.0335,0.0613 -0.0028,0.0263 v 0.7621 l 0.0197,0.067 0.0281,0.0308 0.1242,0.0967 0.0472,0.0368 0.1685,0.1829 0.136,0.2082 0.0999,0.2277 0.061,0.2411 v 0 L 95.4378,63.3 v 0 l -0.0205,0.2478 v 0 l -0.004,0.0157 0.0027,0.0698 0.0299,0.0483 1.6596,1.6596 0.0613,0.0335 0.0263,0.0028 h 0.8943 l 0.0671,-0.0197 0.0457,-0.0528 0.0099,-0.0691 -0.029,-0.0636 -0.0286,-0.0243 -0.0626,-0.0387 -0.124,-0.124 -0.0921,-0.1492 v 0 l -0.0551,-0.1664 v 0 L 97.8082,64.567 v 0 -0.425 h 0.9 v 1.125 l -0.0079,0.0079 -0.0335,0.0614 0.005,0.0696 0.0418,0.056 0.0055,0.0038 0.1354,0.0905 v 0 l 0.4,0.4 0.0613,0.0335 0.0263,0.0028 h 0.3132 l 0.0668,0.0061 v 0 l 0.1537,0.0479 0.1378,0.0833 0.1138,0.1138 0.0833,0.1378 0.005,0.0163 0.0388,0.0582 0.064,0.0279 0.069,-0.011 0.052,-0.0467 0.013,-0.0284 0.002,-0.0064 0.003,-0.0099 0.0833,-0.1378 v 0 0 l 0.1138,-0.1138 0.1378,-0.0833 v 0 l 0.1537,-0.0479 v 0 0 l 0.0468,-0.0043 0.02,-0.0018 v 0 h 0.1206 l 0.067,-0.0197 0.0458,-0.0528 0.0112,-0.0515 V 65.221 l -0.0197,-0.0671 -0.0392,-0.0385 -0.009,-0.0057 -0.124,-0.124 -0.0921,-0.1494 -0.0552,-0.1665 -0.0105,-0.1028 v 0 h -0.7995 l -0.0105,0.1027 -0.0551,0.1664 v 0 l -0.0921,0.1492 -0.124,0.124 -0.1492,0.0921 v 0 l -0.1664,0.0551 v 0 l -0.1027,0.0105 h -0.2 v 0 -1.125 h 0.9 v 0.425 h 0.7995 v -1.35 h -0.7995 v 0.425 h -0.9 -0.5 -0.9 v -0.425 0 l 0.0105,-0.1027 0.0551,-0.1664 v 0 l 0.0921,-0.1492 0.124,-0.124 0.1492,-0.0921 v 0 l 0.1664,-0.0551 v 0 l 0.1027,-0.0105 h 0.2 v 1.125 h 0.5 v -1.125 h 0.2 v 0 l 0.1027,0.0105 0.1664,0.0551 v 0 l 0.1492,0.0921 0.124,0.124 0.0921,0.1492 v 0 l 0.0551,0.1664 v 0 l 0.0105,0.1027 h 0.7995 v 0 l 0.0105,-0.1028 0.0552,-0.1665 0.0921,-0.1494 0.124,-0.124 0.1492,-0.092 2e-4,-10e-5 v 0 l 0.0169,-0.0056 0.1496,-0.0496 v 0 l 0.1028,-0.0105 h 0.9 v 0 l 0.1028,0.0105 v 0 l 0.1665,0.0552 v 0 l 0.1494,0.0921 0.124,0.124 0.0878,0.1423 0.0519,0.0467 0.0536,0.0122 h 0.916 l 0.067,-0.0197 0.0458,-0.0528 0.005,-0.0125 0.008,-0.0239 0.0116,-0.0349 0.0921,-0.1494 0.124,-0.124 0.1494,-0.0921 0.1665,-0.0552 v 0 l 0.1028,-0.0105 h 0.9 v 0 l 0.1028,0.0105 v 0 l 0.1665,0.0552 v 0 l 0.1494,0.0921 0.124,0.124 0.0921,0.1494 v 0 l 0.0195,0.0588 0.0357,0.1077 v 0 0 l 0.0105,0.1028 h 0.799 l 0.0105,-0.1028 0.0552,-0.1665 0.0921,-0.1494 0.124,-0.124 v 0 l 0.009,-0.0057 0.0467,-0.052 0.0122,-0.0536 v -2.5979 l -0.0197,-0.0671 -0.0528,-0.0457 -0.0407,-0.0108 -0.1131,-0.0099 -0.2198,-0.0589 -0.2062,-0.0961 -0.1864,-0.1305 -0.1609,-0.1609 -0.1305,-0.1864 -0.0961,-0.2062 -0.0589,-0.2198 -0.0149,-0.1699 v -0.4138 l 0.0149,-0.1699 0.0589,-0.2198 0.0961,-0.2062 0.1305,-0.1864 0.1609,-0.1609 0.1864,-0.1305 v 0 0 l 0.1031,-0.0481 0.1031,-0.048 v 0 0 l 0.2198,-0.0589 0.1699,-0.0149 v 0 h 1.5138 v 0 l 0.1359,0.0119 0.034,0.003 v 0 l 0.2198,0.0589 v 0 l 0.2062,0.0961 0.1243,0.0871 0.0621,0.0434 v 0 0 l 0.1609,0.1609 0.1305,0.1864 0.0961,0.2062 v 0 l 0.0589,0.2198 v 0 l 0.0149,0.1699 v 0.4138 l -0.0149,0.1699 v 0 l -0.0589,0.2198 v 0 0 l -0.0263,0.0564 -0.0698,0.1498 v 0 l -0.1305,0.1864 -0.1609,0.1609 -0.1864,0.1305 -0.2062,0.0961 -0.1542,0.0413 -0.0597,0.0364 -0.0305,0.0629 -0.002,0.0205 v 2.6292 l 0.0197,0.0671 0.0392,0.0385 0.009,0.0057 0.124,0.124 0.0921,0.1494 v 0 l 0.0195,0.0588 0.0398,0.0574 0.0645,0.0269 0.0134,7e-4 h 0.8682 l 0.067,-0.0197 0.0385,-0.0392 0.0366,-0.0593 0.124,-0.124 0.134,-0.0826 0.0154,-0.0095 v 0 l 10e-4,-5e-4 0.1651,-0.0547 v 0 l 0.1028,-0.0105 h 1.35 v 0 L 112.71,62.61 v 0 l 0.1665,0.0552 v 0 l 0.1494,0.0921 0.124,0.124 0.0921,0.1494 v 0 l 0.0277,0.0835 0.0275,0.083 v 0 0 l 0.0105,0.1028 h 4.749 l 0.008,-0.083 0.002,-0.0198 v 0 l 0.0229,-0.069 0.0323,-0.0975 0.0921,-0.1494 0.124,-0.124 0.134,-0.0826 0.0154,-0.0095 v 0 l 0.001,-5e-4 0.1651,-0.0547 v 0 l 0.1028,-0.0105 h 1.35 v 0 L 120.21,62.61 v 0 l 0.1665,0.0552 v 0 l 0.1494,0.0921 0.124,0.124 0.006,0.0093 0.052,0.0467 0.0536,0.0122 h 0.8248 l 0.1547,0.0308 v 0 l 0.1457,0.0603 v 0 l 0.1215,0.0812 0.01,0.0064 1.385,1.385 0.0613,0.0335 0.0263,0.0028 h 1.1171 v 0 L 124.71,64.56 v 0 l 0.1665,0.0552 v 0 l 0.1494,0.0921 0.124,0.124 0.0921,0.1494 v 0 l 0.002,0.005 0.0535,0.1615 v 0 0 l 0.0105,0.1028 h 9.226 l 0.129,-0.1775 0.167,-0.167 0.1911,-0.1388 0.0438,-0.0224 0.1666,-0.0849 0.2246,-0.073 0.2333,-0.0369 v 0 h 0.2362 v 0 l 0.2333,0.0369 0.2246,0.073 0.2104,0.1073 0.0466,0.0338 0.1445,0.105 v 0 0 l 0.167,0.167 v 0 0 l 0.0312,0.0429 0.1076,0.1482 0.1073,0.2104 0.073,0.2246 0.0369,0.2333 h 7.912 V 58.812 h -0.5122 l -0.0154,0.2851 -0.004,0.0723 v 0 l -0.0579,0.3531 v 10e-5 l -0.0958,0.3448 v 0 l -0.1324,0.3325 h -1e-4 l -0.1676,0.3162 v 0 0 l -0.1499,0.2211 -0.0509,0.0751 v 0 l -0.2317,0.2728 v 0 l -0.2599,0.2461 -0.2849,0.2166 -0.3066,0.1845 v 0 h -1e-4 v 0 l -0.225,0.1041 -0.0998,0.0462 -0.3391,0.1143 -0.3496,0.0769 -0.3558,0.0387 v 0 h -0.3578 v 0 l -0.3558,-0.0387 -0.3496,-0.0769 -0.3391,-0.1143 -0.3249,-0.1503 -0.3066,-0.1845 -0.2849,-0.2166 -0.2599,-0.2461 -0.2317,-0.2728 -0.2008,-0.2962 -0.1677,-0.3162 -0.1324,-0.3325 -0.0958,-0.3448 -0.0579,-0.3532 -0.0193,-0.3574 0.0193,-0.3574 0.0579,-0.3532 0.0958,-0.3448 0.1324,-0.3325 0.0741,-0.1396 0.0936,-0.1766 v 0 0 l 0.2008,-0.2962 v 0 0 l 0.2317,-0.2728 0.2599,-0.2461 v 0 0 l 0.0676,-0.0514 0.2173,-0.1652 0.3066,-0.1845 v 0 h 1e-4 v 0 l 0.3248,-0.1503 v 0 0 l 0.1695,-0.0571 0.1696,-0.0572 0.3496,-0.0769 0.3558,-0.0387 v 0 h 0.3578 v 0 l 0.3558,0.0387 0.3496,0.0769 0.2557,0.0862 0.0834,0.0281 v 0 0 l 0.3248,0.1503 v 0 l 0.2284,0.1374 0.0783,0.0471 0.0883,0.0671 0.1966,0.1495 v 0 l 0.2599,0.2461 0.2317,0.2728 v 0 l 0.2008,0.2962 v 0 l 0.1676,0.3162 h 1e-4 l 0.1324,0.3325 v 0 l 0.0958,0.3448 v 1e-4 l 0.0579,0.3531 v 0 0 l 0.0193,0.3574 h 0.5122 v -4.2015 l -0.0197,-0.067 -0.0528,-0.0458 -0.0515,-0.0112 h -72.411 z"
                 style="fill:#ffffff;fill-opacity:1;fill-rule:evenodd;stroke:none"
                 inkscape:connector-curvature="0" />
            </g>
            <g
               id="g7821"
               style="fill:#000000;fill-opacity:1;stroke:none">
              <circle
                 id="circle7819"
                 r="1.6"
                 cy="58.812"
                 cx="141.40221" />
            </g>
            <g
               id="g7825"
               style="fill:#000000;fill-opacity:1;stroke:none">
              <circle
                 id="circle7823"
                 r="1.6"
                 cy="78.624001"
                 cx="141.40221" />
            </g>
            <g
               id="g7829"
               style="fill:#000000;fill-opacity:1;stroke:none">
              <circle
                 id="circle7827"
                 r="1.25"
                 cy="72.300003"
                 cx="81.932198" />
            </g>
            <g
               id="g7833"
               style="fill:#000000;fill-opacity:1;stroke:none">
              <circle
                 id="circle7831"
                 r="1.25"
                 cy="67.800003"
                 cx="81.932198" />
            </g>
            <g
               id="g7837"
               style="fill:#000000;fill-opacity:1;stroke:none">
              <circle
                 id="circle7835"
                 r="1.25"
                 cy="63.299999"
                 cx="81.932198" />
            </g>
            <g
               id="g7841"
               style="fill:#000000;fill-opacity:1;stroke:none">
              <circle
                 id="circle7839"
                 r="0.42500001"
                 cy="72.300003"
                 cx="93.932198" />
            </g>
            <g
               id="g7845"
               style="fill:#000000;fill-opacity:1;stroke:none">
              <circle
                 id="circle7843"
                 r="0.42500001"
                 cy="67.800003"
                 cx="93.932198" />
            </g>
            <g
               id="g7849"
               style="fill:#000000;fill-opacity:1;stroke:none">
              <circle
                 id="circle7847"
                 r="0.42500001"
                 cy="63.299999"
                 cx="93.932198" />
            </g>
            <g
               id="g7853"
               style="fill:#000000;fill-opacity:1;stroke:none">
              <circle
                 id="circle7851"
                 r="0.5"
                 cy="58.304001"
                 cx="108.3822" />
            </g>
            <g
               id="g7857"
               style="fill:#000000;fill-opacity:1;stroke:none">
              <circle
                 id="circle7855"
                 r="0.5"
                 cy="58.304001"
                 cx="96.444199" />
            </g>
            <g
               id="g7861"
               style="fill:#000000;fill-opacity:1;stroke:none">
              <circle
                 id="circle7859"
                 r="1.6"
                 cy="58.812"
                 cx="76.124199" />
            </g>
            <g
               id="g7865"
               style="fill:#000000;fill-opacity:1;stroke:none">
              <circle
                 id="circle7863"
                 r="1.6"
                 cy="78.370003"
                 cx="76.124199" />
            </g>
            <g
               id="g7869"
               style="fill:#000000;fill-opacity:1;stroke:none">
              <circle
                 id="circle7867"
                 r="1.25"
                 cy="66.050003"
                 cx="135.80721" />
            </g>
            <g
               id="g7873"
               style="fill:#000000;fill-opacity:1;stroke:none">
              <circle
                 id="circle7871"
                 r="1.25"
                 cy="70.550003"
                 cx="135.80721" />
            </g>
            <g
               id="g7877"
               style="fill:#000000;fill-opacity:1;stroke:none">
              <circle
                 id="circle7875"
                 r="0.42500001"
                 cy="66.050003"
                 cx="123.8072" />
            </g>
            <g
               id="g7881"
               style="fill:#000000;fill-opacity:1;stroke:none">
              <circle
                 id="circle7879"
                 r="0.42500001"
                 cy="70.550003"
                 cx="123.8072" />
            </g>
          </g>
        </g>
      </g>
    </g>
    <use
       height="100%"
       width="100%"
       id="use8966"
       transform="translate(30.938745)"
       xlink:href="#g7081"
       inkscape:tiled-clone-of="#g7081"
       y="0"
       x="0" />
    <use
       height="100%"
       width="100%"
       id="use8968"
       transform="translate(61.877482)"
       xlink:href="#g7081"
       inkscape:tiled-clone-of="#g7081"
       y="0"
       x="0" />
    <use
       height="100%"
       width="100%"
       id="use8970"
       transform="translate(92.816233)"
       xlink:href="#g7081"
       inkscape:tiled-clone-of="#g7081"
       y="0"
       x="0" />
  </g>
  <use
     x="0"
     y="0"
     xlink:href="#g9115"
     id="use9117"
     transform="translate(0,95.670948)"
     width="100%"
     height="100%" />
</svg>
